if (_typeface_js && _typeface_js.loadFace) _typeface_js.loadFace({"glyphs":{"S":{"x_min":41.671875,"x_max":775,"ha":817,"o":"m 429 77 b 330 100 393 77 358 87 l 295 119 b 281 123 288 120 281 122 l 266 137 b 240 169 259 140 248 155 l 231 177 b 211 208 231 202 233 208 l 200 218 l 176 218 b 172 219 173 218 173 219 l 165 219 b 94 208 158 219 115 215 l 86 208 l 69 198 b 45 161 62 191 45 172 l 45 141 l 72 94 b 216 -8 120 18 195 -5 l 219 -8 b 288 -22 233 -16 247 -22 b 306 -19 295 -22 302 -20 b 398 -26 333 -23 366 -26 b 766 281 577 -26 766 61 b 681 450 766 379 713 427 l 672 454 b 652 466 661 461 652 465 b 356 541 576 536 440 501 l 358 541 b 256 608 305 576 300 579 l 247 623 l 225 643 b 212 748 218 690 212 706 b 231 820 212 761 213 801 l 231 836 b 233 838 231 836 233 837 l 233 837 l 236 843 l 251 855 l 261 872 l 287 894 l 286 894 l 297 904 b 384 919 319 909 365 919 b 388 918 386 919 387 918 l 387 918 b 420 912 401 915 412 912 l 425 908 b 500 897 468 904 483 897 b 700 727 586 897 616 727 b 751 777 709 727 748 754 l 765 801 b 766 819 765 801 766 808 b 755 883 766 852 755 880 b 758 897 755 886 755 890 l 765 920 b 775 958 770 931 775 950 b 727 1002 775 1002 736 1002 l 708 1002 l 702 1000 b 670 995 697 1000 680 1000 l 641 995 b 633 997 636 995 634 997 l 622 997 b 418 1023 609 997 473 1023 b 55 773 243 1023 104 919 b 54 745 54 766 54 750 l 54 737 b 41 687 54 737 41 706 b 45 581 41 633 44 598 l 45 575 l 69 522 l 77 512 b 98 491 80 508 86 500 l 95 493 b 118 475 101 486 111 477 l 130 462 b 247 405 168 425 181 404 l 254 401 b 365 361 297 380 359 361 l 381 361 b 430 354 394 358 419 354 l 459 354 b 622 222 556 354 622 309 b 429 77 622 154 573 83 "},"/":{"x_min":43.0625,"x_max":754.171875,"ha":796,"o":"m 541 550 l 575 612 b 590 658 575 613 590 655 l 594 691 b 643 801 608 756 631 776 b 644 798 643 800 643 798 b 718 934 651 800 715 934 l 718 931 l 737 952 b 754 972 740 956 754 962 l 698 972 b 533 905 622 972 538 966 b 523 886 530 897 526 888 l 505 861 b 366 454 505 805 405 562 b 295 281 338 397 338 386 b 222 141 268 236 254 181 l 165 81 b 143 68 162 80 147 69 l 122 59 b 105 54 120 58 106 54 l 77 52 b 70 51 75 51 70 51 l 61 51 b 43 36 51 50 43 47 b 48 9 43 27 48 16 l 51 2 b 148 -15 102 -2 122 -15 l 186 -15 b 266 8 202 -12 251 0 l 279 19 l 290 19 b 298 31 293 23 293 27 l 305 41 b 541 550 394 218 473 372 "},"y":{"x_min":41.671875,"x_max":1051.390625,"ha":1094,"o":"m 616 -366 b 645 -377 619 -369 640 -377 b 691 -325 661 -377 679 -347 l 701 -313 b 745 -261 729 -286 723 -291 l 775 -163 l 808 -11 l 808 -12 b 866 191 851 87 866 184 b 955 522 956 409 955 447 l 955 545 b 961 565 955 550 958 562 l 961 563 l 988 588 b 1051 686 1026 622 1051 658 b 1018 713 1051 702 1041 713 b 956 700 1004 712 981 711 l 879 665 b 706 600 729 654 706 625 b 794 536 706 550 772 537 b 801 529 794 536 795 531 b 806 518 801 526 805 519 l 806 505 b 808 490 808 498 808 490 b 786 393 808 448 788 393 l 734 220 b 720 202 733 212 723 204 l 691 205 b 620 237 658 208 619 240 l 570 268 b 530 298 561 268 540 288 l 501 352 l 502 351 b 340 600 434 459 401 513 l 333 611 b 238 694 330 654 301 673 l 213 694 b 181 679 208 694 184 680 l 143 662 l 144 663 b 41 588 61 643 41 605 b 88 552 41 561 80 568 b 269 351 172 495 143 494 l 266 355 b 290 330 270 348 290 334 l 288 330 b 325 283 300 312 322 286 l 347 237 b 359 219 347 237 352 225 l 359 220 b 393 179 370 204 388 183 l 455 119 b 644 26 501 76 598 61 b 668 -20 648 19 663 -9 l 668 -43 b 650 -159 668 -94 662 -125 l 650 -166 b 619 -270 629 -234 619 -251 b 622 -313 619 -281 622 -308 b 616 -359 620 -322 616 -348 l 616 -366 "},"Á":{"x_min":41.671875,"x_max":1127.78125,"ha":1169,"o":"m 140 -43 l 140 -65 b 141 -86 140 -65 141 -66 l 205 -19 l 243 15 b 348 208 316 97 343 183 l 359 225 b 372 259 359 234 365 245 l 380 276 b 420 359 380 308 420 359 b 436 387 422 380 434 386 l 447 387 b 461 381 450 386 458 381 l 505 355 l 505 356 l 543 323 l 541 323 l 550 312 b 559 302 552 308 558 304 l 565 295 b 598 193 573 269 580 193 l 613 193 b 612 198 613 195 613 198 b 623 212 616 202 622 205 l 631 225 l 631 223 b 641 256 631 223 641 243 l 647 288 b 645 311 647 295 645 305 b 681 375 645 326 679 347 l 697 394 b 715 426 705 402 712 409 b 723 420 718 423 720 422 l 722 420 l 738 405 l 745 387 b 754 355 747 380 750 363 l 776 290 b 819 181 795 256 813 190 l 830 152 b 869 1 862 69 863 52 l 869 -8 b 866 -34 869 -13 866 -29 l 866 -61 b 863 -73 863 -63 863 -69 b 877 -79 869 -77 873 -79 b 931 -19 887 -79 913 -37 l 944 -12 b 1033 6 952 2 1018 1 l 1031 6 b 1104 15 1050 11 1068 15 l 1119 22 b 1127 36 1125 30 1127 34 b 1112 50 1127 38 1119 45 l 1101 55 b 1084 70 1087 55 1084 62 l 1084 72 b 1087 70 1086 72 1087 70 b 1073 97 1084 80 1077 88 l 1068 105 b 1062 120 1065 108 1062 119 l 1008 202 b 991 252 1008 220 991 233 b 984 280 991 262 990 270 l 984 277 b 981 284 983 279 981 281 b 801 715 890 512 869 529 b 750 826 781 769 759 823 l 736 875 l 725 895 b 706 951 725 906 706 941 l 705 968 b 669 1009 673 968 690 1009 l 661 1008 b 609 976 643 990 608 979 b 580 970 606 975 590 970 l 565 970 b 475 962 483 970 479 966 b 420 948 466 954 459 948 b 412 945 418 948 418 948 l 413 947 b 400 943 409 945 402 943 l 393 943 b 337 948 369 943 354 948 l 291 948 l 283 944 b 262 926 277 941 265 930 l 262 915 l 275 904 b 306 898 287 904 306 901 l 391 898 b 440 908 409 898 430 908 l 448 908 b 475 898 448 908 469 898 l 486 890 b 494 880 490 886 491 881 l 502 872 b 516 855 506 865 512 858 l 540 822 b 547 802 541 816 544 806 l 547 801 b 538 770 543 790 538 770 b 540 758 538 768 540 761 b 536 745 540 755 540 754 l 530 729 l 531 729 l 484 630 b 452 558 479 606 458 580 l 452 556 b 420 456 452 544 422 465 b 391 393 400 402 401 419 l 393 394 l 350 323 b 255 266 338 283 305 279 b 97 218 234 245 122 230 b 91 213 94 215 94 213 l 77 206 b 41 169 61 198 41 190 b 65 168 48 168 56 168 b 98 169 81 168 97 169 l 113 169 b 168 144 137 169 161 144 l 168 143 b 180 104 168 136 179 106 l 184 91 b 187 56 184 81 187 61 b 151 -33 187 5 172 -11 l 140 -43 m 645 386 l 618 363 b 616 361 616 362 616 362 l 615 359 l 538 433 l 526 440 b 479 484 488 455 484 479 l 479 491 b 494 531 479 501 494 523 l 498 563 l 519 620 l 537 650 l 541 663 l 559 684 b 584 731 563 731 580 731 b 720 468 609 731 708 494 l 720 459 b 708 443 720 451 711 447 l 669 409 b 645 386 659 398 650 388 m 470 1083 l 430 1059 b 406 1038 420 1055 406 1045 b 493 1016 406 1033 440 1016 b 716 1138 548 1016 641 1048 l 787 1219 l 812 1266 b 818 1287 816 1275 818 1281 b 769 1319 818 1319 783 1319 b 565 1148 698 1319 633 1213 l 527 1112 b 470 1083 515 1100 473 1083 "},"g":{"x_min":41.671875,"x_max":713.890625,"ha":756,"o":"m 512 -352 b 536 -383 512 -368 519 -383 l 562 -383 b 631 -306 602 -383 629 -320 l 630 -308 l 644 -283 l 643 -284 l 655 -261 b 670 -226 665 -250 663 -229 l 690 -125 b 695 -75 694 -116 695 -90 l 695 -48 b 706 77 695 -26 697 8 b 713 95 711 84 713 90 l 713 161 b 687 193 712 165 691 188 l 670 193 b 609 168 654 193 626 176 l 598 162 b 573 141 593 159 580 148 l 565 133 b 527 126 562 130 540 127 l 515 126 b 463 152 505 126 476 151 l 415 177 b 329 254 388 191 356 212 l 316 265 l 297 298 b 293 305 295 298 294 304 l 261 354 b 230 448 243 380 230 404 l 230 458 b 236 491 230 462 236 481 b 340 593 281 561 301 570 l 354 593 b 397 586 377 593 390 588 l 405 580 l 405 581 l 501 491 l 530 470 l 619 462 b 713 520 669 475 713 501 l 713 550 b 679 584 708 552 683 579 l 679 583 l 659 612 b 620 648 638 629 630 638 l 579 686 b 505 730 555 706 533 726 l 490 730 b 461 723 486 730 469 725 l 416 706 b 406 704 412 705 408 704 b 293 663 343 701 329 668 l 262 650 b 218 616 250 647 229 629 l 205 606 l 81 480 b 41 375 69 437 41 433 l 41 368 b 166 127 41 309 86 151 l 202 91 l 341 12 l 376 -1 l 444 -1 l 486 6 b 530 26 502 6 519 18 b 541 25 533 25 537 25 b 554 26 544 25 548 25 b 552 23 554 25 554 25 l 554 25 b 558 -6 554 12 555 1 l 554 -23 b 545 -61 554 -29 548 -56 l 533 -197 b 512 -352 523 -236 512 -312 "},"ë":{"x_min":41.671875,"x_max":816.671875,"ha":858,"o":"m 43 304 l 43 294 b 106 161 44 256 75 204 l 144 109 b 241 40 194 50 222 40 b 255 41 247 40 251 41 l 266 41 b 288 30 273 41 279 40 l 305 22 b 319 19 311 22 313 20 l 318 19 b 329 16 320 18 325 16 l 384 8 b 436 1 393 6 431 1 l 493 1 b 516 8 494 1 511 6 l 573 29 b 658 65 618 44 637 59 l 716 80 b 744 100 723 81 741 94 l 744 116 b 716 133 738 130 736 133 b 702 131 713 133 706 131 l 655 123 b 627 118 648 122 631 118 l 606 111 l 594 111 l 475 131 b 427 150 463 140 444 144 l 395 159 b 326 208 393 159 376 179 l 327 208 l 281 248 b 258 275 272 258 265 262 l 251 311 b 222 379 237 311 223 358 b 309 395 231 393 263 395 b 436 386 361 395 386 386 l 665 386 b 816 505 679 386 816 400 b 547 730 816 663 576 730 b 402 747 516 730 447 747 b 283 718 390 747 319 737 l 240 687 l 241 688 l 212 680 l 213 680 b 101 579 201 676 126 608 b 56 483 76 550 62 511 l 56 484 b 41 400 41 436 41 429 b 56 329 41 375 43 344 l 43 304 m 236 500 l 236 580 b 245 591 236 580 240 584 l 244 591 l 263 611 l 273 629 l 309 652 l 333 659 l 369 680 b 411 652 388 670 397 665 l 419 644 l 444 644 b 552 613 486 644 530 625 l 566 608 b 573 581 566 606 568 584 l 575 580 b 670 518 620 545 634 572 b 704 494 680 505 693 498 l 702 495 b 715 483 709 491 715 491 b 627 472 715 475 665 472 b 429 490 580 472 533 490 l 350 490 b 251 495 327 490 272 494 l 245 495 l 236 500 m 572 805 l 581 805 b 638 918 640 805 638 872 b 570 1026 638 984 636 1025 l 565 1026 b 465 966 543 1026 493 1018 l 465 950 b 572 805 480 826 522 804 m 313 801 l 316 801 b 373 922 379 801 373 876 b 305 1023 373 981 369 1023 b 201 962 286 1023 231 1016 l 200 945 b 313 801 216 816 259 802 "},"Î":{"x_min":-23.609375,"x_max":569.4375,"ha":386,"o":"m 48 -15 l 48 -20 l 44 -25 b 41 -31 44 -26 41 -30 l 41 -36 b 58 -25 48 -36 58 -30 l 68 -25 b 77 -19 72 -25 70 -19 l 83 -20 b 90 -19 84 -20 87 -19 l 91 -16 l 112 -9 b 122 -1 115 -5 122 -1 b 143 -5 127 -1 137 -5 l 147 -5 b 237 20 168 5 226 9 l 241 20 b 329 -4 295 -2 329 11 l 338 -9 b 341 -6 341 -9 341 -8 l 341 -1 b 338 4 341 0 338 4 b 344 20 338 9 344 16 b 309 47 344 36 315 29 l 309 61 b 287 109 309 66 287 104 l 287 133 b 284 141 287 133 286 140 l 284 147 b 283 158 284 150 283 158 b 268 636 273 266 268 500 b 261 722 268 663 261 694 b 283 840 261 751 283 823 b 280 861 283 847 283 854 l 280 866 b 290 876 280 869 290 872 l 290 881 b 298 901 290 891 298 895 l 298 909 b 293 920 298 912 293 915 l 293 926 l 298 929 l 298 933 b 293 937 298 934 293 936 l 293 941 l 306 950 l 305 951 l 309 952 b 318 961 311 952 318 958 b 290 969 305 961 298 969 l 273 969 b 254 976 263 969 263 976 l 251 979 b 238 981 247 979 244 981 b 227 977 234 981 227 979 b 230 976 227 976 229 976 b 205 954 215 970 219 954 b 191 958 198 954 191 955 b 198 961 191 959 194 961 b 187 970 195 962 191 965 l 187 981 l 190 981 b 175 984 190 983 179 983 l 175 983 b 170 981 175 983 172 981 l 168 984 b 147 986 161 986 154 986 b 141 973 147 981 144 979 l 129 963 b 79 912 102 925 79 951 b 83 890 79 911 83 891 l 83 883 b 97 854 83 877 97 861 l 98 848 b 101 843 98 845 101 843 b 100 837 101 840 100 838 b 112 794 101 837 112 798 b 98 129 112 544 112 338 b 73 63 98 100 73 97 l 73 43 b 79 34 73 40 77 37 l 80 31 b 79 29 80 31 79 30 l 93 8 b 84 -9 87 4 87 -9 l 80 -9 b 66 -5 79 -8 68 -5 l 66 2 l 61 12 b 58 15 61 13 58 15 l 58 22 l 54 22 l 44 2 l 44 -11 l 48 -15 m 298 1069 b 423 1036 336 1044 380 1036 l 434 1036 b 569 1184 501 1038 569 1084 b 525 1322 569 1220 545 1283 l 523 1325 b 525 1297 523 1315 525 1306 b 390 1170 523 1213 450 1170 b 202 1372 304 1181 223 1268 b 169 1430 187 1411 177 1430 b 44 1176 156 1430 111 1255 l 36 1170 b -12 1138 20 1161 5 1145 l -15 1126 l -15 1127 l -22 1111 b -23 1104 -23 1108 -23 1105 b -16 1087 -23 1097 -20 1093 l -15 1088 l -6 1076 l 8 1066 l 26 1061 b 172 1238 98 1084 145 1165 b 298 1069 209 1179 245 1116 m 54 -16 b 55 -19 55 -16 55 -18 b 54 -20 55 -20 55 -20 b 52 -19 54 -20 52 -20 b 54 -16 52 -18 54 -16 m 243 972 l 248 973 l 250 970 b 243 972 248 970 244 972 "},"e":{"x_min":41.671875,"x_max":772.21875,"ha":814,"o":"m 41 284 l 48 252 b 62 211 51 237 55 222 l 61 212 l 80 165 b 106 125 87 151 97 137 l 119 105 l 176 50 l 193 40 b 306 4 222 23 262 5 l 322 -2 b 358 -4 327 -2 343 -4 l 393 -4 b 540 9 494 -4 491 9 b 615 43 552 9 587 20 l 633 61 l 633 80 l 604 72 b 579 65 594 72 579 65 l 470 65 b 418 81 456 72 427 69 b 304 154 381 105 316 127 l 298 163 b 234 290 261 219 243 243 b 206 358 226 316 206 345 b 294 394 206 379 272 390 l 322 395 b 350 397 333 395 344 397 b 390 390 365 397 377 395 l 405 390 l 431 400 l 697 400 b 772 454 733 400 772 433 b 715 605 772 529 740 577 l 655 669 l 587 716 l 556 726 l 481 740 b 444 731 468 733 463 731 b 412 733 433 731 422 733 l 402 733 b 311 700 375 733 320 709 l 315 706 l 241 673 l 243 673 b 188 627 216 662 206 637 l 147 605 l 133 587 l 134 587 l 113 566 l 93 530 b 84 516 93 526 88 520 l 65 483 b 44 348 48 431 47 418 l 41 284 m 219 480 l 219 502 b 301 630 219 593 284 625 l 409 631 b 472 598 416 631 455 613 l 486 593 l 556 520 b 569 512 561 520 565 516 l 569 513 b 580 497 573 508 580 502 b 488 505 555 505 544 505 b 347 491 397 505 408 491 b 329 484 345 490 331 484 l 288 477 l 277 470 l 258 470 b 223 477 252 470 230 476 l 219 480 "},"Ã":{"x_min":41.671875,"x_max":1127.78125,"ha":1169,"o":"m 1102 1230 b 1109 1295 1102 1262 1109 1281 b 1106 1315 1109 1305 1108 1311 l 1095 1329 b 1058 1295 1081 1329 1058 1295 l 1033 1248 b 955 1136 1018 1190 983 1141 b 934 1169 951 1141 938 1161 l 908 1205 l 909 1204 b 881 1261 904 1227 888 1259 l 883 1259 l 822 1308 b 745 1325 791 1308 776 1325 b 597 1294 713 1320 641 1319 l 572 1277 l 520 1187 b 509 1147 520 1187 513 1162 l 497 1095 l 493 1061 l 493 968 b 420 948 458 963 477 948 b 412 945 418 948 418 948 l 413 947 b 400 943 409 945 402 943 l 393 943 b 337 948 369 943 354 948 l 291 948 l 283 944 b 262 926 277 941 265 930 l 262 915 l 275 904 b 306 898 287 904 306 901 l 391 898 b 440 908 409 898 430 908 l 448 908 b 475 898 448 908 469 898 l 486 890 b 494 880 490 886 491 881 l 502 872 b 516 855 506 865 512 858 l 540 822 b 547 802 541 816 544 806 l 547 801 b 538 770 543 790 538 770 b 540 758 538 768 540 761 b 536 745 540 755 540 754 l 530 729 l 531 729 l 484 630 b 452 558 479 606 458 580 l 452 556 b 420 456 452 544 422 465 b 391 393 400 402 401 419 l 393 394 l 350 323 b 255 266 338 283 305 279 b 97 218 234 245 122 230 b 91 213 94 215 94 213 l 77 206 b 41 169 61 198 41 190 b 65 168 48 168 56 168 b 98 169 81 168 97 169 l 113 169 b 168 144 137 169 161 144 l 168 143 b 180 104 168 136 179 106 l 184 91 b 187 56 184 81 187 61 b 151 -33 187 5 172 -11 l 140 -43 l 140 -65 b 141 -86 140 -65 141 -66 l 205 -19 l 243 15 b 348 208 316 97 343 183 l 359 225 b 372 259 359 234 365 245 l 380 276 b 420 359 380 308 420 359 b 436 387 422 380 434 386 l 447 387 b 461 381 450 386 458 381 l 505 355 l 505 356 l 543 323 l 541 323 l 550 312 b 559 302 552 308 558 304 l 565 295 b 598 193 573 269 580 193 l 613 193 b 612 198 613 195 613 198 b 623 212 616 202 622 205 l 631 225 l 631 223 b 641 256 631 223 641 243 l 647 288 b 645 311 647 295 645 305 b 681 375 645 326 679 347 l 697 394 b 715 426 705 402 712 409 b 723 420 718 423 720 422 l 722 420 l 738 405 l 745 387 b 754 355 747 380 750 363 l 776 290 b 819 181 795 256 813 190 l 830 152 b 869 1 862 69 863 52 l 869 -8 b 866 -34 869 -13 866 -29 l 866 -61 b 863 -73 863 -63 863 -69 b 877 -79 869 -77 873 -79 b 931 -19 887 -79 913 -37 l 944 -12 b 1033 6 952 2 1018 1 l 1031 6 b 1104 15 1050 11 1068 15 l 1119 22 b 1127 36 1125 30 1127 34 b 1112 50 1127 38 1119 45 l 1101 55 b 1084 70 1087 55 1084 62 l 1084 72 b 1087 70 1086 72 1087 70 b 1073 97 1084 80 1077 88 l 1068 105 b 1062 120 1065 108 1062 119 l 1008 202 b 991 252 1008 220 991 233 b 984 280 991 262 990 270 l 984 277 b 981 284 983 279 981 281 b 801 715 890 512 869 529 b 750 826 781 769 759 823 l 736 875 l 725 895 b 706 951 725 906 706 941 l 705 968 b 669 1009 673 968 690 1009 l 661 1008 b 609 976 643 990 608 979 b 580 970 606 975 590 970 l 562 970 l 573 1038 b 675 1198 581 1091 604 1198 b 720 1191 690 1197 705 1193 b 916 1023 886 1015 859 1023 b 1102 1230 991 1023 1055 1033 m 645 386 l 618 363 b 616 361 616 362 616 362 l 615 359 l 538 433 l 526 440 b 479 484 488 455 484 479 l 479 491 b 494 531 479 501 494 523 l 498 563 l 519 620 l 537 650 l 541 663 l 559 684 b 584 731 563 731 580 731 b 720 468 609 731 708 494 l 720 459 b 708 443 720 451 711 447 l 669 409 b 645 386 659 398 650 388 "},"J":{"x_min":41.671875,"x_max":323.609375,"ha":365,"o":"m 134 61 l 134 -201 b 125 -259 134 -216 125 -240 l 125 -337 b 102 -419 125 -375 102 -418 l 102 -440 b 95 -450 102 -441 95 -450 l 95 -458 b 62 -504 95 -461 77 -493 l 76 -504 b 80 -505 76 -505 77 -505 b 190 -468 100 -505 190 -473 l 240 -433 b 281 -341 265 -404 279 -345 b 295 -265 281 -306 295 -263 b 301 -216 297 -259 301 -223 l 301 -183 b 311 -84 301 -150 311 -118 b 301 -19 311 -43 306 -43 l 295 -6 b 301 13 295 -4 301 12 l 301 43 l 308 54 b 311 61 308 54 311 59 b 301 83 311 68 304 73 l 301 155 b 287 204 301 173 287 193 l 287 250 b 275 275 287 256 275 265 l 275 277 b 287 312 275 294 287 302 b 281 362 287 318 281 358 l 281 391 b 287 406 281 394 287 402 b 266 558 287 520 266 547 l 266 640 b 281 758 272 675 273 748 l 287 770 b 281 804 287 775 281 800 l 281 840 b 287 854 281 841 287 854 b 281 890 287 858 281 886 l 281 961 b 287 986 281 962 287 981 l 287 995 b 323 1013 287 1002 320 1013 l 323 1016 b 316 1025 323 1020 316 1025 l 308 1025 b 176 991 252 1004 198 1000 b 106 988 175 991 126 988 l 76 988 b 41 952 52 988 50 977 l 41 950 b 83 893 41 945 83 893 b 80 875 83 891 80 881 b 102 786 80 868 102 819 l 102 765 b 95 744 102 763 95 745 l 95 722 b 102 679 95 718 102 684 l 102 594 b 106 476 102 583 106 488 l 106 416 b 119 402 106 413 119 402 b 116 373 119 400 116 384 b 125 337 116 372 116 344 l 125 183 b 131 147 125 177 131 150 l 131 113 l 125 101 b 143 93 125 94 143 95 l 143 83 b 134 61 143 79 140 65 "},"ò":{"x_min":41.671875,"x_max":795.828125,"ha":838,"o":"m 462 900 l 462 841 b 341 691 462 741 394 723 l 291 661 b 281 656 291 659 284 658 l 237 626 l 173 591 b 41 340 102 533 41 430 b 56 247 41 290 41 290 l 75 205 b 198 56 97 154 125 126 l 223 33 b 370 -1 283 4 304 -1 b 463 6 418 -1 429 -1 l 462 6 b 476 11 461 6 470 9 l 536 26 b 609 73 556 29 598 69 l 636 86 l 650 98 b 788 313 670 147 772 225 l 795 352 l 795 420 b 744 572 788 488 744 545 b 652 661 694 606 684 658 l 626 668 b 569 701 612 668 593 690 l 529 713 l 530 712 l 519 716 b 488 726 508 720 495 726 l 477 726 b 625 916 523 750 625 872 l 625 926 b 627 969 625 940 627 954 b 606 1027 627 987 623 1008 l 601 1034 b 566 1061 591 1044 566 1061 l 515 1093 l 479 1101 l 437 1088 b 380 1080 418 1088 397 1080 l 345 1081 b 272 1097 322 1083 291 1095 l 263 1106 l 252 1133 b 262 1159 258 1133 262 1155 l 254 1159 b 222 1148 247 1159 226 1152 l 188 1130 l 120 1075 l 122 1055 b 127 1034 123 1051 126 1036 l 148 1013 l 175 998 b 220 991 179 997 211 991 l 248 988 b 363 1002 290 988 330 1002 l 372 1001 b 455 931 388 1001 445 943 b 462 900 456 930 461 908 m 202 470 l 202 483 b 205 497 202 486 204 491 l 205 495 b 208 505 206 498 208 502 l 220 525 b 323 608 272 597 302 608 b 345 606 333 608 340 606 b 358 612 350 606 354 608 b 531 512 391 612 529 525 b 588 420 554 486 576 444 l 597 404 b 636 323 597 390 631 338 b 638 286 637 322 638 297 b 620 206 638 244 633 233 l 622 208 l 615 200 l 602 166 l 604 168 b 565 113 587 133 573 119 l 475 113 b 433 126 470 113 440 120 l 400 140 l 401 138 l 390 144 b 344 176 375 151 352 166 l 305 219 b 272 273 302 243 281 254 l 234 344 l 236 343 b 216 400 233 350 218 390 l 208 445 l 208 444 b 202 470 208 444 202 468 "},"D":{"x_min":41.671875,"x_max":1075,"ha":1117,"o":"m 41 490 l 41 390 b 59 268 41 343 58 273 l 84 215 l 104 188 b 152 134 116 166 130 154 l 151 134 l 193 91 l 233 65 l 316 22 b 351 8 329 18 338 12 l 350 9 b 398 0 362 2 388 0 b 431 2 409 0 418 2 b 456 0 438 2 447 1 b 570 4 470 0 487 1 b 600 8 576 4 595 6 l 598 8 l 673 29 l 737 52 b 787 73 740 55 772 68 b 959 216 848 125 869 102 l 1005 279 l 1048 351 b 1075 516 1062 373 1073 395 b 1073 554 1075 520 1075 543 l 1073 591 b 1069 633 1073 604 1073 620 l 1069 634 b 1030 755 1069 665 1030 715 l 1013 786 b 995 820 1004 795 1004 811 l 950 883 b 934 894 944 883 938 890 l 922 911 b 909 930 915 918 909 925 l 869 952 l 852 966 l 827 977 b 669 1079 815 1005 669 1073 l 654 1091 b 634 1104 654 1091 644 1097 l 613 1118 l 615 1118 b 495 1186 600 1126 568 1140 l 461 1208 b 375 1230 436 1223 391 1230 b 306 1208 356 1230 334 1223 l 262 1184 l 233 1163 b 229 1147 233 1156 229 1147 l 229 1133 b 356 1063 229 1075 237 1133 b 418 1026 370 1050 405 1030 l 440 1002 l 488 979 l 491 973 b 511 965 504 969 506 966 l 554 941 b 569 934 558 938 563 936 b 441 891 548 919 454 894 l 391 866 l 393 866 b 363 851 383 862 373 855 l 363 852 b 302 818 354 848 316 825 l 205 751 l 172 722 l 138 683 b 93 627 126 669 113 650 l 70 587 b 41 490 70 543 41 533 m 788 197 b 615 126 715 134 693 136 b 611 127 612 126 612 127 b 498 122 579 127 538 122 b 466 127 484 122 472 123 l 356 183 l 351 188 b 270 251 312 208 288 226 l 248 275 l 238 301 b 198 398 222 347 198 306 b 202 455 198 408 201 452 l 202 505 b 273 645 205 559 240 608 l 273 644 l 284 654 b 338 706 295 665 315 690 l 422 766 b 466 791 443 784 456 788 l 511 806 l 523 819 l 559 819 b 583 830 568 829 576 830 l 593 830 b 680 851 627 830 677 847 l 697 856 b 716 848 705 852 709 852 l 740 831 b 787 780 758 809 773 791 l 786 780 l 812 756 b 841 726 822 748 830 738 l 868 698 l 888 651 l 887 654 b 905 604 888 638 897 619 l 915 568 b 923 472 915 544 918 512 b 908 419 915 455 911 434 l 908 408 b 906 404 908 406 906 405 b 908 386 906 397 908 391 b 904 369 906 381 904 375 l 894 348 b 877 305 887 340 877 319 l 869 291 l 870 294 b 845 251 865 288 847 265 l 788 197 "},"ÿ":{"x_min":41.671875,"x_max":1063.890625,"ha":1106,"o":"m 616 -366 b 645 -377 619 -369 640 -377 b 691 -325 661 -377 679 -347 l 701 -313 b 745 -261 729 -286 723 -291 l 775 -163 l 808 -11 l 808 -12 b 866 191 851 87 866 184 l 873 223 l 881 238 b 934 376 898 268 931 350 l 950 416 b 955 522 950 426 955 495 l 955 545 b 961 565 955 550 958 562 l 961 563 l 988 588 b 1031 633 998 597 1029 629 l 1040 659 b 1063 708 1040 665 1063 677 b 956 700 1038 708 970 701 l 879 665 b 706 600 729 654 706 625 b 794 536 706 550 772 537 b 801 529 794 536 795 531 b 806 518 801 526 805 519 l 806 505 b 808 490 808 498 808 490 b 786 393 808 448 788 393 l 734 220 b 720 202 733 212 723 204 l 691 205 b 620 237 658 208 619 240 l 570 268 b 530 298 561 268 540 288 l 501 352 l 502 351 l 487 393 b 447 441 472 416 447 430 b 340 600 433 484 370 540 l 333 611 b 238 694 330 654 301 673 l 213 694 b 181 679 208 694 184 680 l 143 662 l 144 663 b 41 588 61 643 41 605 b 88 552 41 561 80 568 b 269 351 172 495 143 494 l 266 355 b 290 330 270 348 290 334 l 288 330 b 325 283 300 312 322 286 l 347 237 b 359 219 347 237 352 225 l 359 220 b 393 179 370 204 388 183 l 455 119 b 527 81 484 91 501 94 b 644 26 547 61 638 43 b 668 -20 648 19 663 -9 l 668 -43 b 650 -159 668 -94 662 -125 l 650 -166 b 619 -270 629 -234 619 -251 b 622 -313 619 -281 622 -308 b 616 -359 620 -322 616 -348 l 616 -366 m 704 766 l 713 766 b 770 879 772 766 770 833 b 702 987 770 945 768 986 l 697 987 b 597 927 675 987 625 979 l 597 911 b 704 766 612 787 654 765 m 445 762 l 448 762 b 505 883 511 762 505 837 b 437 984 505 943 501 984 b 333 923 418 984 363 977 l 331 906 b 445 762 348 777 391 763 "},"í":{"x_min":-38.890625,"x_max":372.21875,"ha":332,"o":"m 73 54 l 100 38 b 170 0 100 23 162 1 b 190 -2 175 0 184 -2 b 290 63 220 9 290 13 b 241 155 290 80 262 97 b 237 176 241 158 237 172 b 247 409 237 261 247 338 b 237 465 247 416 237 459 b 245 484 237 468 245 483 b 258 551 256 511 258 534 l 258 570 b 243 719 258 659 254 706 l 225 729 l 216 729 b 66 672 141 729 79 684 b 41 641 50 666 48 654 b 87 556 83 630 87 593 l 87 306 b 86 241 87 277 87 273 b 88 180 87 234 87 186 l 88 173 b 73 54 77 156 73 119 m 25 850 l -15 826 b -38 805 -25 822 -38 812 b 47 783 -38 800 -5 783 b 270 905 102 783 195 815 l 341 986 l 366 1033 b 372 1054 370 1041 372 1048 b 323 1086 372 1086 337 1086 b 119 915 252 1086 187 980 l 81 879 b 25 850 69 866 27 850 "},"w":{"x_min":41.671875,"x_max":1255.5625,"ha":1297,"o":"m 45 404 b 422 2 62 79 376 8 l 447 0 b 484 -2 459 -2 472 -2 b 736 130 636 -2 668 44 b 765 104 752 130 751 104 b 770 105 766 104 770 104 b 818 54 779 98 812 61 l 843 37 b 955 -23 916 -18 915 -23 b 1118 54 990 -23 1062 -22 l 1156 87 b 1245 301 1197 141 1245 237 l 1243 326 b 1255 397 1243 354 1255 365 l 1255 409 b 1186 581 1251 433 1241 498 l 1163 615 b 1094 666 1137 640 1120 654 b 1019 701 1068 693 1030 686 l 1022 683 b 1068 598 1023 670 1066 618 l 1073 530 l 1073 470 l 1063 412 b 1068 391 1065 411 1068 400 b 1058 344 1068 384 1062 358 l 1055 309 l 1038 266 b 922 130 1037 263 986 190 b 865 112 894 112 890 112 b 747 223 818 112 797 148 b 720 458 730 236 720 290 b 722 529 720 476 722 501 b 627 708 722 608 711 708 b 559 530 554 708 576 562 l 559 488 l 563 445 b 566 348 565 404 566 373 b 561 276 566 319 565 298 l 548 250 b 397 72 498 143 445 72 b 234 359 315 72 234 222 b 333 573 234 444 276 534 l 370 598 l 391 606 b 456 625 404 625 434 625 b 470 623 461 625 468 625 l 426 683 b 380 718 409 695 387 701 l 293 743 l 266 734 b 193 709 237 734 215 722 l 166 701 b 136 666 156 693 140 681 b 102 641 133 665 105 645 l 97 623 b 52 516 75 580 52 572 b 44 470 52 501 51 486 l 41 437 l 45 404 "},"$":{"x_min":41.671875,"x_max":775,"ha":817,"o":"m 491 1033 b 380 1169 434 1131 406 1169 b 269 1073 351 1169 325 1126 l 266 1061 b 347 1016 305 1038 334 1034 b 54 745 213 994 54 881 l 54 737 b 41 687 54 737 41 706 b 45 581 41 633 44 598 l 45 575 l 69 522 l 77 512 b 98 491 80 508 86 500 l 95 493 b 118 475 101 486 111 477 l 130 462 b 247 405 168 423 181 405 l 254 401 b 365 361 297 380 359 361 l 372 361 b 350 91 363 237 352 123 l 295 119 b 281 123 288 120 281 122 l 266 137 b 240 169 259 140 248 155 l 231 177 b 211 208 231 202 233 208 l 200 218 l 176 218 b 172 219 173 218 173 219 l 165 219 b 94 208 158 219 115 215 l 86 208 l 69 198 b 45 161 62 191 45 172 l 45 141 l 72 94 b 216 -8 120 18 195 -5 l 219 -8 b 288 -22 233 -16 247 -22 b 306 -19 295 -22 302 -20 l 350 -25 b 395 -181 352 -140 368 -181 b 522 -83 429 -181 522 -106 b 508 -26 522 -70 508 -43 l 508 -13 b 766 281 647 15 766 105 b 681 450 766 379 713 427 l 672 454 b 652 466 661 461 652 465 b 487 516 609 505 548 511 b 491 651 488 568 491 638 l 491 726 b 497 813 491 736 497 804 l 497 836 b 491 897 497 838 493 876 l 500 897 b 700 727 586 897 616 727 b 751 777 709 727 748 754 l 765 801 b 766 819 765 801 766 808 b 755 883 766 852 755 880 b 758 897 755 886 755 890 l 765 920 b 775 958 770 931 775 950 b 727 1002 775 1002 736 1002 l 708 1002 l 702 1000 b 670 995 697 1000 680 1000 l 641 995 b 633 997 636 995 634 997 l 622 997 b 491 1016 613 997 550 1009 l 491 1033 m 356 541 l 358 541 b 256 608 305 576 300 579 l 247 623 l 225 643 b 212 748 218 690 212 706 b 231 820 212 761 213 801 l 231 836 b 233 838 231 836 233 837 l 233 837 l 236 843 l 251 855 l 261 872 l 287 894 l 286 894 l 297 904 b 361 916 312 908 338 913 b 359 891 359 904 359 893 b 372 698 368 822 362 741 b 379 663 373 694 379 668 l 379 533 b 356 541 370 536 363 537 m 622 222 b 498 86 622 166 588 108 b 487 268 494 129 487 162 l 487 313 b 490 352 487 315 488 334 b 622 222 570 344 622 300 "},"\\":{"x_min":41.671875,"x_max":752.78125,"ha":796,"o":"m 254 550 b 490 41 320 372 401 218 l 497 31 b 505 19 502 27 502 23 l 516 19 l 529 8 b 609 -15 544 0 593 -12 l 647 -15 b 744 2 673 -15 693 -2 l 747 9 b 752 36 747 16 752 27 b 734 51 752 47 744 50 l 725 51 b 718 52 725 51 720 51 l 690 54 b 673 59 688 54 675 58 l 652 68 b 630 81 648 69 633 80 l 573 141 b 500 281 541 181 527 236 b 429 454 456 386 456 397 b 290 861 390 562 290 805 l 272 886 b 262 905 269 888 265 897 b 97 972 256 966 173 972 l 41 972 b 58 952 41 962 55 956 l 77 931 l 77 934 b 151 798 80 934 144 800 b 152 801 152 798 152 800 b 201 691 163 776 187 756 l 205 658 b 220 612 205 655 220 613 l 254 550 "},"Ì":{"x_min":-176.390625,"x_max":344.4375,"ha":386,"o":"m 48 -15 l 48 -20 l 44 -25 b 41 -31 44 -26 41 -30 l 41 -36 b 58 -25 48 -36 58 -30 l 68 -25 b 77 -19 72 -25 70 -19 l 83 -20 b 90 -19 84 -20 87 -19 l 91 -16 l 112 -9 b 122 -1 115 -5 122 -1 b 143 -5 127 -1 137 -5 l 147 -5 b 237 20 168 5 226 9 l 241 20 b 329 -4 295 -2 329 11 l 338 -9 b 341 -6 341 -9 341 -8 l 341 -1 b 338 4 341 0 338 4 b 344 20 338 9 344 16 b 309 47 344 36 315 29 l 309 61 b 287 109 309 66 287 104 l 287 133 b 284 141 287 133 286 140 l 284 147 b 283 158 284 150 283 158 b 268 636 273 266 268 500 b 261 722 268 663 261 694 b 283 840 261 751 283 823 b 280 861 283 847 283 854 l 280 866 b 290 876 280 869 290 872 l 290 881 b 298 901 290 891 298 895 l 298 909 b 293 920 298 912 293 915 l 293 926 l 298 929 l 298 933 b 293 937 298 934 293 936 l 293 941 l 306 950 l 305 951 l 309 952 b 318 961 311 952 318 958 b 290 969 305 961 298 969 l 273 969 b 254 976 263 969 263 976 l 251 979 b 238 981 247 979 244 981 b 227 977 234 981 227 979 b 230 976 227 976 229 976 b 205 954 215 970 219 954 b 191 958 198 954 191 955 b 198 961 191 959 194 961 b 187 970 195 962 191 965 l 187 981 l 190 981 b 175 984 190 983 179 983 l 175 983 b 170 981 175 983 172 981 l 168 984 b 147 986 161 986 154 986 b 141 973 147 981 144 979 l 129 963 b 79 912 102 925 79 951 b 83 890 79 911 83 891 l 83 883 b 97 854 83 877 97 861 l 98 848 b 101 843 98 845 101 843 b 100 837 101 840 100 838 b 112 794 101 837 112 798 b 98 129 112 544 112 338 b 73 63 98 100 73 97 l 73 43 b 79 34 73 40 77 37 l 80 31 b 79 29 80 31 79 30 l 93 8 b 84 -9 87 4 87 -9 l 80 -9 b 66 -5 79 -8 68 -5 l 66 2 l 61 12 b 58 15 61 13 58 15 l 58 22 l 54 22 l 44 2 l 44 -11 l 48 -15 m 243 972 l 248 973 l 250 970 b 243 972 248 970 244 972 m 54 -16 b 55 -19 55 -16 55 -18 b 54 -20 55 -20 55 -20 b 52 -19 54 -20 52 -20 b 54 -16 52 -18 54 -16 m 165 1213 l 165 1155 b 123 1059 165 1101 123 1068 b 108 1025 122 1054 112 1031 l 108 1011 b 113 1009 109 1011 111 1009 b 163 1030 131 1009 131 1015 l 237 1073 b 275 1136 250 1072 270 1136 l 275 1134 b 327 1230 297 1162 327 1218 l 327 1240 b 322 1263 327 1251 322 1254 b 333 1275 322 1265 333 1273 l 336 1287 b 309 1341 333 1293 316 1333 l 304 1348 b 269 1375 294 1358 269 1375 l 218 1406 l 181 1415 l 140 1402 b 83 1394 120 1402 100 1394 l 48 1395 b -25 1411 25 1397 -5 1409 l -33 1420 l -44 1447 b -34 1473 -38 1447 -34 1469 l -43 1473 b -75 1462 -50 1473 -70 1466 l -108 1444 l -176 1388 l -175 1369 b -169 1348 -173 1365 -170 1350 l -148 1327 l -122 1312 b -76 1305 -118 1311 -86 1305 l -48 1302 b 66 1316 -6 1302 33 1316 l 75 1315 b 158 1245 91 1315 148 1256 b 165 1213 159 1244 163 1222 "},"Ç":{"x_min":41.671875,"x_max":954.171875,"ha":996,"o":"m 383 -133 l 425 -209 b 451 -280 451 -245 450 -247 l 451 -281 b 456 -302 451 -287 456 -297 l 450 -347 b 440 -380 445 -355 440 -376 l 440 -381 b 375 -423 433 -397 404 -411 l 343 -437 b 329 -443 338 -438 334 -441 l 325 -447 b 312 -456 323 -448 316 -455 l 308 -463 l 309 -469 b 329 -484 309 -477 322 -484 l 336 -487 b 341 -488 338 -487 340 -488 l 356 -490 b 395 -484 369 -490 384 -488 l 429 -479 l 427 -479 l 448 -475 l 497 -458 b 602 -405 531 -447 576 -434 l 611 -401 b 637 -365 616 -391 627 -380 l 650 -323 b 661 -279 656 -306 661 -291 b 584 -148 661 -230 611 -208 l 533 -61 l 538 -22 b 540 -19 540 -20 540 -20 l 541 -15 b 538 -6 540 -12 538 -9 b 722 51 597 -1 687 33 l 775 83 b 823 125 790 93 801 102 l 895 198 l 919 227 l 947 277 b 954 301 950 283 954 293 b 886 362 954 343 897 362 b 802 283 848 362 827 326 l 798 276 b 745 200 784 245 768 216 l 730 191 l 698 165 b 588 141 680 147 622 141 l 569 141 l 552 145 b 523 151 544 145 534 148 l 455 168 b 408 188 451 168 426 179 l 409 187 l 405 190 b 377 206 405 204 387 197 l 354 230 b 340 244 350 237 347 243 l 319 270 b 202 568 234 368 202 445 b 226 688 202 691 222 684 l 226 687 l 262 718 l 261 718 b 476 823 295 743 390 804 b 500 825 480 823 494 823 b 594 802 531 819 579 808 l 591 805 l 602 797 b 631 779 611 788 619 791 l 644 772 l 704 713 l 718 706 b 765 698 729 704 745 698 l 773 701 b 788 713 779 704 784 708 l 793 713 b 806 715 797 713 804 715 l 822 730 b 851 780 847 744 851 770 l 851 783 b 823 830 851 793 850 809 l 805 869 l 780 895 l 754 918 l 665 952 l 641 958 b 623 963 637 958 625 962 l 612 963 b 594 968 608 963 598 966 l 577 968 l 570 970 l 531 970 l 390 929 b 318 894 377 916 345 911 l 313 893 b 130 765 261 863 177 811 l 101 722 l 102 722 b 91 704 98 718 93 708 l 75 686 b 73 679 75 684 73 681 b 41 561 55 625 50 615 l 41 515 b 44 505 41 512 43 508 b 41 490 43 501 41 493 l 41 462 b 54 362 41 433 45 387 l 65 338 l 65 340 l 83 273 l 100 250 l 100 251 b 126 205 106 236 116 220 l 150 168 l 188 129 l 188 125 b 245 80 190 120 219 87 l 261 65 b 293 48 269 59 286 50 l 313 40 b 420 4 350 20 393 9 b 383 -120 391 -19 383 -87 l 383 -133 "},"’":{"x_min":41.671875,"x_max":341.671875,"ha":383,"o":"m 202 666 l 202 583 b 187 522 191 566 187 522 b 202 525 190 522 200 525 l 241 550 b 295 625 255 566 284 611 l 308 641 b 334 700 313 652 331 695 l 341 750 l 341 776 l 327 818 b 262 884 312 844 287 866 l 213 909 l 202 926 b 184 968 191 937 188 968 l 161 968 b 141 959 158 966 143 961 l 95 918 b 62 876 70 895 81 876 b 41 851 58 870 43 854 l 41 834 b 101 776 54 802 75 788 l 155 733 b 202 666 172 716 202 693 "},"-":{"x_min":41.671875,"x_max":1145.828125,"ha":1188,"o":"m 1043 463 l 1048 463 b 1062 462 1050 463 1058 462 b 1090 470 1079 462 1083 463 l 1102 487 b 1145 548 1133 487 1145 534 b 1131 588 1145 573 1141 583 l 1113 588 b 1061 565 1100 588 1062 566 l 1025 534 b 1013 518 1022 530 1013 519 l 1012 518 b 895 455 994 491 930 462 b 830 463 884 455 840 461 l 783 470 b 723 487 766 479 734 487 l 598 487 b 533 479 593 487 540 479 l 491 479 b 456 470 490 479 465 473 l 397 455 b 356 438 387 452 358 441 l 355 437 b 302 431 336 433 319 434 b 241 415 280 425 251 415 b 208 416 227 415 211 416 b 184 408 206 416 190 411 l 143 393 l 65 337 b 54 313 65 337 56 320 l 41 283 l 41 268 l 54 243 l 72 219 l 148 219 b 166 227 151 219 163 225 l 179 243 b 184 283 179 247 183 279 l 195 322 l 237 361 b 350 393 272 377 301 380 l 444 408 b 561 400 486 400 504 400 b 616 401 584 400 608 400 b 637 391 620 393 630 391 b 658 393 645 391 656 393 b 705 384 662 391 701 384 l 775 384 b 818 393 790 384 808 386 l 870 408 b 1043 463 927 413 983 463 "},"Q":{"x_min":41.671875,"x_max":1700,"ha":1028,"o":"m 694 -2 b 850 -115 694 -45 823 -95 b 943 -179 873 -138 941 -179 b 1141 -329 986 -201 1141 -315 l 1188 -372 b 1281 -434 1230 -386 1230 -409 l 1343 -470 b 1388 -490 1351 -473 1383 -488 l 1443 -504 b 1700 -447 1665 -504 1700 -463 l 1700 -425 b 1645 -406 1691 -425 1673 -406 b 1487 -343 1551 -377 1522 -369 b 1379 -273 1440 -330 1379 -280 b 1209 -155 1352 -273 1247 -168 b 1150 -104 1195 -136 1156 -111 b 1047 -34 1130 -94 1066 -34 b 956 15 1034 -23 1001 -12 l 934 29 b 854 112 877 55 854 68 b 869 145 854 129 856 145 b 891 138 870 144 890 140 l 900 138 b 925 231 911 150 925 206 l 938 275 b 948 373 948 306 944 347 b 975 493 970 388 973 484 b 980 538 977 504 980 534 b 979 570 980 540 979 562 l 979 597 l 952 686 b 926 737 944 691 927 737 b 831 898 912 797 873 847 l 815 919 b 706 998 815 933 722 987 b 638 1031 701 1009 651 1025 b 505 1041 615 1031 577 1041 l 497 1041 b 386 1000 430 1026 386 1008 b 477 945 386 988 423 945 b 704 751 643 851 704 751 b 736 715 706 748 730 718 l 748 694 b 759 679 750 690 756 680 l 775 626 b 816 516 798 594 809 537 l 829 419 l 829 398 b 831 376 829 393 831 377 b 827 269 829 359 827 288 b 822 202 826 265 822 211 b 826 120 822 191 823 133 b 783 66 826 109 798 81 l 709 12 l 694 4 l 694 -2 m 44 563 b 56 454 44 505 45 504 b 75 390 63 447 75 393 l 83 375 b 272 144 93 318 144 272 l 319 93 b 404 29 331 69 354 54 l 441 16 b 463 8 448 12 463 8 b 708 79 569 8 708 37 b 618 95 708 87 675 95 b 579 109 615 97 583 109 l 511 130 b 495 145 509 130 497 144 b 451 181 491 147 454 177 l 450 181 b 354 288 436 181 395 256 b 269 375 336 326 287 348 b 187 559 229 431 187 491 b 168 809 179 627 175 716 b 41 627 88 809 41 623 b 44 563 41 625 43 580 "},"M":{"x_min":41.671875,"x_max":1570.828125,"ha":1613,"o":"m 41 538 l 41 475 l 50 381 b 90 245 51 348 61 313 l 98 226 b 194 108 131 193 158 136 b 237 80 201 97 237 83 l 236 80 l 251 70 l 281 43 l 348 15 b 438 5 380 8 384 5 b 548 15 498 5 506 9 l 573 25 b 622 70 583 27 608 48 l 604 80 l 597 88 l 573 88 b 540 98 570 90 544 98 l 500 108 l 412 152 b 323 236 381 177 331 218 l 291 263 b 275 300 284 270 275 284 l 236 409 b 226 455 231 415 227 447 l 226 483 l 218 502 l 218 630 l 243 676 l 259 738 b 484 859 306 791 409 837 l 500 859 b 573 822 531 859 573 820 b 622 797 604 822 604 797 l 670 741 b 701 648 675 723 701 693 l 709 620 l 726 538 b 736 476 736 527 736 508 b 734 447 736 468 734 447 l 718 429 l 718 254 b 708 209 708 248 708 230 b 718 116 708 187 708 162 b 726 70 719 108 726 76 l 743 25 b 830 -2 759 8 805 -2 b 886 15 838 -2 872 8 l 934 43 b 936 56 936 44 936 55 b 895 116 936 83 895 83 l 879 143 b 870 170 876 148 870 168 l 870 198 b 869 277 870 213 869 240 b 879 419 869 313 870 361 b 895 447 881 423 894 441 l 895 520 b 886 586 895 526 886 579 l 886 658 b 975 777 886 700 961 777 l 1016 787 l 1047 787 l 1087 759 l 1177 676 l 1208 638 l 1241 620 l 1281 566 b 1290 548 1284 563 1290 551 b 1288 527 1290 545 1288 536 b 1290 520 1288 525 1290 522 b 1387 126 1344 404 1387 248 l 1387 98 l 1345 -2 b 1373 -4 1352 -2 1372 -4 b 1451 43 1402 -4 1418 11 l 1491 80 b 1547 198 1500 84 1543 183 b 1555 245 1550 204 1555 241 b 1570 291 1556 248 1570 286 b 1555 319 1570 294 1556 315 l 1563 365 l 1563 391 l 1538 447 l 1530 475 l 1466 630 l 1451 676 b 1418 722 1445 687 1429 716 l 1402 731 l 1377 759 b 1338 797 1373 759 1344 777 l 1281 850 b 1201 897 1255 880 1227 890 l 1120 897 l 1056 887 b 895 795 1015 872 911 795 b 855 822 876 795 869 805 l 838 850 b 830 859 838 854 831 859 l 798 887 l 718 943 l 694 952 b 622 970 675 961 634 969 l 588 970 b 476 955 572 966 493 961 b 44 563 90 891 84 648 b 43 552 43 559 43 556 b 44 544 43 550 43 547 b 41 538 43 541 41 540 "},"C":{"x_min":41.671875,"x_max":954.171875,"ha":996,"o":"m 745 200 l 730 191 l 698 165 b 588 141 680 147 622 141 l 569 141 l 552 145 b 523 151 544 145 534 148 l 455 168 b 408 188 451 168 426 179 l 409 187 l 405 190 b 377 206 405 204 387 197 l 354 230 b 340 244 350 237 347 243 l 319 270 b 202 568 234 368 202 445 b 226 688 202 691 222 684 l 226 687 l 262 718 l 261 718 b 476 823 295 743 390 804 b 500 825 480 823 494 823 b 594 802 531 819 579 808 l 591 805 l 602 797 b 631 779 611 788 619 791 l 644 772 l 704 713 l 718 706 b 765 698 729 704 745 698 l 773 701 b 788 713 779 704 784 708 l 793 713 b 806 715 797 713 804 715 l 822 730 b 851 780 847 744 851 770 l 851 783 b 823 830 851 793 850 809 l 805 869 l 780 895 l 754 918 l 665 952 l 641 958 b 623 963 637 958 625 962 l 612 963 b 594 968 608 963 598 966 l 577 968 l 570 970 l 531 970 l 390 929 b 318 894 377 916 345 911 l 313 893 b 130 765 261 863 177 811 l 101 722 l 102 722 b 91 704 98 718 93 708 l 75 686 b 73 679 75 684 73 681 b 41 561 55 625 50 615 l 41 515 b 44 505 41 512 43 508 b 41 490 43 501 41 493 l 41 462 b 54 362 41 433 45 387 l 65 338 l 65 340 l 83 273 l 100 250 l 100 251 b 126 205 106 236 116 220 l 150 168 l 188 129 l 188 125 b 245 80 190 120 219 87 l 261 65 b 293 48 269 59 286 50 l 313 40 b 452 -1 372 9 452 0 l 458 -1 b 525 -8 468 -2 484 -8 b 722 51 581 -8 684 31 l 775 83 b 823 125 790 93 801 102 l 895 198 l 919 227 l 947 277 b 954 301 950 283 954 293 b 886 362 954 343 897 362 b 802 283 848 362 827 326 l 798 276 b 745 200 784 245 768 216 "},"œ":{"x_min":41.671875,"x_max":1151.390625,"ha":1193,"o":"m 41 340 b 54 247 41 290 41 290 l 70 205 b 176 58 87 193 97 143 l 200 33 b 326 -1 250 4 268 -1 b 468 26 369 -1 391 6 b 533 73 486 33 512 62 l 550 81 l 566 98 l 601 144 l 630 87 b 812 -5 690 12 741 -5 b 963 6 854 -5 902 1 b 1027 43 990 19 1004 34 l 1072 58 b 1097 79 1079 61 1095 73 l 1097 98 b 1070 118 1093 115 1090 118 b 1058 116 1065 118 1061 116 l 1023 108 b 1016 106 1022 108 1018 108 l 987 95 l 888 116 l 863 130 l 829 144 b 776 188 829 144 806 166 l 743 229 b 726 254 736 237 731 243 l 726 252 l 722 293 b 698 352 711 293 700 331 b 761 368 708 362 733 368 b 858 358 798 368 816 358 l 1031 358 b 1151 480 1041 358 1151 372 b 941 705 1151 638 965 705 b 831 722 922 705 868 722 b 738 691 822 722 768 712 l 708 663 l 686 656 b 626 590 680 654 651 620 b 568 662 609 612 591 658 l 544 669 b 523 681 537 669 531 675 l 495 701 l 452 716 b 447 719 451 716 448 718 l 448 719 b 426 726 440 723 431 726 b 298 690 395 726 334 715 l 254 659 l 252 661 b 209 626 238 651 223 636 l 209 627 l 159 595 b 41 340 97 536 41 431 m 187 469 l 187 481 b 191 502 187 483 191 497 l 202 520 b 286 601 244 590 269 601 b 298 600 291 601 295 600 l 304 600 b 316 605 309 600 313 601 b 459 509 347 601 456 522 b 506 419 479 483 494 430 l 513 402 b 550 287 520 359 550 331 b 534 209 550 247 545 236 l 536 211 l 529 202 l 519 170 b 490 120 506 143 498 127 l 413 120 b 380 133 411 120 386 127 l 344 151 b 306 181 331 158 313 172 l 273 220 b 215 345 269 251 233 301 l 215 344 b 208 365 215 343 211 356 l 198 401 l 191 444 l 183 444 b 187 469 183 443 187 466 m 709 477 l 709 552 b 716 563 709 552 715 563 l 731 583 l 738 598 b 809 626 758 619 783 626 b 952 577 870 626 940 577 b 1031 491 952 527 1002 541 b 1059 465 1040 477 1050 469 l 1058 465 b 1066 458 1063 461 1066 459 b 998 452 1066 452 1027 452 l 972 452 b 852 469 955 456 894 469 l 791 469 b 723 475 776 469 740 473 l 709 477 "},"!":{"x_min":41.671875,"x_max":283.328125,"ha":325,"o":"m 63 298 b 41 206 50 248 41 220 b 70 190 41 191 50 190 l 106 190 b 187 212 125 200 177 202 l 191 212 b 275 194 201 208 258 194 b 279 195 277 194 279 194 b 277 198 279 195 279 197 b 283 212 277 202 283 208 b 251 233 283 223 256 218 l 251 244 b 231 283 251 248 231 279 l 231 301 b 229 308 231 301 230 306 l 229 312 b 208 772 229 416 208 693 b 227 866 208 795 227 852 b 237 931 227 897 237 904 l 237 947 l 250 954 l 248 955 l 251 955 b 259 962 252 955 259 961 b 234 969 248 962 241 969 l 219 969 b 131 961 169 969 159 961 b 90 965 120 961 108 961 b 45 923 66 933 45 955 b 50 905 45 922 50 906 l 50 900 b 62 877 50 895 62 883 l 63 873 b 65 868 63 870 65 868 l 65 863 b 76 829 65 863 76 833 b 63 298 76 630 76 465 m 56 51 b 134 1 56 5 98 1 l 151 1 b 245 62 211 1 245 4 b 191 152 245 77 240 126 l 177 152 b 56 51 66 136 56 98 "},"ç":{"x_min":41.671875,"x_max":695.828125,"ha":738,"o":"m 287 -141 l 329 -218 b 355 -288 355 -254 354 -255 l 355 -290 b 361 -311 355 -295 361 -305 l 354 -355 b 344 -388 350 -363 344 -384 l 344 -390 b 279 -431 337 -405 308 -419 l 247 -445 b 233 -451 243 -447 238 -450 l 229 -455 b 216 -465 227 -456 220 -463 l 212 -472 l 213 -477 b 233 -493 213 -486 226 -493 l 240 -495 b 245 -497 243 -495 244 -497 l 261 -498 b 300 -493 273 -498 288 -497 l 333 -487 l 331 -487 l 352 -483 l 401 -466 b 506 -413 436 -455 480 -443 l 515 -409 b 541 -373 520 -400 531 -388 l 554 -331 b 565 -287 561 -315 565 -300 b 488 -156 565 -238 515 -216 l 437 -69 l 443 -30 b 444 -27 444 -29 444 -29 l 445 -23 b 443 -16 444 -20 443 -18 b 444 -12 443 -15 444 -13 l 444 -2 b 650 86 537 0 650 58 b 493 102 584 86 520 88 b 470 116 490 104 473 116 b 408 130 452 126 420 122 l 387 145 b 287 236 351 145 293 230 b 245 305 279 255 245 302 l 238 334 b 231 379 238 344 231 369 b 233 393 231 381 233 388 b 225 433 233 400 225 413 b 231 511 225 459 229 483 b 238 525 231 512 238 523 l 238 538 l 259 580 b 350 623 277 598 329 623 b 408 601 379 623 397 612 l 429 588 b 479 559 450 583 459 566 l 493 551 b 534 525 497 550 530 526 l 562 518 b 584 516 562 518 579 516 b 695 580 641 516 695 570 l 695 601 b 647 651 691 600 662 640 l 591 693 l 548 720 b 527 729 545 723 530 729 l 470 729 b 411 706 451 723 433 706 b 366 708 394 706 370 708 l 330 693 l 323 686 b 231 637 315 680 241 643 b 183 594 226 634 188 598 l 162 580 b 84 475 140 559 100 518 l 62 440 b 41 383 58 425 41 386 l 41 277 b 56 229 41 266 51 234 l 77 180 l 105 145 b 140 80 105 120 125 80 b 154 81 145 80 154 81 b 176 75 155 81 170 76 l 211 59 b 340 6 263 40 293 19 b 287 -129 295 -15 287 -88 l 287 -141 "},"È":{"x_min":41.671875,"x_max":1009.71875,"ha":1051,"o":"m 854 -69 b 876 -66 854 -69 868 -69 b 880 -65 877 -66 879 -65 l 895 -48 b 904 -33 897 -45 904 -33 l 911 2 b 923 73 911 31 923 51 l 923 86 b 916 137 919 113 916 130 l 927 177 l 931 304 b 879 288 898 304 895 288 l 831 216 l 822 184 b 765 145 819 165 816 145 b 726 120 763 145 731 129 l 709 104 b 705 101 708 102 706 101 l 683 91 l 636 77 b 620 76 631 77 623 77 l 622 76 b 598 73 612 75 601 73 l 579 73 b 513 87 558 73 544 76 l 487 97 l 488 95 l 412 131 l 355 200 l 355 198 l 351 202 b 308 270 347 237 327 251 l 311 270 l 294 286 b 252 380 281 305 265 348 l 243 404 l 243 402 b 238 450 241 412 238 445 l 231 504 b 226 498 227 504 226 501 b 223 504 226 498 223 502 b 247 518 226 512 234 518 l 601 518 l 633 522 b 765 526 640 522 734 526 b 830 506 788 520 809 522 b 854 495 834 506 847 495 l 863 493 b 868 480 865 488 868 481 l 865 484 b 879 461 865 473 872 465 l 900 456 l 908 458 l 923 472 l 933 487 b 944 512 938 493 944 506 l 945 591 l 941 600 b 931 637 941 612 931 605 l 883 638 b 863 629 880 636 872 629 l 850 622 b 723 612 820 619 744 612 l 547 616 b 433 612 512 616 466 612 l 391 612 l 283 620 l 262 616 l 233 616 b 234 633 233 616 234 623 b 233 640 234 634 233 637 l 233 648 b 241 680 233 663 241 666 l 241 688 l 247 697 l 259 766 b 269 781 263 770 266 775 l 294 806 b 344 866 312 825 326 848 l 344 865 l 351 870 b 408 893 368 886 377 893 b 448 891 420 893 434 891 l 493 890 l 505 884 l 552 883 b 576 888 554 883 570 886 l 590 886 l 612 870 l 611 870 l 629 862 b 723 836 663 855 711 838 l 737 831 l 787 806 b 813 793 797 802 808 795 l 872 733 b 877 718 872 729 876 722 l 911 675 l 911 676 b 918 668 912 673 916 670 l 916 669 l 927 643 b 936 633 931 640 936 634 l 961 622 l 981 625 b 1009 668 1004 630 1009 633 b 1001 694 1009 686 1006 688 l 988 729 l 961 761 l 961 759 l 954 769 l 955 768 l 947 794 b 944 820 947 800 944 816 l 929 838 l 913 904 b 926 931 913 909 926 918 l 926 937 b 884 965 926 955 897 965 b 856 961 863 965 861 961 l 820 962 b 791 956 809 962 805 956 b 787 958 790 956 788 958 l 755 958 b 738 963 751 958 738 963 l 706 970 l 622 970 b 580 969 608 970 593 969 b 561 970 572 969 566 970 l 469 972 b 458 981 468 972 463 976 l 459 981 b 416 1008 448 994 436 1008 l 359 1000 b 320 981 350 1000 337 990 l 280 961 b 254 948 269 954 259 948 l 241 934 l 241 936 b 213 909 236 931 222 919 l 198 890 l 150 841 l 81 731 b 51 625 69 669 58 655 b 41 572 43 593 41 579 b 47 512 41 554 47 529 b 45 506 45 508 45 506 l 45 466 b 55 386 45 455 52 404 l 68 304 b 237 97 109 175 173 138 l 259 62 b 286 40 262 58 281 41 l 320 19 l 355 5 b 369 2 359 5 365 4 l 411 -6 l 437 -6 b 490 -12 451 -6 477 -12 b 504 -11 491 -12 500 -12 l 502 -11 b 508 -9 504 -9 506 -9 l 570 -4 b 595 -1 579 -4 591 -2 l 636 11 l 634 11 l 659 19 b 733 38 691 29 722 15 l 766 37 b 831 11 772 37 801 26 l 830 2 b 850 -18 830 -11 840 -15 b 847 -61 847 -31 847 -47 l 854 -69 m 494 1241 l 494 1183 b 452 1087 494 1129 452 1095 b 437 1052 451 1081 441 1059 l 437 1038 b 443 1037 438 1038 440 1037 b 493 1058 461 1037 461 1043 l 566 1101 b 604 1163 579 1100 600 1163 l 604 1162 b 656 1258 626 1190 656 1245 l 656 1268 b 651 1291 656 1279 651 1281 b 662 1302 651 1293 662 1301 l 665 1315 b 638 1369 662 1320 645 1361 l 633 1376 b 598 1402 623 1386 598 1402 l 547 1434 l 511 1443 l 469 1430 b 412 1422 450 1430 429 1422 l 377 1423 b 304 1438 354 1425 323 1437 l 295 1448 l 284 1475 b 294 1501 290 1475 294 1497 l 286 1501 b 254 1490 279 1501 258 1494 l 220 1472 l 152 1416 l 154 1397 b 159 1376 155 1393 158 1377 l 180 1355 l 206 1340 b 252 1333 211 1338 243 1333 l 280 1330 b 395 1344 322 1330 362 1344 l 404 1343 b 487 1273 420 1343 477 1284 b 494 1241 488 1272 493 1250 "},"X":{"x_min":41.671875,"x_max":994.453125,"ha":1036,"o":"m 511 656 l 509 661 b 401 879 502 687 468 775 l 401 893 b 397 894 400 894 398 894 l 391 976 b 300 958 362 976 334 968 l 209 933 b 163 915 186 925 165 916 l 131 906 l 73 877 l 75 877 b 41 830 48 868 41 831 b 54 802 41 820 54 802 l 69 800 b 100 802 77 800 94 802 l 113 815 l 112 815 l 148 827 b 194 838 159 833 176 838 l 201 838 b 206 834 201 838 205 836 l 234 809 b 368 591 270 745 329 694 l 381 559 l 380 561 l 388 541 l 422 490 b 258 183 388 395 316 244 l 225 151 l 226 151 b 179 115 208 134 186 115 l 152 106 l 129 106 b 72 68 98 106 72 102 b 75 41 72 61 73 47 l 76 23 b 179 0 143 15 140 0 l 216 -2 b 458 218 309 19 390 94 l 468 229 b 509 305 484 247 495 276 l 509 304 l 518 322 l 525 304 b 590 205 541 280 568 248 l 665 83 b 691 47 675 73 684 58 l 713 27 l 726 25 l 731 19 b 819 -2 751 9 804 -1 l 855 0 b 961 41 856 0 958 13 b 963 68 962 47 963 61 b 923 105 963 101 947 104 l 886 106 l 855 115 b 851 118 854 115 852 116 l 837 125 b 630 430 748 151 648 379 b 611 493 630 450 620 476 l 643 537 l 655 561 l 665 588 l 663 587 b 800 808 706 694 759 736 l 829 834 b 834 838 830 836 834 838 l 841 838 b 884 827 855 838 873 831 l 922 813 l 934 802 b 965 800 941 802 958 800 l 980 802 b 994 830 980 802 994 820 b 961 877 994 831 987 868 l 962 877 l 902 906 l 875 915 b 861 919 869 915 866 916 b 643 976 798 945 670 952 l 638 894 l 638 898 b 634 876 636 890 634 884 l 594 809 l 595 811 b 518 644 550 744 540 690 l 511 656 m 511 656 b 509 661 511 658 511 659 l 511 656 "},"ô":{"x_min":41.671875,"x_max":795.828125,"ha":838,"o":"m 41 340 b 56 247 41 290 41 290 l 75 205 b 198 56 97 154 125 126 l 223 33 b 370 -1 283 4 304 -1 b 463 6 418 -1 429 -1 l 462 6 b 476 11 461 6 470 9 l 536 26 b 609 73 556 29 598 69 l 636 86 l 650 98 b 788 313 672 147 772 225 l 795 352 l 795 420 b 744 572 788 488 744 545 b 652 661 694 606 684 658 l 626 668 b 569 701 612 668 593 690 l 529 713 l 530 712 l 519 716 b 488 726 508 720 495 726 b 341 691 451 726 381 716 l 291 661 b 281 656 291 659 284 658 l 237 626 l 173 591 b 41 340 102 533 41 430 m 202 470 l 202 483 b 205 497 202 486 204 491 l 205 495 b 208 505 206 498 208 502 l 220 525 b 323 608 272 597 302 608 b 345 606 333 608 340 606 b 358 612 350 606 354 608 b 531 512 391 612 529 525 b 588 420 554 486 576 444 l 597 404 b 636 323 597 390 631 338 b 638 286 637 322 638 297 b 620 206 638 244 633 233 l 622 208 l 615 200 l 602 166 l 604 168 b 565 113 587 133 573 119 l 475 113 b 433 126 470 113 440 120 l 400 140 l 401 138 l 390 144 b 344 176 375 151 352 166 l 305 219 b 272 273 302 243 281 254 l 234 344 l 236 343 b 216 400 233 350 218 390 l 208 445 l 208 444 b 202 470 208 444 202 468 m 493 786 b 618 752 530 761 575 752 l 629 752 b 763 901 695 755 763 801 b 719 1038 763 937 740 1000 l 718 1041 b 719 1013 718 1031 719 1023 b 584 887 718 930 644 887 b 397 1088 498 898 418 984 b 363 1147 381 1127 372 1147 b 238 893 351 1147 305 972 l 230 887 b 181 855 215 877 200 862 l 179 843 l 179 844 l 172 827 b 170 820 170 825 170 822 b 177 804 170 813 173 809 l 179 805 l 187 793 l 202 783 l 220 777 b 366 955 293 801 340 881 b 493 786 404 895 440 833 "},"Ê":{"x_min":41.671875,"x_max":1009.71875,"ha":1051,"o":"m 854 -69 b 876 -66 854 -69 868 -69 b 880 -65 877 -66 879 -65 l 895 -48 b 904 -33 897 -45 904 -33 l 911 2 b 923 73 911 31 923 51 l 923 86 b 916 137 919 113 916 130 l 927 177 l 931 304 b 879 288 898 304 895 288 l 831 216 l 822 184 b 765 145 819 165 816 145 b 726 120 763 145 731 129 l 709 104 b 705 101 708 102 706 101 l 683 91 l 636 77 b 620 76 631 77 623 77 l 622 76 b 598 73 612 75 601 73 l 579 73 b 513 87 558 73 544 76 l 487 97 l 488 95 l 412 131 l 355 200 l 355 198 l 351 202 b 308 270 347 237 327 251 l 311 270 l 294 286 b 252 380 281 305 265 348 l 243 404 l 243 402 b 238 450 241 412 238 445 l 231 504 b 226 498 227 504 226 501 b 223 504 226 498 223 502 b 247 518 226 512 234 518 l 601 518 l 633 522 b 765 526 640 522 734 526 b 830 506 788 520 809 522 b 854 495 834 506 847 495 l 863 493 b 868 480 865 488 868 481 l 865 484 b 879 461 865 473 872 465 l 900 456 l 908 458 l 923 472 l 933 487 b 944 512 938 493 944 506 l 945 591 l 941 600 b 931 637 941 612 931 605 l 883 638 b 863 629 880 636 872 629 l 850 622 b 723 612 820 619 744 612 l 547 616 b 433 612 512 616 466 612 l 391 612 l 283 620 l 262 616 l 233 616 b 234 633 233 616 234 623 b 233 640 234 634 233 637 l 233 648 b 241 680 233 663 241 666 l 241 688 l 247 697 l 259 766 b 269 781 263 770 266 775 l 294 806 b 344 866 312 825 326 848 l 344 865 l 351 870 b 408 893 368 886 377 893 b 448 891 420 893 434 891 l 493 890 l 505 884 l 552 883 b 576 888 554 883 570 886 l 590 886 l 612 870 l 611 870 l 629 862 b 723 836 663 855 711 838 l 737 831 l 787 806 b 813 793 797 802 808 795 l 872 733 b 877 718 872 729 876 722 l 911 675 l 911 676 b 918 668 912 673 916 670 l 916 669 l 927 643 b 936 633 931 640 936 634 l 961 622 l 981 625 b 1009 668 1004 630 1009 633 b 1001 694 1009 686 1006 688 l 988 729 l 961 761 l 961 759 l 954 769 l 955 768 l 947 794 b 944 820 947 800 944 816 l 929 838 l 913 904 b 926 931 913 909 926 918 l 926 937 b 884 965 926 955 897 965 b 856 961 863 965 861 961 l 820 962 b 791 956 809 962 805 956 b 787 958 790 956 788 958 l 755 958 b 738 963 751 958 738 963 l 706 970 l 622 970 b 580 969 608 970 593 969 b 561 970 572 969 566 970 l 469 972 b 458 981 468 972 463 976 l 459 981 b 416 1008 448 994 436 1008 l 359 1000 b 320 981 350 1000 337 990 l 280 961 b 254 948 269 954 259 948 l 241 934 l 241 936 b 213 909 236 931 222 919 l 198 890 l 150 841 l 81 731 b 51 625 69 669 58 655 b 41 572 43 593 41 579 b 47 512 41 554 47 529 b 45 506 45 508 45 506 l 45 466 b 55 386 45 455 52 404 l 68 304 b 237 97 109 175 173 138 l 259 62 b 286 40 262 58 281 41 l 320 19 l 355 5 b 369 2 359 5 365 4 l 411 -6 l 437 -6 b 490 -12 451 -6 477 -12 b 504 -11 491 -12 500 -12 l 502 -11 b 508 -9 504 -9 506 -9 l 570 -4 b 595 -1 579 -4 591 -2 l 636 11 l 634 11 l 659 19 b 733 38 691 29 722 15 l 766 37 b 831 11 772 37 801 26 l 830 2 b 850 -18 830 -11 840 -15 b 847 -61 847 -31 847 -47 l 854 -69 m 552 1066 b 677 1033 590 1041 634 1033 l 688 1033 b 823 1181 755 1036 823 1081 b 779 1319 823 1218 800 1280 l 777 1322 b 779 1294 777 1312 779 1304 b 644 1168 777 1211 704 1168 b 456 1369 558 1179 477 1265 b 423 1427 441 1408 431 1427 b 298 1173 411 1427 365 1252 l 290 1168 b 241 1136 275 1158 259 1143 l 238 1123 l 238 1125 l 231 1108 b 230 1101 230 1105 230 1102 b 237 1084 230 1094 233 1090 l 238 1086 l 247 1073 l 262 1063 l 280 1058 b 426 1236 352 1081 400 1162 b 552 1066 463 1176 500 1113 "},")":{"x_min":41.671875,"x_max":588.890625,"ha":631,"o":"m 588 479 b 544 711 588 568 572 637 l 534 731 b 404 884 488 783 475 845 l 405 884 l 393 894 b 193 969 356 958 245 969 b 112 962 165 969 137 965 l 87 954 b 41 911 69 944 52 927 b 58 900 48 906 52 902 l 65 891 l 86 890 l 118 879 b 156 868 130 876 144 869 l 240 819 b 323 733 269 793 300 766 l 354 701 b 415 512 370 634 416 548 l 413 479 l 422 459 b 411 330 419 416 416 373 b 384 284 404 313 393 301 l 361 219 b 93 43 281 140 93 98 b 95 13 93 33 95 25 b 91 -8 95 5 91 0 l 140 -1 b 581 390 343 20 522 175 b 584 415 581 397 581 406 l 588 479 "},"Å":{"x_min":41.671875,"x_max":1127.78125,"ha":1169,"o":"m 140 -43 l 140 -65 b 141 -86 140 -65 141 -66 l 205 -19 l 243 15 b 348 208 316 97 343 183 l 359 225 b 372 259 359 234 365 245 l 380 276 b 420 359 380 308 420 359 b 436 387 422 380 434 386 l 447 387 b 461 381 450 386 458 381 l 505 355 l 505 356 l 543 323 l 541 323 l 550 312 b 559 302 552 308 558 304 l 565 295 b 598 193 573 269 580 193 l 613 193 b 612 198 613 195 613 198 b 623 212 616 202 622 205 l 631 225 l 631 223 b 641 256 631 223 641 243 l 647 288 b 645 311 647 295 645 305 b 681 375 645 326 679 347 l 697 394 b 715 426 705 402 712 409 b 723 420 718 423 720 422 l 722 420 l 738 405 l 745 387 b 754 355 747 380 750 363 l 776 290 b 819 181 795 256 813 190 l 830 152 b 869 1 862 69 863 52 l 869 -8 b 866 -34 869 -13 866 -29 l 866 -61 b 863 -73 863 -63 863 -69 b 877 -79 869 -77 873 -79 b 931 -19 887 -79 913 -37 l 944 -12 b 1033 6 952 2 1018 1 l 1031 6 b 1104 15 1050 11 1068 15 l 1119 22 b 1127 36 1125 30 1127 34 b 1112 50 1127 38 1119 45 l 1101 55 b 1084 70 1087 55 1084 62 l 1084 72 b 1087 70 1086 72 1087 70 b 1073 97 1084 80 1077 88 l 1068 105 b 1062 120 1065 108 1062 119 l 1008 202 b 991 252 1008 220 991 233 b 984 280 991 262 990 270 l 984 277 b 981 284 983 279 981 281 b 801 715 890 512 869 529 b 750 826 781 769 759 823 l 736 875 l 725 895 b 706 951 725 906 706 941 l 705 968 b 669 1009 673 968 690 1009 l 661 1008 b 609 976 643 990 608 979 b 580 970 606 975 590 970 l 565 970 b 475 962 483 970 479 966 b 420 948 466 954 459 948 b 412 945 418 948 418 948 l 413 947 b 400 943 409 945 402 943 l 393 943 b 337 948 369 943 354 948 l 291 948 l 283 944 b 262 926 277 941 265 930 l 262 915 l 275 904 b 306 898 287 904 306 901 l 391 898 b 440 908 409 898 430 908 l 448 908 b 475 898 448 908 469 898 l 486 890 b 494 880 490 886 491 881 l 502 872 b 516 855 506 865 512 858 l 540 822 b 547 802 541 816 544 806 l 547 801 b 538 770 543 790 538 770 b 540 758 538 768 540 761 b 536 745 540 755 540 754 l 530 729 l 531 729 l 484 630 b 452 558 479 606 458 580 l 452 556 b 420 456 452 544 422 465 b 391 393 400 402 401 419 l 393 394 l 350 323 b 255 266 338 283 305 279 b 97 218 234 245 122 230 b 91 213 94 215 94 213 l 77 206 b 41 169 61 198 41 190 b 65 168 48 168 56 168 b 98 169 81 168 97 169 l 113 169 b 168 144 137 169 161 144 l 168 143 b 180 104 168 136 179 106 l 184 91 b 187 56 184 81 187 61 b 151 -33 187 5 172 -11 l 140 -43 m 601 1348 l 600 1348 b 586 1354 591 1354 588 1354 b 513 1337 569 1354 531 1345 l 441 1291 b 377 1169 408 1262 377 1212 b 388 1120 377 1144 377 1144 l 387 1122 l 391 1102 l 458 1022 b 534 1002 490 1005 502 1002 l 544 1002 b 672 1059 594 1002 620 1022 l 675 1061 b 730 1154 697 1084 723 1113 l 734 1168 l 734 1205 b 658 1327 726 1256 683 1320 l 658 1326 l 601 1348 m 645 386 l 658 366 l 526 440 b 479 484 488 455 484 479 l 479 491 b 494 531 479 501 494 523 l 498 563 l 519 620 l 537 650 l 541 663 l 559 684 b 584 731 563 731 580 731 b 720 468 609 731 708 494 l 720 459 b 708 443 720 451 711 447 l 669 409 b 645 386 659 398 650 388 m 486 1227 l 490 1237 b 515 1263 502 1254 512 1263 b 520 1262 518 1263 519 1262 b 527 1263 525 1262 526 1263 l 533 1263 b 627 1145 606 1247 608 1173 b 623 1122 627 1134 626 1129 l 611 1097 b 577 1093 611 1097 600 1097 b 526 1126 568 1093 547 1106 b 512 1148 525 1134 519 1143 l 509 1155 b 484 1218 497 1179 484 1200 b 486 1227 484 1222 484 1225 m 616 361 l 611 362 b 616 361 615 362 616 361 "},"ø":{"x_min":36.109375,"x_max":795.828125,"ha":838,"o":"m 41 340 b 56 247 41 290 41 290 l 75 205 b 198 56 112 168 123 126 l 216 38 b 215 36 216 37 215 36 l 158 -23 b 136 -37 155 -25 140 -36 l 115 -45 b 98 -51 113 -47 100 -51 l 70 -52 b 63 -54 68 -54 63 -54 l 54 -54 b 36 -69 44 -55 36 -58 b 41 -95 36 -77 41 -88 l 44 -102 b 141 -120 95 -108 115 -120 l 179 -120 b 259 -97 195 -118 244 -105 l 272 -86 l 283 -86 b 291 -73 286 -81 286 -77 l 298 -63 b 331 0 309 -40 319 -20 b 370 -1 343 -1 355 -1 b 463 6 418 -1 429 -1 l 462 6 b 476 11 461 6 470 9 l 536 26 b 609 73 556 29 598 69 l 636 86 l 650 98 b 788 313 670 147 772 225 l 795 352 l 795 420 b 744 572 788 488 744 545 b 652 661 694 606 684 658 l 619 668 b 636 695 626 677 631 686 b 637 693 636 694 636 693 b 711 829 644 694 708 829 l 711 826 l 730 847 b 747 866 733 851 747 856 l 691 866 b 526 800 615 866 531 861 b 516 780 523 791 519 783 l 498 755 b 494 725 498 748 497 737 b 488 726 491 726 490 726 b 341 691 451 726 381 716 l 291 661 b 281 656 291 659 284 658 l 237 626 l 173 591 b 41 340 102 533 41 430 m 202 470 l 202 483 b 205 497 202 486 204 491 l 205 495 b 208 505 206 498 208 502 l 220 525 b 323 608 272 597 302 608 b 345 606 333 608 340 606 b 358 612 350 606 354 608 b 444 573 373 612 409 594 b 305 218 387 415 352 337 l 305 219 b 272 273 302 243 281 254 l 234 344 l 236 343 b 216 400 233 350 218 390 l 208 445 l 208 444 b 202 470 208 444 202 468 m 534 444 l 554 481 b 588 420 568 459 580 436 l 597 404 b 636 323 597 390 631 338 b 638 286 637 322 638 297 b 620 206 638 244 633 233 l 622 208 l 615 200 l 602 166 l 604 168 b 565 113 587 133 573 119 l 475 113 b 433 126 470 113 440 120 l 402 138 b 534 444 451 238 494 338 "},"â":{"x_min":41.671875,"x_max":737.5,"ha":779,"o":"m 666 130 l 608 168 l 595 179 l 597 177 b 501 347 544 226 520 251 b 477 425 488 359 486 380 b 475 437 477 429 476 434 l 468 477 l 450 529 b 427 619 438 559 440 591 l 429 619 b 344 729 412 673 384 706 l 316 729 l 269 723 l 258 718 b 219 681 243 706 225 684 l 212 665 b 211 654 212 661 211 655 b 226 606 211 644 213 620 l 252 561 l 251 562 l 281 483 b 302 416 284 477 302 425 l 302 384 b 231 318 295 373 254 323 l 231 295 l 261 302 l 281 302 b 297 311 284 304 295 311 l 323 311 b 348 244 330 311 348 250 l 344 237 b 252 137 333 202 315 137 b 201 170 219 137 209 144 l 201 169 l 195 188 l 195 206 b 215 262 195 211 212 256 l 215 281 b 172 273 195 281 180 277 l 150 252 l 119 230 b 51 151 119 220 75 201 l 41 138 l 50 76 b 120 -2 54 41 77 6 l 161 -2 b 200 12 169 -2 197 8 l 276 63 b 304 90 283 69 300 86 l 330 123 l 354 141 b 369 152 358 144 368 152 l 372 152 b 415 95 379 141 391 116 l 415 97 l 470 41 l 483 36 b 491 33 484 36 488 33 b 580 16 525 20 536 16 b 737 62 656 16 737 34 b 666 130 737 94 676 127 m 413 780 b 538 747 451 755 495 747 l 550 747 b 684 895 616 750 684 795 b 640 1033 684 931 661 994 l 638 1036 b 640 1008 638 1026 640 1018 b 505 881 638 925 565 881 b 318 1083 419 893 338 979 b 284 1141 302 1122 293 1141 b 159 887 272 1141 226 966 l 151 881 b 102 850 136 872 120 856 l 100 837 l 100 838 l 93 822 b 91 815 91 819 91 816 b 98 798 91 808 94 804 l 100 800 l 108 787 l 123 777 l 141 772 b 287 950 213 795 261 876 b 413 780 325 890 361 827 "},"Ä":{"x_min":41.671875,"x_max":1127.78125,"ha":1169,"o":"m 140 -43 l 140 -65 b 141 -86 140 -65 141 -66 l 205 -19 l 243 15 b 348 208 316 97 343 183 l 359 225 b 372 259 359 234 365 245 l 380 276 b 420 359 380 308 420 359 b 436 387 422 380 434 386 l 447 387 b 461 381 450 386 458 381 l 505 355 l 505 356 l 543 323 l 541 323 l 550 312 b 559 302 552 308 558 304 l 565 295 b 598 193 573 269 580 193 l 613 193 b 612 198 613 195 613 198 b 623 212 616 202 622 205 l 631 225 l 631 223 b 641 256 631 223 641 243 l 647 288 b 645 311 647 295 645 305 b 681 375 645 326 679 347 l 697 394 b 715 426 705 402 712 409 b 723 420 718 423 720 422 l 722 420 l 738 405 l 745 387 b 754 355 747 380 750 363 l 776 290 b 819 181 795 256 813 190 l 830 152 b 869 1 862 69 863 52 l 869 -8 b 866 -34 869 -13 866 -29 l 866 -61 b 863 -73 863 -63 863 -69 b 877 -79 869 -77 873 -79 b 931 -19 887 -79 913 -37 l 944 -12 b 1033 6 952 2 1018 1 l 1031 6 b 1104 15 1050 11 1068 15 l 1119 22 b 1127 36 1125 30 1127 34 b 1112 50 1127 38 1119 45 l 1101 55 b 1084 70 1087 55 1084 62 l 1084 72 b 1087 70 1086 72 1087 70 b 1073 97 1084 80 1077 88 l 1068 105 b 1062 120 1065 108 1062 119 l 1008 202 b 991 252 1008 220 991 233 b 984 280 991 262 990 270 l 984 277 b 981 284 983 279 981 281 b 801 715 890 512 869 529 b 750 826 781 769 759 823 l 736 875 l 725 895 b 706 951 725 906 706 941 l 705 968 b 669 1009 673 968 690 1009 l 661 1008 b 609 976 643 990 608 979 b 580 970 606 975 590 970 l 565 970 b 475 962 483 970 479 966 b 420 948 466 954 459 948 b 412 945 418 948 418 948 l 413 947 b 400 943 409 945 402 943 l 393 943 b 337 948 369 943 354 948 l 291 948 l 283 944 b 262 926 277 941 265 930 l 262 915 l 275 904 b 306 898 287 904 306 901 l 391 898 b 440 908 409 898 430 908 l 448 908 b 475 898 448 908 469 898 l 486 890 b 494 880 490 886 491 881 l 502 872 b 516 855 506 865 512 858 l 540 822 b 547 802 541 816 544 806 l 547 801 b 538 770 543 790 538 770 b 540 758 538 768 540 761 b 536 745 540 755 540 754 l 530 729 l 531 729 l 484 630 b 452 558 479 606 458 580 l 452 556 b 420 456 452 544 422 465 b 391 393 400 402 401 419 l 393 394 l 350 323 b 255 266 338 283 305 279 b 97 218 234 245 122 230 b 91 213 94 215 94 213 l 77 206 b 41 169 61 198 41 190 b 65 168 48 168 56 168 b 98 169 81 168 97 169 l 113 169 b 168 144 137 169 161 144 l 168 143 b 180 104 168 136 179 106 l 184 91 b 187 56 184 81 187 61 b 151 -33 187 5 172 -11 l 140 -43 m 645 386 l 618 363 b 616 361 616 362 616 362 l 615 359 l 538 433 l 526 440 b 479 484 488 455 484 479 l 479 491 b 494 531 479 501 494 523 l 498 563 l 519 620 l 537 650 l 541 663 l 559 684 b 584 731 563 731 580 731 b 720 468 609 731 708 494 l 720 459 b 708 443 720 451 711 447 l 669 409 b 645 386 659 398 650 388 m 687 1055 l 697 1055 b 754 1168 755 1055 754 1122 b 686 1276 754 1234 751 1275 l 680 1276 b 580 1216 658 1276 608 1268 l 580 1200 b 687 1055 595 1076 637 1054 m 429 1051 l 431 1051 b 488 1172 494 1051 488 1126 b 420 1273 488 1231 484 1273 b 316 1212 401 1273 347 1266 l 315 1195 b 429 1051 331 1066 375 1052 "},"a":{"x_min":41.671875,"x_max":754.171875,"ha":796,"o":"m 681 136 l 609 187 l 611 186 b 512 362 556 236 531 262 b 488 444 500 376 497 398 b 484 456 488 448 487 454 l 477 500 l 459 552 b 437 647 448 584 450 618 l 438 647 b 351 762 420 704 393 738 l 323 762 l 275 756 l 263 751 b 223 712 247 738 229 715 l 216 695 b 215 683 216 691 215 686 b 230 634 215 673 218 648 l 258 586 l 256 587 l 287 505 b 309 436 290 500 309 444 l 309 402 b 236 331 301 390 259 338 l 236 309 l 266 316 l 287 316 b 302 325 290 318 301 325 l 330 325 b 355 255 337 325 355 261 l 351 248 b 258 144 340 212 322 144 b 205 179 223 144 213 151 l 205 177 l 200 197 l 200 216 b 219 275 200 220 216 268 l 219 294 b 175 286 200 294 183 290 l 152 263 l 120 241 b 51 158 120 230 76 211 l 41 145 l 50 80 b 122 -2 54 43 79 6 l 163 -2 b 204 12 172 -2 201 8 l 281 66 b 311 94 288 72 305 90 l 337 129 l 361 148 b 377 159 365 151 376 159 l 380 159 b 423 100 387 148 400 122 l 423 101 l 480 43 l 494 37 b 502 34 495 37 500 34 b 593 18 536 22 548 18 b 754 65 672 18 754 36 b 681 136 754 98 691 133 "},"=":{"x_min":41.671875,"x_max":901.390625,"ha":943,"o":"m 836 772 l 836 770 b 804 815 830 800 822 811 l 786 811 l 786 812 b 743 775 768 805 751 781 l 723 736 l 716 711 b 645 630 708 683 668 643 l 650 630 b 426 588 606 616 561 630 l 386 568 b 45 277 262 477 123 426 l 41 247 l 44 225 l 62 198 b 108 187 80 190 95 187 b 173 218 136 187 158 194 l 181 238 b 175 280 180 245 175 276 b 176 315 175 291 176 302 l 197 356 b 256 402 219 355 233 388 l 333 447 b 420 469 359 450 377 455 b 652 552 479 487 580 483 b 843 752 720 601 843 697 b 836 772 843 759 840 766 m 894 533 l 894 531 b 862 576 888 561 880 572 l 844 572 l 844 573 b 801 536 826 566 809 543 l 781 497 l 775 472 b 704 391 766 444 726 404 l 708 391 b 484 350 665 377 619 391 l 444 329 b 104 38 320 238 181 187 l 100 8 l 102 -13 l 120 -40 b 166 -51 138 -48 154 -51 b 231 -20 195 -51 215 -41 l 240 0 b 233 41 238 6 233 37 b 234 76 233 52 234 63 l 255 118 b 315 163 277 116 291 150 l 391 208 b 479 230 418 211 436 216 b 711 313 537 248 638 244 b 901 513 779 362 901 458 b 894 533 901 520 898 527 "},"N":{"x_min":41.671875,"x_max":1020.828125,"ha":1063,"o":"m 100 -138 b 158 -181 113 -170 143 -181 b 250 -93 170 -181 250 -116 b 247 -38 250 -79 247 -48 l 247 -16 l 252 -4 b 256 19 252 1 256 6 l 256 66 b 259 140 256 86 259 112 l 259 173 b 262 323 259 222 262 277 b 258 390 262 347 262 372 l 252 413 l 280 386 l 306 368 b 526 201 348 338 454 227 l 525 201 l 540 191 b 547 186 540 191 543 190 b 545 183 547 186 545 184 l 565 165 b 575 159 572 159 569 163 l 609 137 b 698 87 634 116 666 91 l 729 75 b 850 66 750 72 777 76 l 856 37 l 900 1 b 995 59 948 1 990 54 b 1009 106 1001 68 1008 106 l 1009 105 b 1011 108 1009 106 1009 106 l 1011 152 b 1016 181 1015 159 1016 166 b 1015 213 1016 183 1016 202 l 1015 237 b 1009 369 1015 288 1009 316 b 1015 545 1009 422 1015 480 l 1015 576 b 1016 587 1015 579 1016 583 l 1016 611 b 1020 629 1016 616 1016 625 l 1020 720 b 1018 737 1020 720 1019 730 l 1018 736 l 1015 745 l 1015 769 b 1020 843 1015 788 1020 820 l 1020 854 b 1013 897 1020 876 1013 883 l 1006 897 b 1009 906 1008 901 1009 904 l 1005 923 b 931 993 1005 958 973 993 l 916 993 b 863 972 913 993 877 979 l 804 916 b 797 877 797 909 797 887 b 818 827 797 868 806 838 l 834 815 b 844 647 841 812 844 722 b 843 638 844 644 843 641 l 843 383 b 845 361 843 368 844 363 l 845 362 b 848 350 847 356 848 351 l 848 330 b 847 263 847 313 847 283 l 847 229 l 844 229 b 825 234 837 229 841 230 l 826 233 b 276 659 726 279 358 555 b 262 706 263 670 262 679 l 262 740 b 265 769 263 747 265 762 l 263 797 b 240 972 263 909 248 952 l 240 1002 l 181 1002 b 154 1001 169 1002 158 1002 l 133 998 b 88 988 129 994 105 988 l 63 979 b 41 925 63 979 41 954 b 63 891 43 912 54 901 l 73 876 b 80 850 75 868 76 859 l 81 844 b 86 812 81 840 83 818 l 91 773 b 93 758 91 769 91 762 b 87 718 93 748 90 730 l 87 712 b 84 684 86 702 84 688 l 84 670 b 86 666 84 669 86 668 l 81 611 b 77 572 79 605 77 577 b 80 504 77 558 80 513 l 80 480 b 77 455 80 477 77 459 l 77 386 b 76 381 77 384 76 383 l 76 315 b 77 306 76 309 77 308 l 77 287 b 75 211 75 269 75 223 l 79 177 l 79 148 b 86 90 80 140 86 97 l 86 79 b 83 58 86 73 83 68 l 83 13 b 86 -26 83 0 84 -16 l 86 -30 b 90 -90 86 -47 90 -65 l 100 -138 "},"ú":{"x_min":41.671875,"x_max":813.890625,"ha":856,"o":"m 577 33 b 600 23 588 33 600 29 b 598 5 600 20 598 11 b 612 -12 598 4 606 -9 l 631 -43 b 693 -54 645 -43 656 -48 l 725 -54 b 788 -22 729 -54 779 -22 l 805 -8 b 813 8 805 -5 812 5 l 813 15 l 801 44 b 784 59 798 48 787 59 l 779 59 b 758 179 761 69 758 133 l 758 223 b 765 473 758 308 765 386 b 762 573 765 505 765 538 l 762 576 b 755 608 762 583 758 604 l 738 661 b 726 691 738 676 729 684 l 705 706 b 680 709 704 708 686 708 b 611 688 652 709 634 697 b 515 650 555 669 548 681 l 486 615 l 486 608 b 500 591 486 605 497 593 l 501 590 b 520 598 508 590 513 598 b 587 501 559 598 583 518 b 588 504 587 502 588 504 b 584 247 588 493 584 402 l 584 151 b 484 106 566 115 523 106 b 240 381 319 106 240 227 b 305 580 240 454 259 526 b 359 650 319 588 340 638 l 368 668 b 348 695 368 672 352 691 l 320 695 b 248 684 313 695 255 686 b 58 629 156 684 101 672 b 56 625 58 629 56 626 l 58 620 b 73 602 59 615 70 602 l 129 598 b 137 577 131 594 137 583 b 95 501 137 561 111 518 l 80 472 b 73 451 79 470 73 456 l 63 422 b 41 290 51 408 54 350 l 41 263 b 65 175 41 231 65 172 l 91 127 l 145 68 b 327 0 215 15 318 0 b 441 18 351 0 441 13 b 463 16 445 18 463 16 l 513 27 b 558 33 523 29 552 33 l 577 33 m 286 850 l 245 826 b 222 805 236 822 222 812 b 308 783 222 800 255 783 b 531 905 363 783 456 815 l 602 986 l 627 1033 b 633 1054 631 1041 633 1048 b 584 1086 633 1086 598 1086 b 380 915 513 1086 448 980 l 343 879 b 286 850 330 866 288 850 "},"2":{"x_min":41.671875,"x_max":762.5,"ha":804,"o":"m 570 -9 b 602 -20 580 -12 600 -18 l 659 -40 l 684 -45 b 722 -51 698 -50 701 -51 b 738 -50 726 -51 733 -50 l 744 -50 b 762 -31 748 -48 762 -34 l 745 170 b 716 190 745 175 726 190 l 693 190 b 625 179 684 190 636 181 l 525 169 b 426 148 516 166 434 148 l 413 148 b 352 147 395 148 366 147 l 297 147 l 304 154 l 363 187 l 376 197 b 434 238 390 205 419 238 l 434 237 l 468 261 l 466 261 l 487 276 l 581 370 b 630 437 590 375 619 423 l 668 484 l 683 537 l 683 536 l 694 576 b 511 898 694 620 693 777 l 448 934 b 320 963 441 938 348 963 l 295 963 b 205 943 275 959 212 945 l 206 944 b 137 888 193 938 145 898 l 137 865 b 161 822 137 845 145 822 l 386 822 b 452 786 388 820 437 798 l 473 769 l 486 748 b 498 723 490 741 498 723 l 511 526 b 500 500 511 526 505 511 l 495 491 b 463 438 490 481 465 438 l 452 425 b 211 197 430 390 295 268 l 151 147 l 41 63 l 45 11 l 106 5 b 337 -4 172 0 205 -2 l 570 -9 "},"ü":{"x_min":41.671875,"x_max":813.890625,"ha":856,"o":"m 577 33 b 600 23 588 33 600 29 b 598 5 600 20 598 11 b 612 -12 598 4 606 -9 l 631 -43 b 693 -54 645 -43 656 -48 l 725 -54 b 788 -22 729 -54 779 -22 l 805 -8 b 813 8 805 -5 812 5 l 813 15 l 801 44 b 784 59 798 48 787 59 l 779 59 b 758 179 761 69 758 133 l 758 223 b 765 473 758 308 765 386 b 762 573 765 505 765 538 l 762 576 b 755 608 762 583 758 604 l 738 661 b 726 691 738 676 729 684 l 705 706 b 680 709 704 708 686 708 b 611 688 652 709 634 697 b 515 650 555 669 548 681 l 486 615 l 486 608 b 500 591 486 605 497 593 l 501 590 b 520 598 508 590 513 598 b 587 501 559 598 583 518 b 588 504 587 502 588 504 b 584 247 588 493 584 402 l 584 151 b 484 106 566 115 523 106 b 240 381 319 106 240 227 b 305 580 240 454 259 526 b 359 650 319 588 340 638 l 368 668 b 348 695 368 672 352 691 l 320 695 b 248 684 313 695 255 686 b 58 629 156 684 101 672 b 56 625 58 629 56 626 l 58 620 b 73 602 59 615 70 602 l 129 598 b 137 577 131 594 137 583 b 95 501 137 561 111 518 l 80 472 b 73 451 79 470 73 456 l 63 422 b 41 290 51 408 54 350 l 41 263 b 65 175 41 231 65 172 l 91 127 l 145 68 b 327 0 215 15 318 0 b 441 18 351 0 441 13 b 463 16 445 18 463 16 l 513 27 b 558 33 523 29 552 33 l 577 33 m 587 783 l 597 783 b 654 895 655 783 654 850 b 586 1004 654 962 651 1002 l 580 1004 b 480 944 558 1004 508 995 l 480 927 b 587 783 495 804 537 781 m 329 779 l 331 779 b 388 900 394 779 388 854 b 320 1001 388 959 384 1001 b 216 940 301 1001 247 994 l 215 923 b 329 779 231 794 275 780 "},"Z":{"x_min":41.671875,"x_max":1173.609375,"ha":869,"o":"m 459 -62 b 577 -161 537 -137 576 -151 b 651 -209 580 -161 629 -197 b 733 -241 672 -227 731 -231 l 734 -241 b 797 -252 751 -241 786 -252 b 1068 -176 875 -240 961 -256 b 1173 -47 1083 -158 1155 -91 l 1172 -40 b 1170 -41 1172 -41 1172 -41 b 1152 -40 1166 -41 1156 -40 b 1151 -43 1151 -41 1151 -41 b 1043 -91 1102 -55 1076 -86 b 981 -94 1022 -94 1002 -93 b 930 -76 972 -90 948 -76 l 920 -76 b 720 0 879 -76 737 -16 b 643 59 683 34 644 47 l 629 72 b 584 102 616 90 594 83 b 491 166 523 140 512 141 l 486 175 b 458 205 477 188 459 188 l 458 218 b 519 355 458 265 498 297 b 526 376 519 355 522 368 l 537 404 b 652 681 588 506 626 595 l 661 718 l 686 786 b 700 804 686 787 694 797 l 736 844 b 775 840 740 844 762 840 b 800 847 786 840 797 844 l 841 909 l 841 927 b 797 961 841 972 822 941 b 693 956 786 959 722 956 l 659 961 l 568 961 l 550 956 l 359 956 b 300 962 350 956 322 959 l 280 962 b 200 988 244 968 206 988 l 190 988 b 148 975 172 988 158 980 l 150 977 b 134 969 140 973 134 969 l 100 965 l 75 948 b 41 888 66 943 56 934 b 187 750 41 769 168 750 b 261 779 204 750 256 775 l 261 776 l 280 798 b 294 830 284 809 290 816 l 326 836 l 398 834 b 509 818 423 834 468 834 l 500 806 l 504 806 l 477 744 b 456 687 472 736 458 704 l 458 688 l 397 544 b 366 461 386 520 375 486 l 333 365 l 329 365 l 329 352 l 305 280 b 297 252 305 276 300 263 l 297 251 b 293 238 294 247 293 241 l 272 177 b 248 115 254 162 248 118 l 248 98 b 458 -65 341 75 336 -5 b 459 -62 458 -65 459 -63 "},"u":{"x_min":41.671875,"x_max":813.890625,"ha":856,"o":"m 577 33 b 600 23 588 33 600 29 b 598 5 600 20 598 11 b 612 -12 598 4 606 -9 l 631 -43 b 693 -54 645 -43 656 -48 l 725 -54 b 788 -22 729 -54 779 -22 l 805 -8 b 813 8 805 -5 812 5 l 813 15 l 801 44 b 784 59 798 48 787 59 l 779 59 b 758 179 761 69 758 133 l 758 223 b 765 473 758 308 765 386 b 762 573 765 505 765 538 l 762 576 b 755 608 762 583 758 604 l 738 661 b 726 691 738 676 729 684 l 705 706 b 680 709 704 708 686 708 b 611 688 652 709 634 697 b 515 650 555 669 548 681 l 486 615 l 486 608 b 500 591 486 605 497 593 l 501 590 b 520 598 508 590 513 598 b 587 501 559 598 583 518 b 588 504 587 502 588 504 b 584 247 588 493 584 402 l 584 151 b 484 106 566 115 523 106 b 240 381 319 106 240 227 b 305 580 240 454 259 526 b 359 650 319 588 340 638 l 368 668 b 348 695 368 672 352 691 l 320 695 b 248 684 313 695 255 686 b 58 629 156 684 101 672 b 56 625 58 629 56 626 l 58 620 b 73 602 59 615 70 602 l 129 598 b 137 577 131 594 137 583 b 95 501 137 561 111 518 l 80 472 b 73 451 79 470 73 456 l 63 422 b 41 290 51 408 54 350 l 41 263 b 65 175 41 231 65 172 l 91 127 l 145 68 b 327 0 215 15 318 0 b 441 18 351 0 441 13 b 463 16 445 18 463 16 l 513 27 b 558 33 523 29 552 33 l 577 33 "},"Ó":{"x_min":41.671875,"x_max":1000,"ha":1042,"o":"m 411 8 b 433 5 419 8 426 6 l 431 5 b 477 0 441 2 454 0 b 526 6 498 0 512 2 l 525 6 l 615 25 b 619 30 615 27 618 30 l 633 34 b 665 44 643 36 656 40 l 706 63 b 800 129 731 93 761 90 l 818 147 b 888 208 830 152 858 173 l 908 230 l 925 243 b 972 373 956 266 972 369 l 972 375 b 1000 506 972 401 1000 475 l 1000 509 l 997 558 b 986 626 994 565 986 606 b 897 801 986 638 944 768 l 888 813 l 847 855 l 783 900 b 779 901 781 900 780 900 l 780 901 l 761 912 l 737 933 l 695 948 b 691 950 694 948 693 948 l 637 968 b 570 984 629 975 587 984 b 436 966 508 980 456 975 l 350 933 l 337 915 b 275 870 320 891 298 881 l 275 872 b 188 825 243 858 202 825 l 136 765 b 83 662 118 754 83 662 l 83 661 b 41 536 54 631 41 558 l 41 487 b 62 387 41 415 62 393 l 76 351 b 125 256 80 320 120 256 b 169 177 127 236 163 181 l 181 168 l 179 169 l 205 134 b 256 86 218 119 241 98 l 318 36 b 411 8 355 36 384 8 m 279 334 l 258 373 b 200 544 244 431 200 480 l 200 608 b 320 794 202 675 241 745 b 348 809 329 797 343 805 l 369 820 l 379 820 b 412 837 384 822 397 829 l 411 836 b 470 851 431 841 448 851 l 483 851 b 550 838 502 851 526 838 l 575 830 l 573 830 b 698 751 618 818 663 769 l 741 708 b 786 650 750 691 777 666 b 804 613 794 633 798 618 l 809 602 b 820 573 809 586 820 593 l 819 525 b 825 495 819 516 822 504 l 825 484 b 830 456 825 473 827 465 l 836 444 l 816 341 b 808 293 812 325 808 301 l 788 254 b 752 209 788 243 780 236 l 712 177 b 666 156 698 168 700 177 l 668 158 l 652 154 b 588 138 619 150 608 138 l 551 138 b 533 136 545 138 537 137 b 452 147 509 143 470 136 l 391 183 l 393 183 l 365 206 b 287 308 348 211 340 237 b 279 334 287 318 286 326 m 395 1086 l 355 1062 b 331 1041 345 1058 331 1048 b 418 1019 331 1036 365 1019 b 641 1141 473 1019 566 1051 l 712 1222 l 737 1269 b 743 1290 741 1277 743 1284 b 694 1322 743 1322 708 1322 b 490 1151 623 1322 558 1216 l 452 1115 b 395 1086 440 1102 398 1086 "},"k":{"x_min":41.671875,"x_max":805.5625,"ha":847,"o":"m 302 283 l 309 273 b 588 15 388 131 440 56 b 604 13 593 13 598 13 b 648 18 620 13 629 18 b 673 16 663 18 668 16 b 738 33 697 16 726 27 l 781 62 l 797 79 b 805 95 800 83 805 95 b 593 151 741 95 669 95 l 543 197 b 383 436 461 262 422 373 l 383 451 b 476 541 413 504 461 531 b 550 580 490 547 543 580 b 579 541 572 580 565 547 b 656 500 605 512 633 500 b 748 615 709 500 748 559 b 637 712 748 665 718 712 b 441 622 575 712 488 652 l 383 570 b 327 525 358 548 337 531 b 270 470 305 508 284 470 b 254 563 261 470 254 493 b 277 733 254 651 277 694 l 277 759 b 259 956 277 879 273 940 l 241 970 l 231 970 b 68 894 151 970 83 911 b 41 854 51 887 50 870 b 93 698 84 818 93 759 b 90 591 93 663 90 626 b 97 519 90 566 91 541 b 90 322 94 506 95 505 b 86 193 90 280 86 236 b 202 -2 86 101 102 -2 b 312 86 236 13 312 19 b 252 294 312 116 252 140 b 263 318 255 309 258 318 b 302 283 270 318 283 306 "},"Ù":{"x_min":41.671875,"x_max":994.453125,"ha":1036,"o":"m 740 115 b 805 -100 745 23 761 -100 l 833 -100 b 888 -86 862 -100 876 -100 l 912 -47 b 994 31 934 -25 994 5 l 994 33 b 965 77 993 58 980 65 l 937 115 b 919 202 926 130 919 143 b 929 243 919 219 922 236 b 927 295 929 265 927 280 b 933 430 927 326 929 354 l 931 443 b 938 488 934 459 938 477 l 931 593 b 958 722 931 651 958 650 l 958 743 b 933 977 951 841 940 869 b 887 1026 930 1019 911 1026 b 752 1009 801 1026 797 1023 l 726 998 l 711 984 b 687 940 690 965 687 965 b 743 747 687 852 737 850 l 744 638 b 745 568 744 606 744 576 l 741 493 l 741 294 l 744 284 b 734 218 744 254 738 225 l 720 179 l 702 154 l 702 148 b 740 115 702 138 736 126 m 44 306 b 87 168 47 258 54 213 b 205 77 113 105 158 111 l 277 27 b 430 1 323 4 336 1 b 516 2 444 1 502 2 l 584 38 l 608 65 b 630 115 616 80 613 97 b 566 154 620 122 577 150 l 540 168 l 487 179 l 470 190 b 347 243 431 208 351 233 b 273 341 336 254 284 325 l 263 366 b 233 455 261 400 238 423 l 231 481 b 241 584 231 544 241 555 l 245 644 l 258 708 l 290 759 b 311 836 293 766 306 827 b 411 969 344 926 411 916 l 411 975 l 363 975 b 184 936 291 975 184 970 b 201 852 184 877 197 909 l 201 822 l 187 772 l 172 733 b 58 506 127 658 81 587 l 59 493 l 47 430 b 41 375 43 412 41 394 b 44 306 41 352 43 330 m 488 1211 l 488 1152 b 447 1056 488 1098 447 1065 b 431 1022 445 1051 436 1029 l 431 1008 b 437 1006 433 1008 434 1006 b 487 1027 455 1006 455 1012 l 561 1070 b 598 1133 573 1069 594 1133 l 598 1131 b 651 1227 620 1159 651 1215 l 651 1237 b 645 1261 651 1248 645 1251 b 656 1272 645 1262 656 1270 l 659 1284 b 633 1338 656 1290 640 1330 l 627 1345 b 593 1372 618 1355 593 1372 l 541 1404 l 505 1412 l 463 1400 b 406 1391 444 1400 423 1391 l 372 1393 b 298 1408 348 1394 318 1406 l 290 1418 l 279 1444 b 288 1470 284 1444 288 1466 l 280 1470 b 248 1459 273 1470 252 1463 l 215 1441 l 147 1386 l 148 1366 b 154 1345 150 1362 152 1347 l 175 1325 l 201 1309 b 247 1302 205 1308 237 1302 l 275 1300 b 390 1313 316 1300 356 1313 l 398 1312 b 481 1243 415 1312 472 1254 b 488 1211 483 1241 487 1219 "},"Ÿ":{"x_min":-250,"x_max":902.78125,"ha":944,"o":"m 447 -191 b 450 -194 447 -193 448 -194 b 591 -56 523 -154 586 -98 l 591 -52 b 655 286 591 27 638 286 l 675 345 b 740 513 694 380 736 481 l 761 563 l 786 726 b 793 752 786 731 790 750 l 793 751 l 820 780 b 863 830 830 788 861 825 l 875 863 b 902 923 876 872 897 884 b 872 925 895 925 884 925 b 812 923 848 925 819 923 l 740 886 b 584 808 600 886 584 843 b 656 720 584 752 643 725 b 658 706 656 716 656 709 l 656 690 b 619 550 641 636 630 550 l 548 337 b 534 315 547 326 537 316 l 511 322 b 494 320 505 320 500 320 b 270 804 393 320 344 569 b 156 970 248 873 215 930 l 125 954 l 127 956 b 29 872 55 937 31 891 l 29 866 b 63 819 29 834 58 840 b 177 552 122 740 98 741 b 195 519 181 544 195 526 l 194 518 b 218 455 200 494 215 459 l 227 395 b 236 372 227 395 231 380 l 236 373 b 256 316 243 351 254 323 l 298 233 b 354 179 318 193 334 197 b 441 98 366 151 440 119 l 447 77 b 450 76 448 76 448 76 l 448 58 b 422 30 447 43 429 43 l 416 23 b 325 -37 395 0 384 -1 b 283 -66 316 -55 294 -48 l 268 -77 b 193 -133 266 -88 229 -100 b -4 -202 176 -148 38 -202 l -12 -202 b -62 -219 -29 -202 -51 -215 b -123 -216 -81 -218 -101 -219 b -229 -173 -155 -212 -180 -186 b -230 -170 -229 -172 -229 -172 b -247 -172 -233 -170 -243 -172 l -250 -177 b -147 -297 -231 -216 -162 -280 l -81 -322 b -47 -351 -68 -323 -62 -344 l 51 -365 b 61 -359 54 -365 61 -359 l 118 -368 b 177 -358 127 -368 163 -358 l 180 -358 b 259 -327 181 -348 240 -344 b 331 -283 283 -315 330 -283 b 447 -191 333 -273 372 -261 m 606 1005 l 616 1005 b 673 1118 675 1005 673 1072 b 605 1226 673 1184 670 1225 l 600 1226 b 500 1166 577 1226 527 1218 l 500 1150 b 606 1005 515 1026 556 1004 m 348 1001 l 351 1001 b 408 1122 413 1001 408 1076 b 340 1223 408 1181 404 1223 b 236 1162 320 1223 266 1216 l 234 1145 b 348 1001 251 1016 294 1002 "},"€":{"x_min":41.671875,"x_max":1009.71875,"ha":1051,"o":"m 854 -69 b 876 -66 854 -69 868 -69 b 880 -65 877 -66 879 -65 l 895 -48 b 904 -33 897 -45 904 -33 l 911 2 b 923 73 911 31 923 51 l 923 86 b 916 137 919 113 916 130 l 927 177 l 931 304 b 879 288 898 304 895 288 l 831 216 l 822 184 b 765 145 819 165 816 145 b 726 120 763 145 731 129 l 709 104 b 705 101 708 102 706 101 l 683 91 l 636 77 b 620 76 631 77 623 77 l 622 76 b 598 73 612 75 601 73 l 579 73 b 513 87 558 73 544 76 l 487 97 l 488 95 l 412 131 l 355 200 l 355 198 l 351 202 b 308 270 347 237 327 251 l 311 270 l 294 286 b 254 375 281 304 266 343 l 622 379 b 763 383 630 379 731 383 b 833 363 788 377 811 379 b 858 354 837 363 851 354 l 869 351 b 873 338 870 347 873 340 l 870 343 b 886 319 870 331 877 323 l 908 315 l 916 316 l 933 330 l 943 345 b 955 369 950 351 955 363 l 956 448 l 952 455 b 941 493 952 468 941 461 l 937 493 b 944 512 940 498 944 508 l 945 591 l 941 600 b 931 637 941 612 931 605 l 883 638 b 863 629 880 636 872 629 l 850 622 b 723 612 820 619 744 612 l 547 616 b 433 612 512 616 466 612 l 391 612 l 283 620 l 262 616 l 233 616 b 234 633 233 616 234 623 b 233 640 234 634 233 637 l 233 648 b 241 680 233 663 241 666 l 241 688 l 247 697 l 259 766 b 269 781 263 770 266 775 l 294 806 b 344 866 312 825 326 848 l 344 865 l 351 870 b 408 893 368 886 377 893 b 448 891 420 893 434 891 l 493 890 l 505 884 l 552 883 b 576 888 554 883 570 886 l 590 886 l 612 870 l 611 870 l 629 862 b 723 836 663 855 711 838 l 737 831 l 787 806 b 813 793 797 802 808 795 l 872 733 b 877 718 872 729 876 722 l 911 675 l 911 676 b 918 668 912 673 916 670 l 916 669 l 927 643 b 936 633 931 640 936 634 l 961 622 l 981 625 b 1009 668 1004 630 1009 633 b 1001 694 1009 686 1006 688 l 988 729 l 961 761 l 961 759 l 954 769 l 955 768 l 947 794 b 944 820 947 800 944 816 l 929 838 l 913 904 b 926 931 913 909 926 918 l 926 937 b 884 965 926 955 897 965 b 856 961 863 965 861 961 l 820 962 b 791 956 809 962 805 956 b 787 958 790 956 788 958 l 755 958 b 738 963 751 958 738 963 l 706 970 l 622 970 b 580 969 608 970 593 969 b 561 970 572 969 566 970 l 469 972 b 458 981 468 972 463 976 l 459 981 b 416 1008 448 994 436 1008 l 359 1000 b 320 981 350 1000 337 990 l 280 961 b 254 948 269 954 259 948 l 241 934 l 241 936 b 213 909 236 931 222 919 l 198 890 l 150 841 l 81 731 b 51 625 69 669 58 655 b 41 572 43 593 41 579 b 47 512 41 554 47 529 b 45 506 45 508 45 506 l 45 466 b 55 386 45 455 52 404 l 68 304 b 237 97 109 175 173 138 l 259 62 b 286 40 262 58 281 41 l 320 19 l 355 5 b 369 2 359 5 365 4 l 411 -6 l 437 -6 b 490 -12 451 -6 477 -12 b 504 -11 491 -12 500 -12 l 502 -11 b 508 -9 504 -9 506 -9 l 570 -4 b 595 -1 579 -4 591 -2 l 636 11 l 634 11 l 659 19 b 733 38 688 29 722 12 l 766 37 b 831 11 772 37 801 26 l 830 2 b 850 -18 830 -11 840 -15 b 847 -61 847 -31 847 -47 l 854 -69 m 247 518 l 601 518 l 633 522 b 765 526 640 522 734 526 b 830 506 788 520 809 522 b 854 495 834 506 847 495 l 863 493 b 866 483 863 490 866 486 l 865 484 l 865 481 l 854 477 b 719 468 823 475 741 468 l 530 472 b 409 468 493 472 444 468 l 363 468 l 248 476 b 229 500 233 484 229 493 b 247 518 229 511 240 518 "},"¢":{"x_min":41.671875,"x_max":645.828125,"ha":688,"o":"m 329 356 l 343 341 b 386 300 344 312 375 302 l 397 305 b 434 359 412 315 431 327 b 605 441 515 369 605 420 b 413 481 486 441 413 459 b 418 711 413 562 418 643 b 413 766 418 719 413 759 b 418 805 413 780 415 794 l 419 827 l 420 826 b 443 816 425 822 433 818 l 472 800 b 493 788 479 795 488 790 l 518 783 b 538 781 518 783 533 781 b 645 838 594 781 645 830 l 645 862 b 600 900 640 862 613 888 l 509 958 l 511 958 b 488 966 509 959 491 966 l 434 966 b 419 959 430 965 423 962 b 415 1023 419 991 418 1015 l 405 1034 b 319 954 340 1034 320 962 l 316 938 l 306 936 l 300 929 l 301 929 l 258 909 l 259 909 b 219 891 247 905 230 895 l 172 855 l 173 855 l 154 843 b 80 756 133 825 94 791 l 81 756 l 59 723 l 50 700 l 50 701 b 41 679 45 691 41 679 l 41 593 b 55 550 41 583 50 556 l 75 512 l 100 484 b 136 426 101 461 120 426 b 148 427 140 426 145 427 b 166 423 151 427 161 423 l 252 390 b 329 363 273 381 300 363 l 329 356 m 276 562 b 237 616 272 568 237 612 l 231 638 b 226 676 231 647 226 666 b 227 687 226 681 227 684 b 219 719 227 691 219 702 b 226 780 219 737 219 762 l 231 794 l 231 802 l 250 836 b 326 869 266 851 309 869 b 333 868 329 869 330 868 l 336 868 l 336 501 b 276 562 308 518 279 556 "},"ß":{"x_min":41.671875,"x_max":787.5,"ha":829,"o":"m 262 352 l 262 420 b 277 563 262 486 277 551 l 277 758 b 386 869 277 841 288 852 l 447 869 b 550 772 512 862 530 863 l 550 756 l 523 700 l 525 700 l 500 633 l 473 598 l 447 579 b 429 565 444 572 437 568 l 430 565 l 402 552 l 391 534 b 373 488 387 526 380 512 l 373 477 b 390 466 379 472 386 466 l 423 455 l 451 430 b 600 227 519 368 556 316 l 618 190 l 616 190 b 626 161 620 180 626 166 b 620 140 626 154 623 145 l 616 134 l 616 136 b 609 112 612 129 609 122 l 598 62 b 630 33 611 33 618 33 b 770 223 693 33 731 119 l 770 222 l 777 252 b 787 327 777 279 787 302 b 777 418 787 393 777 400 l 773 438 b 769 459 770 445 770 452 b 680 562 769 498 680 562 l 636 588 b 555 630 602 623 555 590 b 577 680 555 636 565 668 l 577 679 l 609 733 b 630 791 615 741 622 762 l 631 794 b 650 830 638 806 641 819 l 650 829 l 709 918 b 638 956 705 941 668 956 b 568 944 598 956 584 944 l 506 944 b 447 933 498 944 455 933 l 427 933 l 388 944 l 338 975 l 256 995 b 248 998 252 995 250 998 l 237 1002 b 195 1011 227 1005 215 1008 b 41 941 156 1011 66 990 l 41 906 b 95 805 77 875 90 843 l 95 726 b 87 687 95 723 87 704 b 102 506 98 550 102 522 b 86 190 102 476 88 237 l 86 155 b 62 6 86 123 66 51 l 62 -13 b 262 -69 62 -69 201 -69 b 323 4 320 -50 323 -16 b 277 127 323 55 277 98 l 269 177 l 269 201 b 266 231 266 205 266 218 l 263 336 b 262 352 263 343 262 350 "},"é":{"x_min":41.671875,"x_max":816.671875,"ha":858,"o":"m 43 304 l 43 294 b 106 161 44 256 75 204 l 144 109 b 241 40 194 50 222 40 b 255 41 247 40 251 41 l 266 41 b 288 30 273 41 279 40 l 305 22 b 319 19 311 22 313 20 l 318 19 b 329 16 320 18 325 16 l 384 8 b 436 1 393 6 431 1 l 493 1 b 516 8 494 1 511 6 l 573 29 b 658 65 618 44 637 59 l 716 80 b 744 100 723 81 741 94 l 744 116 b 716 133 738 130 736 133 b 702 131 713 133 706 131 l 655 123 b 627 118 648 122 631 118 l 606 111 l 594 111 l 475 131 b 427 150 463 140 444 144 l 395 159 b 326 208 393 159 376 179 l 327 208 l 281 248 b 258 275 272 258 265 262 l 251 311 b 222 379 237 311 223 358 b 309 395 231 393 263 395 b 436 386 361 395 386 386 l 665 386 b 816 505 679 386 816 400 b 547 730 816 663 576 730 b 402 747 516 730 447 747 b 283 718 390 747 319 737 l 240 687 l 241 688 l 212 680 l 213 680 b 101 579 201 676 126 608 b 56 483 76 550 62 511 l 56 484 b 41 400 41 436 41 429 b 56 329 41 375 43 344 l 43 304 m 236 500 l 236 580 b 245 591 236 580 240 584 l 244 591 l 263 611 l 273 629 l 309 652 l 333 659 l 369 680 b 411 652 388 670 397 665 l 419 644 l 444 644 b 552 613 486 644 530 625 l 566 608 b 573 581 566 606 568 584 l 575 580 b 670 518 620 545 634 572 b 704 494 680 505 693 498 l 702 495 b 715 483 709 491 715 491 b 627 472 715 475 665 472 b 429 490 580 472 533 490 l 350 490 b 251 495 327 490 272 494 l 245 495 l 236 500 m 287 850 l 245 826 b 223 805 237 822 223 812 b 309 783 223 800 256 783 b 533 905 365 783 458 815 l 604 986 l 629 1033 b 634 1054 633 1041 634 1048 b 586 1086 634 1086 600 1086 b 381 915 515 1086 450 980 l 344 879 b 287 850 331 866 290 850 "},"s":{"x_min":43.0625,"x_max":631.9375,"ha":674,"o":"m 48 106 b 81 63 48 88 65 79 l 106 41 b 169 15 112 37 156 19 l 186 8 b 219 1 193 4 216 1 l 236 1 l 258 -6 l 309 -2 b 434 47 355 1 383 4 l 444 47 b 631 231 476 47 631 176 l 627 344 b 566 415 605 373 600 415 l 355 415 b 265 434 341 415 275 430 l 266 434 l 243 447 l 219 469 b 215 476 218 469 216 475 l 209 506 b 231 563 215 531 223 551 l 245 581 b 251 593 245 583 250 591 l 265 609 l 273 615 b 277 616 275 615 277 616 b 291 609 276 615 284 612 l 309 600 l 337 593 b 365 580 340 593 359 583 l 456 540 l 455 540 b 497 530 475 530 481 530 l 502 530 b 602 622 559 530 602 566 l 602 627 b 411 734 601 666 494 734 l 404 734 b 333 719 368 733 359 723 l 287 711 b 222 680 258 709 234 691 l 150 633 b 137 615 148 631 140 622 l 138 616 l 126 597 l 113 584 b 88 552 105 569 88 552 b 55 483 62 506 55 494 l 51 472 b 43 395 45 452 43 438 b 63 354 43 377 50 368 l 90 327 b 116 311 93 323 111 312 l 116 312 l 148 298 l 147 298 b 202 281 158 293 193 281 l 305 276 b 390 262 315 276 358 265 b 466 183 445 252 463 248 l 466 180 b 398 109 466 144 438 109 b 301 148 372 109 340 125 l 291 152 b 265 170 281 161 273 165 l 218 200 b 188 209 205 208 202 209 b 111 191 184 209 136 202 l 51 123 b 48 106 51 123 48 115 "},"B":{"x_min":41.671875,"x_max":937.5,"ha":979,"o":"m 306 8 b 372 9 327 8 350 9 l 461 9 b 530 4 483 5 509 4 b 816 127 638 4 727 58 b 916 281 866 168 881 205 l 916 280 l 926 308 b 937 377 926 333 937 355 b 926 462 937 438 926 445 l 920 481 b 915 501 918 487 916 494 b 808 595 915 537 808 595 l 755 620 b 659 659 716 652 659 622 b 684 705 659 663 670 694 l 684 704 l 723 754 b 750 809 730 763 738 783 l 751 812 b 773 845 758 825 762 836 l 773 844 l 843 927 b 758 963 838 950 794 963 b 673 951 709 963 694 951 l 600 951 b 529 941 591 951 538 941 l 505 941 l 459 951 l 400 980 b 372 986 390 981 381 983 l 300 1000 b 288 1002 295 1000 293 1002 l 277 1005 b 226 1013 263 1008 250 1011 b 41 950 179 1013 70 994 l 41 916 b 105 823 86 887 100 858 l 105 748 b 97 712 105 745 97 727 b 115 544 111 584 115 558 b 94 250 115 516 98 294 l 94 216 b 66 79 94 187 72 120 l 66 59 b 306 8 66 8 233 8 m 306 401 l 306 465 b 326 597 306 525 326 586 l 326 680 b 325 779 326 722 325 754 b 455 881 325 856 338 866 l 529 881 b 651 791 606 876 629 877 l 651 777 l 620 723 l 622 723 l 593 662 b 576 644 591 659 583 651 l 561 629 l 526 611 l 529 612 b 508 598 525 605 516 601 l 509 598 b 505 595 506 597 505 595 l 475 587 l 462 570 b 440 527 456 562 450 550 l 440 518 b 461 506 445 512 455 506 l 500 497 l 534 473 b 712 286 613 415 663 370 l 733 250 l 731 250 b 744 222 737 240 744 227 b 736 202 744 215 741 208 l 731 197 l 731 198 b 725 177 727 193 725 186 l 720 163 b 673 90 713 137 698 90 l 661 90 b 636 95 654 90 644 93 l 630 98 l 543 108 b 455 119 504 112 468 116 l 413 129 b 326 191 376 141 329 168 l 320 212 b 315 237 318 220 316 229 l 315 261 b 311 294 311 265 311 277 l 308 386 b 306 401 308 393 306 398 "},"?":{"x_min":41.671875,"x_max":720.828125,"ha":763,"o":"m 373 187 b 441 166 401 172 425 166 b 481 177 463 166 477 173 l 483 179 b 488 184 484 179 487 181 l 493 186 b 498 195 495 187 497 191 b 495 205 498 200 495 205 l 487 218 b 455 245 484 220 465 241 l 450 280 l 451 280 l 447 298 l 565 391 b 683 533 633 450 661 470 l 693 561 b 716 626 695 565 715 620 l 718 636 b 720 655 718 641 719 651 b 719 677 720 659 719 670 l 719 683 b 690 770 706 738 690 762 l 690 772 b 600 893 663 816 656 830 b 593 900 598 893 593 898 l 497 954 l 498 954 b 420 975 479 969 426 975 b 408 973 419 975 412 973 l 401 973 b 329 954 397 973 345 961 l 329 955 l 233 925 b 225 922 229 923 226 922 l 181 900 b 172 891 181 898 175 893 l 156 877 l 158 877 l 137 856 b 79 756 100 819 81 763 l 75 733 b 44 673 72 726 45 679 l 44 666 b 41 644 44 661 41 648 l 41 611 b 54 580 41 606 48 587 l 86 536 b 130 488 94 526 122 494 l 198 434 b 212 433 200 434 208 433 l 222 433 b 233 434 223 433 229 434 l 237 434 b 293 462 241 434 269 450 l 309 475 b 366 536 331 495 362 531 l 368 566 b 250 612 368 584 245 608 l 212 630 b 205 634 211 630 206 633 l 195 641 l 187 655 l 193 779 b 244 847 193 788 240 841 l 248 852 b 275 854 252 852 262 854 l 298 854 b 340 852 308 854 327 852 l 348 852 b 370 844 348 852 368 845 l 369 844 b 377 841 372 843 376 841 l 401 826 b 477 766 422 812 475 772 b 520 691 490 751 520 698 l 511 502 b 462 437 511 501 476 455 l 462 438 b 440 415 459 438 450 425 l 441 415 l 426 400 b 402 376 419 394 408 383 l 366 338 b 365 306 365 327 366 318 l 363 287 b 359 225 361 276 359 244 b 361 208 359 216 359 209 l 362 209 b 373 187 362 204 370 190 m 348 41 l 348 38 b 409 -5 348 -2 380 -5 b 502 52 463 -5 500 -9 b 463 138 502 68 500 113 l 452 138 b 348 41 361 123 351 87 "},"H":{"x_min":41.671875,"x_max":1005.5625,"ha":1047,"o":"m 830 309 l 825 269 b 820 261 822 266 820 263 l 813 215 l 793 176 b 772 152 793 176 777 162 l 756 137 l 756 138 l 718 111 b 656 41 684 87 656 72 b 709 -2 656 12 694 -2 b 859 81 779 -2 816 37 b 986 259 890 113 963 194 l 986 263 b 1005 366 995 273 997 287 b 945 526 1005 420 956 516 l 947 526 l 922 556 b 773 705 881 605 826 683 l 775 705 l 709 748 b 520 790 648 773 579 790 b 456 777 498 790 466 781 l 450 777 b 345 740 429 775 381 756 l 345 741 l 333 736 l 331 850 b 337 876 336 856 337 866 l 337 887 b 319 1076 337 984 327 1045 l 319 1097 l 313 1111 b 304 1130 313 1116 308 1125 l 279 1175 l 252 1201 l 220 1215 b 190 1223 213 1216 190 1222 b 136 1209 168 1223 150 1215 l 73 1177 b 41 1127 61 1165 41 1181 l 131 1056 b 138 1051 137 1051 138 1051 l 137 1041 b 156 987 154 1012 156 997 b 155 980 156 984 155 981 l 155 975 b 159 954 155 966 156 961 l 159 934 b 170 801 170 895 170 827 l 170 795 b 169 787 170 793 169 790 l 169 775 b 166 708 168 755 166 730 b 173 518 166 645 173 579 b 159 309 173 323 159 418 b 162 241 159 269 162 258 b 161 215 161 234 161 220 l 161 191 b 152 111 161 169 152 151 b 215 1 152 65 163 29 l 248 1 b 287 16 268 1 279 8 l 304 19 l 318 34 b 347 77 331 40 347 52 l 347 115 l 313 131 b 312 134 312 133 312 133 l 308 144 b 313 147 308 145 311 144 b 309 200 309 168 309 183 b 313 265 309 225 313 241 b 309 312 313 301 309 297 b 323 447 309 404 323 422 l 323 480 b 319 504 320 483 319 500 b 323 511 319 504 320 508 l 323 536 b 348 608 323 551 330 588 b 408 645 359 612 391 645 l 412 648 l 480 648 b 629 588 512 640 612 609 b 681 550 636 583 661 563 l 680 550 b 783 437 734 502 776 451 l 804 398 l 802 400 l 806 390 b 830 309 815 370 827 341 "},"î":{"x_min":-44.4375,"x_max":548.609375,"ha":332,"o":"m 73 54 l 100 38 b 170 0 100 23 162 1 b 190 -2 175 0 184 -2 b 290 63 220 9 290 13 b 241 155 290 80 262 97 b 237 176 241 158 237 172 b 247 409 237 261 247 338 b 237 465 247 416 237 459 b 245 484 237 468 245 483 b 258 551 256 511 258 534 l 258 570 b 243 719 258 659 254 706 l 225 729 l 216 729 b 66 672 141 729 79 684 b 41 641 50 666 48 654 b 87 556 83 630 87 593 l 87 306 b 86 241 87 277 87 273 b 88 180 87 234 87 186 l 88 173 b 73 54 77 156 73 119 m 277 788 b 402 755 315 763 359 755 l 413 755 b 548 904 480 758 548 804 b 504 1041 548 940 525 1002 l 502 1044 b 504 1016 502 1034 504 1026 b 369 890 502 933 429 890 b 181 1091 283 901 202 987 b 148 1150 166 1130 156 1150 b 23 895 136 1150 90 975 l 15 890 b -33 858 0 880 -15 865 l -36 845 l -36 847 l -43 830 b -44 823 -44 827 -44 825 b -37 806 -44 816 -41 812 l -36 808 l -27 795 l -12 786 l 5 780 b 151 958 77 804 125 884 b 277 788 188 898 225 836 "},"c":{"x_min":41.671875,"x_max":695.828125,"ha":738,"o":"m 41 383 l 41 277 b 56 229 41 266 51 234 l 77 180 l 105 145 b 140 80 105 120 125 80 b 154 81 145 80 154 81 b 176 75 155 81 170 76 l 211 59 b 436 -2 293 30 319 -2 b 650 86 530 -2 650 58 b 493 102 584 86 520 88 b 470 116 490 104 473 116 b 408 130 452 126 420 122 l 387 145 b 287 236 351 145 293 230 b 245 305 279 255 245 302 l 238 334 b 231 379 238 344 231 369 b 233 393 231 381 233 388 b 225 433 233 400 225 413 b 231 511 225 459 229 483 b 238 525 231 512 238 523 l 238 538 l 259 580 b 350 623 277 598 329 623 b 408 601 379 623 397 612 l 429 588 b 479 559 450 583 459 566 l 493 551 b 534 525 497 550 530 526 l 562 518 b 584 516 562 518 579 516 b 695 580 641 516 695 570 l 695 601 b 647 651 691 598 662 640 l 591 693 l 548 720 b 527 729 545 723 530 729 l 470 729 b 411 706 451 723 433 706 b 366 708 394 706 370 708 l 330 693 l 323 686 b 231 637 315 680 241 643 b 183 594 226 634 188 598 l 162 580 b 84 475 140 559 100 518 l 62 440 b 41 383 58 425 41 386 "},"¥":{"x_min":41.671875,"x_max":795.828125,"ha":838,"o":"m 190 352 l 179 329 b 147 250 154 329 148 261 b 198 169 155 222 161 169 b 300 213 213 169 230 213 b 359 212 319 213 340 213 l 359 169 b 358 125 359 150 359 147 b 361 83 359 119 359 87 l 361 77 b 345 -2 350 66 345 41 l 372 -13 b 441 -40 372 -23 433 -38 b 461 -41 445 -40 455 -41 b 558 2 490 -33 558 -30 b 511 66 558 15 531 26 b 506 80 511 68 506 77 b 515 213 506 126 513 172 b 573 198 531 209 559 198 l 588 198 b 702 212 656 198 693 202 l 708 234 b 641 380 708 355 644 379 b 577 343 633 347 605 343 l 566 343 b 661 583 606 394 638 475 l 659 583 l 679 629 l 698 756 b 695 763 698 759 698 763 l 718 784 b 759 829 729 793 755 823 l 773 865 b 795 934 780 873 788 891 b 744 940 769 940 758 940 l 691 940 b 651 919 677 934 663 926 l 652 919 l 634 909 b 488 823 512 905 488 861 b 547 736 488 775 526 748 l 547 734 b 533 677 547 720 536 693 l 530 666 b 525 636 526 652 525 644 l 525 630 l 519 630 l 462 456 l 440 458 b 315 726 393 461 356 579 l 315 725 l 283 831 b 169 980 265 890 233 938 l 133 963 l 136 965 b 41 881 66 947 44 898 l 41 870 b 69 825 41 838 55 831 l 66 827 l 75 820 b 112 737 91 797 100 775 l 112 741 l 115 733 b 163 608 125 708 140 666 l 170 601 b 195 530 179 588 188 545 b 326 341 236 450 280 384 b 288 340 313 341 291 341 l 281 340 b 190 352 269 348 241 352 "},"(":{"x_min":41.671875,"x_max":588.890625,"ha":631,"o":"m 45 415 b 48 390 48 406 48 397 b 490 -1 108 175 287 20 l 538 -8 b 534 13 538 0 534 5 b 537 43 534 25 537 33 b 269 219 537 98 348 140 l 245 284 b 219 330 237 301 226 313 b 208 459 213 373 211 416 l 216 479 l 215 512 b 276 701 212 572 277 661 l 306 733 b 390 819 330 766 361 793 l 473 868 b 512 879 486 869 500 876 l 544 890 l 565 891 l 572 900 b 588 911 577 902 581 906 b 543 954 577 927 561 944 l 518 962 b 437 969 491 965 463 969 b 237 894 375 969 270 954 l 225 884 l 226 884 b 95 731 154 845 141 783 l 86 711 b 41 479 58 637 41 568 l 45 415 "},"U":{"x_min":41.671875,"x_max":1254.171875,"ha":1296,"o":"m 1012 65 b 1011 58 1012 62 1011 59 l 1011 41 b 1112 0 1041 12 1079 0 b 1219 40 1152 0 1194 15 l 1219 38 l 1254 66 b 1191 122 1251 108 1191 120 l 1191 131 b 1173 743 1191 340 1173 525 l 1173 794 b 1175 825 1173 804 1175 815 l 1183 930 b 1179 940 1183 930 1179 938 l 1177 950 b 1091 986 1169 984 1116 986 b 915 884 1062 986 915 937 b 951 851 922 868 945 851 l 1006 851 b 1025 394 1018 851 1025 468 l 1025 331 b 940 136 1025 252 1016 177 b 704 72 868 90 787 72 b 430 123 612 72 518 94 l 431 122 b 218 495 298 187 218 368 b 330 776 218 594 263 697 l 329 776 b 530 926 394 841 408 822 l 530 969 b 437 972 508 970 461 972 b 158 959 341 972 238 959 b 93 898 111 934 93 919 b 202 840 93 859 151 850 l 201 840 b 230 834 209 837 226 834 l 200 794 l 201 794 b 126 690 175 766 145 730 l 118 679 b 115 675 118 677 116 676 l 116 677 b 41 400 62 597 41 494 b 43 365 41 384 41 373 b 573 -55 105 79 327 -55 b 998 84 712 -55 875 0 b 1012 91 1002 84 1008 87 l 1012 65 "},"Ñ":{"x_min":41.671875,"x_max":1020.828125,"ha":1063,"o":"m 100 -138 b 158 -181 113 -170 143 -181 b 250 -93 170 -181 250 -116 b 247 -38 250 -79 247 -48 l 247 -16 l 252 -4 b 256 19 252 1 256 6 l 256 66 b 259 140 256 86 259 112 l 259 173 b 262 323 259 222 262 277 b 258 390 262 347 262 372 l 252 413 l 280 386 l 306 368 b 526 201 348 338 454 227 l 525 201 l 540 191 b 547 186 540 191 543 190 b 545 183 547 186 545 184 l 565 165 b 575 159 572 159 569 163 l 609 137 b 698 87 634 116 666 91 l 729 75 b 850 66 750 72 777 76 l 856 37 l 900 1 b 995 59 948 1 990 54 b 1009 106 1001 68 1008 106 l 1009 105 b 1011 108 1009 106 1009 106 l 1011 152 b 1016 181 1015 159 1016 166 b 1015 213 1016 183 1016 202 l 1015 237 b 1009 369 1015 288 1009 316 b 1015 545 1009 422 1015 480 l 1015 576 b 1016 587 1015 579 1016 583 l 1016 611 b 1020 629 1016 616 1016 625 l 1020 720 b 1018 737 1020 720 1019 730 l 1018 736 l 1015 745 l 1015 769 b 1020 843 1015 788 1020 820 l 1020 854 b 1013 897 1020 876 1013 883 l 1006 897 b 1009 906 1008 901 1009 904 l 1005 923 b 931 993 1005 958 973 993 l 916 993 b 863 972 913 993 877 979 l 804 916 b 797 877 797 909 797 887 b 818 827 797 868 806 838 l 834 815 b 844 647 841 812 844 722 b 843 638 844 644 843 641 l 843 383 b 845 361 843 368 844 363 l 845 362 b 848 350 847 356 848 351 l 848 330 b 847 263 847 313 847 283 l 847 229 l 844 229 b 825 234 837 229 841 230 l 826 233 b 276 659 726 279 358 555 b 262 706 263 670 262 679 l 262 740 b 265 769 263 747 265 762 l 263 797 b 240 972 263 909 248 952 l 240 1002 l 181 1002 b 154 1001 169 1002 158 1002 l 133 998 b 88 988 129 994 105 988 l 63 979 b 41 925 63 979 41 954 b 63 891 43 912 54 901 l 73 876 b 80 850 75 868 76 859 l 81 844 b 86 812 81 840 83 818 l 91 773 b 93 758 91 769 91 762 b 87 718 93 748 90 730 l 87 712 b 84 684 86 702 84 688 l 84 670 b 86 666 84 669 86 668 l 81 611 b 77 572 79 605 77 577 b 80 504 77 558 80 513 l 80 480 b 77 455 80 477 77 459 l 77 386 b 76 381 77 384 76 383 l 76 315 b 77 306 76 309 77 308 l 77 287 b 75 211 75 269 75 223 l 79 177 l 79 148 b 86 90 80 140 86 97 l 86 79 b 83 58 86 73 83 68 l 83 13 b 86 -26 83 0 84 -16 l 86 -30 b 90 -90 86 -47 90 -65 l 100 -138 m 773 1216 b 673 1126 750 1148 713 1126 b 455 1190 605 1126 520 1190 b 348 1004 402 1190 361 1150 l 401 1047 b 447 1062 413 1058 429 1062 b 654 1016 504 1062 586 1016 b 779 1193 715 1016 766 1052 b 773 1216 777 1195 775 1209 "},"F":{"x_min":-163.890625,"x_max":676.390625,"ha":718,"o":"m 587 266 b 588 268 587 266 587 268 l 591 238 b 612 191 601 226 608 191 l 629 187 b 648 215 629 187 648 204 l 648 219 b 654 231 648 219 654 227 l 645 243 b 636 269 645 247 644 250 b 638 295 638 276 638 284 b 637 325 638 305 638 316 l 637 343 l 640 345 b 648 356 644 350 648 356 l 648 363 l 654 369 l 654 386 b 637 390 645 386 641 388 l 638 388 b 626 393 634 390 627 393 l 613 393 b 551 386 586 393 577 386 l 520 386 b 486 380 506 386 491 380 l 436 380 b 387 377 429 380 394 377 b 366 383 372 377 375 383 l 345 383 b 272 409 280 391 272 404 b 273 415 272 412 273 413 l 273 443 b 281 662 273 515 281 590 b 268 845 281 726 268 775 b 277 891 268 876 275 881 l 281 900 b 320 925 281 922 302 925 l 369 925 b 501 886 443 925 501 886 l 512 877 b 543 851 511 877 531 859 b 552 854 543 852 545 854 l 565 812 b 570 795 566 805 569 795 l 570 786 b 588 752 570 779 575 752 b 609 777 590 752 609 752 l 609 780 l 608 811 l 622 818 b 618 840 622 820 618 838 l 618 843 b 622 852 619 847 622 850 l 622 886 l 615 912 b 636 931 615 913 631 923 l 676 956 l 651 972 l 640 972 b 568 958 584 972 593 962 b 527 965 561 961 533 965 l 287 965 b 183 979 255 965 208 976 l 156 981 l 150 975 b 147 979 150 976 148 976 b 133 975 140 976 134 975 l 129 975 b 118 979 129 975 120 979 l 112 981 l 73 981 l 59 979 b -26 966 13 979 -6 972 l -61 956 l -61 937 b 29 934 -37 937 -18 934 b 69 936 43 934 58 936 l 77 936 b 106 922 84 930 98 925 l 106 916 b 104 908 105 913 104 908 b 109 901 104 905 108 902 l 105 888 b 101 879 104 884 101 879 l 101 870 b 111 801 105 859 111 825 b 101 769 111 770 101 783 l 101 758 b 109 659 101 730 109 697 b 98 591 109 637 106 615 l 98 552 b 93 302 94 440 93 362 b 106 104 93 219 97 169 b 101 75 106 98 101 93 l 102 25 b 84 1 97 23 86 12 l 65 -15 l 65 -26 l 54 -26 b 37 -58 43 -41 37 -58 l 19 -77 b 9 -88 19 -79 11 -88 l -13 -104 b -15 -111 -13 -105 -13 -108 l -25 -120 b -36 -131 -31 -126 -36 -130 l -44 -140 l -44 -151 b -40 -155 -41 -151 -40 -154 l -37 -155 l -41 -170 l -37 -173 l -37 -155 l -26 -158 b -19 -155 -22 -158 -20 -156 l -11 -155 l 5 -134 b 77 -50 48 -112 77 -70 l 77 -43 l 100 -34 b 108 -22 100 -27 102 -25 l 120 -15 b 116 0 120 -6 118 -2 l 118 0 b 186 30 179 18 186 23 l 186 38 l 222 65 b 229 77 225 66 229 70 l 245 77 b 277 145 277 115 277 125 l 273 154 l 273 172 l 266 183 b 273 200 269 188 273 194 l 270 226 b 268 247 269 236 268 245 l 268 252 b 270 261 269 252 270 261 l 270 276 b 268 283 270 277 269 283 l 268 315 b 269 327 268 319 268 325 l 291 333 b 330 337 304 334 323 337 l 376 337 b 498 319 436 337 494 323 l 508 315 b 545 294 515 309 536 300 l 558 283 b 587 266 565 272 579 269 m -63 -166 b -95 -191 -69 -166 -91 -186 l -112 -208 b -115 -212 -112 -208 -113 -211 l -112 -226 l -104 -229 b -68 -198 -91 -229 -72 -204 l -69 -201 b -63 -190 -65 -195 -63 -193 l -65 -187 l -63 -187 b -54 -177 -56 -187 -54 -181 l -63 -166 m -120 -222 b -163 -261 -130 -227 -163 -256 l -163 -275 b -127 -258 -130 -275 -143 -263 l -115 -250 b -108 -229 -111 -244 -108 -238 l -120 -222 m 148 975 l 150 975 l 147 972 b 148 975 147 975 148 975 "},":":{"x_min":33.328125,"x_max":251.390625,"ha":294,"o":"m 41 66 b 147 -2 41 -8 102 -2 b 251 81 212 -2 251 0 b 191 206 251 104 244 170 l 176 206 b 41 75 59 186 40 136 l 41 66 m 33 555 b 138 486 33 480 94 486 b 243 570 204 486 243 488 b 183 695 243 593 236 659 l 168 695 b 33 555 44 673 33 620 "},"Û":{"x_min":41.671875,"x_max":1254.171875,"ha":1296,"o":"m 1012 65 b 1011 58 1012 62 1011 59 l 1011 41 b 1112 0 1041 12 1079 0 b 1219 40 1152 0 1194 15 l 1219 38 l 1254 66 b 1191 122 1251 108 1191 120 l 1191 131 b 1173 743 1191 340 1173 525 l 1173 794 b 1175 825 1173 804 1175 815 l 1183 930 b 1179 940 1183 930 1179 938 l 1177 950 b 1091 986 1169 984 1116 986 b 915 884 1062 986 915 937 b 951 851 922 868 945 851 l 1006 851 b 1025 394 1018 851 1025 468 l 1025 331 b 940 136 1025 252 1016 177 b 704 72 868 90 787 72 b 430 123 612 72 518 94 l 431 122 b 218 495 298 187 218 368 b 330 776 218 594 263 697 l 329 776 b 530 926 394 841 408 822 l 530 969 b 437 972 508 970 461 972 b 158 959 341 972 238 959 b 93 898 111 934 93 919 b 202 840 93 859 151 850 l 201 840 b 230 834 209 837 226 834 l 200 794 l 201 794 b 126 690 175 766 145 730 l 118 679 b 115 675 118 677 116 676 l 116 677 b 41 400 62 597 41 494 b 43 365 41 384 41 373 b 573 -55 105 79 327 -55 b 998 84 712 -55 875 0 b 1012 91 1002 84 1008 87 l 1012 65 m 700 1052 b 825 1019 737 1027 781 1019 l 836 1019 b 970 1168 902 1022 970 1068 b 926 1305 970 1204 947 1266 l 925 1308 b 926 1280 925 1298 926 1290 b 791 1154 925 1197 851 1154 b 604 1355 705 1165 625 1251 b 570 1413 588 1394 579 1413 b 445 1159 558 1413 512 1238 l 437 1154 b 388 1122 422 1144 406 1129 l 386 1109 l 386 1111 l 379 1094 b 377 1087 377 1091 377 1088 b 384 1070 377 1080 380 1076 l 386 1072 l 394 1059 l 409 1050 l 427 1044 b 573 1222 500 1068 547 1148 b 700 1052 611 1162 647 1100 "},"*":{"x_min":37.5,"x_max":645.828125,"ha":681,"o":"m 337 311 b 323 287 337 305 330 295 l 281 248 l 283 248 b 237 198 259 234 243 223 l 238 187 b 248 169 238 187 250 168 l 259 158 b 275 144 269 156 272 150 l 275 145 l 283 133 l 311 111 b 334 102 315 108 330 102 l 363 102 b 375 145 363 112 369 137 l 402 162 b 448 212 423 175 443 193 l 455 236 b 580 186 500 197 570 193 b 518 306 559 269 543 284 l 525 311 b 594 388 548 323 575 337 l 605 394 b 645 444 622 411 645 423 b 545 522 604 472 572 522 l 529 523 b 487 476 511 515 500 500 l 487 477 l 459 443 l 459 444 l 448 434 b 386 415 429 413 408 415 l 375 415 l 355 422 b 345 445 354 430 350 438 l 343 494 b 354 516 343 500 348 509 l 354 515 l 368 530 l 366 530 l 400 559 b 441 608 426 573 436 580 l 440 622 b 429 640 440 626 436 636 l 430 640 l 422 648 b 406 661 413 648 409 654 l 398 673 l 356 709 l 352 709 b 302 662 312 709 304 668 b 281 647 297 659 294 658 l 280 645 b 259 636 270 644 263 640 l 251 627 b 236 605 245 622 240 613 l 236 606 l 229 598 l 225 576 b 100 630 181 619 109 623 b 158 508 122 537 131 527 l 111 479 l 112 479 b 90 444 106 475 90 454 b 55 409 59 413 56 409 l 37 400 l 38 379 b 87 318 40 345 69 334 l 120 287 l 140 287 b 191 340 169 300 172 312 l 213 370 l 213 369 l 223 377 b 245 397 226 384 240 397 l 295 397 b 336 359 325 383 319 388 l 337 311 "},"V":{"x_min":41.671875,"x_max":1043.0625,"ha":1085,"o":"m 716 1 b 769 62 745 18 759 43 l 775 72 b 784 87 777 77 780 83 b 1001 715 831 294 915 523 l 1001 713 l 1019 748 b 1043 837 1031 770 1043 784 b 1036 920 1043 858 1041 884 l 1036 919 l 1033 925 b 951 969 1033 950 948 969 b 927 965 938 969 934 968 l 929 965 b 844 945 916 959 887 951 b 788 954 834 952 812 954 b 805 913 788 929 790 929 l 811 908 l 811 901 b 875 715 856 840 875 776 b 777 384 875 606 823 490 l 755 334 l 686 427 b 443 784 597 547 506 652 l 434 804 b 358 941 411 856 373 904 l 356 950 b 218 1011 327 997 273 1011 b 104 1001 179 1011 137 1006 l 41 991 b 61 970 41 970 61 970 l 72 970 b 108 972 86 970 98 972 b 127 947 129 972 126 955 b 698 4 351 527 575 269 l 716 1 "},"å":{"x_min":41.671875,"x_max":737.5,"ha":779,"o":"m 334 998 l 333 1000 b 319 1004 325 1004 322 1004 b 247 987 302 1004 265 995 l 175 941 b 111 819 141 912 111 862 b 122 770 111 794 111 794 l 120 772 l 125 752 l 191 672 b 252 561 222 658 206 629 l 251 562 l 281 483 b 302 416 284 477 302 425 l 302 384 b 231 318 295 373 254 323 l 231 295 l 261 302 l 281 302 b 297 311 284 304 295 311 l 323 311 b 348 244 330 311 348 250 l 344 237 b 252 137 333 202 315 137 b 201 170 219 137 209 144 l 201 169 l 195 188 l 195 206 b 215 262 195 211 212 256 l 215 281 b 172 273 195 281 180 277 l 150 252 l 119 230 b 51 151 119 220 75 201 l 41 138 l 50 76 b 120 -2 54 41 77 6 l 161 -2 b 200 12 169 -2 197 8 l 276 63 b 304 90 283 69 300 86 l 330 123 l 354 141 b 369 152 358 144 368 152 l 372 152 b 415 95 379 141 391 116 l 415 97 l 470 41 l 483 36 b 491 33 484 36 488 33 b 580 16 525 20 536 16 b 737 62 656 16 737 34 b 666 130 737 94 676 127 l 608 168 l 595 179 l 597 177 b 501 347 544 226 520 251 b 477 425 488 359 486 380 b 475 437 477 429 476 434 l 468 477 l 450 529 b 427 619 438 559 440 591 l 429 619 b 387 695 419 651 405 676 l 408 711 b 463 804 430 734 456 763 l 468 818 l 468 855 b 391 977 459 906 416 970 l 391 976 l 336 997 b 334 998 334 997 334 998 m 219 877 l 223 887 b 248 913 236 904 245 913 b 254 912 251 913 252 912 b 261 913 258 912 259 913 l 266 913 b 361 795 340 897 341 823 b 356 772 361 784 359 779 l 344 747 b 311 743 344 747 333 747 b 259 776 301 743 280 756 b 245 798 258 784 252 793 l 243 805 b 218 868 230 829 218 850 b 219 877 218 872 218 875 "},"0":{"x_min":41.671875,"x_max":761.109375,"ha":804,"o":"m 347 59 b 370 16 347 37 370 22 l 388 2 b 401 1 388 2 398 1 b 477 50 416 1 461 34 l 476 50 l 583 152 b 608 181 590 158 605 176 l 618 198 b 662 252 630 211 648 234 l 677 272 b 701 330 680 277 700 325 l 700 329 b 723 375 706 344 716 359 l 723 373 b 737 433 729 381 737 434 l 745 454 b 761 509 755 477 741 488 b 759 529 761 513 759 520 l 759 534 b 737 606 759 540 741 600 l 729 655 b 725 670 727 662 725 670 l 720 683 l 720 681 l 713 702 l 690 736 b 619 880 690 772 643 854 b 498 955 601 900 543 943 l 500 954 l 461 963 l 447 963 l 376 945 b 323 933 356 940 330 933 l 322 933 l 323 934 l 302 925 l 305 927 l 283 913 b 261 900 273 906 265 901 l 198 852 l 152 805 b 113 750 147 800 119 762 l 79 681 l 73 663 l 73 665 l 43 545 l 43 536 b 41 506 43 527 41 513 b 43 479 41 500 43 488 l 43 469 b 54 430 43 459 54 433 l 79 338 b 126 261 81 327 115 276 l 150 237 b 186 197 162 220 180 202 l 347 59 m 212 534 l 212 588 l 223 652 b 281 788 241 761 243 729 l 280 787 b 327 822 298 825 297 822 b 358 819 333 822 348 820 l 366 819 b 493 736 458 819 469 768 l 493 737 l 500 723 b 512 708 501 720 505 712 l 522 697 b 525 683 522 693 523 687 l 533 640 l 558 568 l 558 323 l 554 316 b 533 279 547 305 534 290 l 509 223 l 511 225 l 493 194 b 484 193 493 194 486 193 b 473 194 483 193 476 194 b 316 300 473 198 397 233 l 304 309 l 305 309 b 247 390 286 319 250 379 b 233 481 238 401 238 468 l 220 509 l 220 508 b 212 534 215 519 212 531 "},"”":{"x_min":41.671875,"x_max":658.328125,"ha":700,"o":"m 202 666 l 202 583 b 187 522 191 566 187 522 b 202 525 190 522 200 525 l 241 550 b 295 625 255 566 284 611 l 308 641 b 334 700 313 652 331 695 l 341 750 l 341 776 l 327 818 b 262 884 312 844 287 866 l 213 909 l 202 926 b 184 968 191 937 188 968 l 161 968 b 141 959 158 966 143 961 l 95 918 b 63 876 73 897 80 876 l 62 876 b 41 851 58 870 43 854 l 41 834 b 101 776 54 802 75 788 l 155 733 b 202 666 172 716 202 693 m 519 672 l 519 588 b 504 527 508 572 504 527 b 519 530 506 527 516 530 l 558 555 b 612 630 572 572 601 616 l 625 647 b 651 705 630 658 648 701 l 658 755 l 658 781 l 644 823 b 579 890 629 850 604 872 l 530 915 l 519 931 b 501 973 508 943 505 973 l 477 973 b 458 965 475 972 459 966 l 412 923 b 380 881 390 902 397 881 l 379 881 b 358 856 375 876 359 859 l 358 840 b 418 781 370 808 391 794 l 472 738 b 519 672 488 722 519 698 "},"@":{"x_min":52.78125,"x_max":1019.453125,"ha":1042,"o":"m 422 8 b 491 0 451 8 454 0 b 534 5 511 0 523 2 l 625 25 b 633 30 626 26 630 27 l 644 34 b 688 50 659 36 676 44 l 688 48 l 723 65 l 720 65 b 768 94 736 80 747 87 l 768 93 b 813 130 779 98 791 105 b 990 373 840 150 990 248 b 1002 441 990 388 995 415 l 1006 458 b 1019 509 1012 477 1019 498 l 1015 559 b 1004 634 1012 573 1004 615 b 915 806 1004 650 963 773 l 905 820 l 866 861 l 798 909 l 800 909 l 768 926 l 750 943 l 751 940 b 704 958 737 945 718 951 l 651 976 b 587 993 643 983 601 993 b 240 851 347 975 393 919 b 155 779 193 813 183 812 l 148 770 b 95 663 131 759 95 665 b 52 541 65 631 52 561 l 52 493 b 68 402 52 433 62 408 l 88 359 b 136 266 93 329 131 266 b 186 176 138 241 179 180 l 219 134 b 270 86 219 109 254 98 l 330 36 b 422 8 359 36 388 8 m 223 438 b 187 550 205 472 187 509 l 187 616 b 325 825 191 690 237 769 b 348 836 333 827 345 833 l 375 851 l 381 851 l 415 868 b 425 869 418 868 422 869 b 422 868 423 869 422 868 l 415 851 b 413 840 415 847 413 841 b 429 793 413 830 416 806 l 455 747 l 454 748 l 484 669 b 505 602 487 663 505 611 l 505 570 b 434 504 498 559 456 509 l 434 481 l 463 488 l 484 488 b 500 497 487 490 498 497 l 526 497 b 551 430 533 497 551 436 l 547 423 b 455 323 536 388 518 323 b 404 356 422 323 412 330 l 404 355 l 398 375 l 398 393 b 418 448 398 397 415 443 l 418 468 b 375 459 398 468 383 463 l 352 438 l 322 416 b 261 350 322 406 284 390 l 248 375 b 223 438 244 393 234 416 m 681 809 b 737 770 701 794 722 779 l 773 736 b 793 708 777 727 784 716 l 806 688 b 822 666 809 684 816 676 l 830 648 b 836 634 833 643 833 634 l 850 611 b 861 581 850 602 861 613 b 852 326 856 566 862 444 l 798 365 l 800 363 b 704 533 747 412 723 437 b 680 611 691 545 688 566 b 677 623 680 615 679 620 l 670 663 l 652 715 b 630 805 641 745 643 777 l 631 805 b 609 854 626 823 618 840 b 681 809 634 843 662 825 m 744 159 b 722 150 741 156 722 150 l 680 131 b 605 116 602 119 640 116 l 568 116 b 551 113 562 116 555 115 b 458 127 527 120 477 112 l 386 169 l 369 183 b 402 198 380 186 400 194 l 479 250 b 506 276 486 255 502 272 l 533 309 l 556 327 b 572 338 561 330 570 338 l 575 338 b 618 281 581 327 594 302 l 618 283 l 673 227 l 686 222 b 694 219 687 222 691 219 b 783 202 727 206 738 202 l 795 202 l 744 159 "},"ö":{"x_min":41.671875,"x_max":795.828125,"ha":838,"o":"m 41 340 b 56 247 41 290 41 290 l 75 205 b 198 56 97 154 125 126 l 223 33 b 370 -1 283 4 304 -1 b 463 6 418 -1 429 -1 l 462 6 b 476 11 461 6 470 9 l 536 26 b 609 73 556 29 598 69 l 636 86 l 650 98 b 788 313 672 147 772 225 l 795 352 l 795 420 b 744 572 788 488 744 545 b 652 661 694 606 684 658 l 626 668 b 569 701 612 668 593 690 l 529 713 l 530 712 l 519 716 b 488 726 508 720 495 726 b 341 691 451 726 381 716 l 291 661 b 281 656 291 659 284 658 l 237 626 l 173 591 b 41 340 102 533 41 430 m 202 470 l 202 483 b 205 497 202 486 204 491 l 205 495 b 208 505 206 498 208 502 l 220 525 b 323 608 272 597 302 608 b 345 606 333 608 340 606 b 358 612 350 606 354 608 b 531 512 391 612 529 525 b 588 420 554 486 576 444 l 597 404 b 636 323 597 390 631 338 b 638 286 637 322 638 297 b 620 206 638 244 633 233 l 622 208 l 615 200 l 602 166 l 604 168 b 565 113 587 133 573 119 l 475 113 b 433 126 470 113 440 120 l 400 140 l 401 138 l 390 144 b 344 176 375 151 352 166 l 305 219 b 272 273 302 243 281 254 l 234 344 l 236 343 b 216 400 233 350 218 390 l 208 445 l 208 444 b 202 470 208 444 202 468 m 569 766 l 579 766 b 636 879 637 766 636 833 b 568 987 636 945 633 986 l 562 987 b 462 927 540 987 490 979 l 462 911 b 569 766 477 787 519 765 m 311 762 l 313 762 b 370 883 376 762 370 837 b 302 984 370 943 366 984 b 198 923 283 984 229 977 l 197 906 b 311 762 213 777 256 763 "},"i":{"x_min":41.671875,"x_max":318.0625,"ha":360,"o":"m 77 54 l 106 38 b 184 0 106 23 176 1 b 206 -2 190 0 201 -2 b 318 63 240 9 318 13 b 263 155 318 80 287 97 b 259 176 263 158 259 172 b 270 411 259 262 270 340 b 259 466 270 418 259 461 b 269 486 259 469 269 484 b 283 554 280 512 283 536 l 283 573 b 265 722 283 662 277 709 l 245 731 l 236 731 b 69 675 152 731 83 687 b 41 644 51 669 50 656 b 93 559 87 633 93 595 l 93 308 b 91 243 93 279 93 275 b 94 180 93 236 93 187 l 94 173 b 77 54 81 156 77 119 "},"Õ":{"x_min":41.671875,"x_max":1000.046875,"ha":1042,"o":"m 983 1219 b 990 1284 983 1251 990 1270 b 987 1304 990 1294 988 1300 l 976 1318 b 938 1284 962 1318 938 1284 l 913 1237 b 836 1125 898 1179 863 1130 b 815 1158 831 1130 819 1150 l 788 1194 l 790 1193 b 762 1250 784 1216 769 1248 l 763 1248 l 702 1297 b 626 1313 672 1297 656 1313 b 477 1283 594 1309 522 1308 l 452 1266 l 401 1176 b 390 1136 401 1176 394 1151 l 377 1084 l 373 1050 l 373 941 l 350 933 l 337 915 b 275 870 320 891 298 881 l 275 872 b 188 825 243 858 202 825 l 136 765 b 83 662 118 754 83 662 l 83 661 b 41 536 54 631 41 558 l 41 487 b 62 387 41 415 62 393 l 76 351 b 125 256 80 320 120 256 b 169 177 127 236 163 181 l 181 168 l 179 169 l 205 134 b 256 86 218 119 241 98 l 318 36 b 411 8 355 36 384 8 b 433 5 419 8 426 6 l 431 5 b 477 0 441 2 454 0 b 526 6 498 0 512 2 l 525 6 l 615 25 b 619 30 615 27 618 30 l 633 34 b 665 44 643 36 656 40 l 706 63 b 800 129 731 93 761 90 l 818 147 b 888 208 830 152 858 173 l 908 230 l 925 243 b 972 369 951 262 972 351 l 972 370 b 1000 506 970 390 1001 475 l 997 558 b 986 626 994 565 986 606 b 897 801 986 638 944 768 l 888 813 l 847 855 l 783 900 b 779 901 781 900 780 900 l 780 901 l 761 912 l 737 933 l 695 948 b 691 950 694 948 693 948 l 637 968 b 570 984 629 975 587 984 b 444 969 515 980 469 976 l 454 1027 b 555 1187 462 1080 484 1187 b 601 1180 570 1186 586 1181 b 797 1012 766 1004 740 1012 b 983 1219 872 1012 936 1022 m 279 334 l 258 373 b 200 544 244 431 200 480 l 200 608 b 320 794 202 675 241 745 b 348 809 329 797 343 805 l 369 820 l 379 820 b 412 837 384 822 397 829 l 411 836 b 470 851 431 841 448 851 l 483 851 b 550 838 502 851 526 838 l 575 830 l 573 830 b 698 751 618 818 663 769 l 741 708 b 786 650 750 691 777 666 b 804 613 794 633 798 618 l 809 602 b 820 573 809 586 820 593 l 819 525 b 825 495 819 516 822 504 l 825 484 b 830 456 825 473 827 465 l 836 444 l 816 341 b 808 293 812 325 808 301 l 788 254 b 752 209 788 243 780 236 l 712 177 b 666 156 698 168 700 177 l 668 158 l 652 154 b 588 138 619 150 608 138 l 551 138 b 533 136 545 138 537 137 b 452 147 509 143 470 136 l 391 183 l 393 183 l 365 206 b 287 308 348 211 340 237 b 279 334 287 318 286 326 "},"m":{"x_min":41.671875,"x_max":1343.125,"ha":1386,"o":"m 41 306 l 45 273 b 66 180 65 238 52 202 b 115 119 69 173 111 125 l 123 102 b 195 38 127 90 176 55 l 223 30 b 306 2 251 18 275 4 l 334 -6 l 426 13 b 472 44 431 29 455 33 l 495 76 b 519 101 498 80 512 95 b 501 100 515 100 509 100 b 430 122 477 101 445 102 l 406 130 l 363 158 b 291 236 340 173 308 212 b 256 305 279 254 275 281 l 250 322 b 244 372 250 326 245 368 l 237 388 b 230 469 233 418 230 444 b 366 643 230 569 269 627 l 373 643 b 491 579 443 626 459 630 b 569 466 502 559 559 483 l 584 440 b 601 272 597 397 598 361 l 600 230 l 604 188 b 623 87 611 180 616 125 l 623 79 l 613 54 l 613 45 l 622 27 b 691 -6 648 1 670 -6 b 793 37 736 -6 768 31 l 793 69 b 804 120 793 105 804 108 b 791 168 800 134 791 155 l 791 197 b 772 263 786 218 773 227 b 763 431 769 327 763 384 b 886 586 763 529 784 586 l 901 586 b 1098 423 986 581 1095 423 l 1098 425 l 1120 381 l 1127 347 b 1140 298 1129 331 1140 301 b 1138 280 1140 291 1138 281 l 1152 222 l 1156 162 l 1154 95 b 1115 15 1152 76 1118 27 l 1113 -2 b 1188 27 1123 11 1163 2 b 1258 75 1218 38 1233 52 l 1280 106 b 1343 273 1333 183 1341 251 l 1343 279 b 1322 351 1344 311 1320 325 l 1323 380 b 1308 423 1323 390 1308 413 b 1211 595 1298 515 1229 572 l 1166 630 b 980 716 1100 711 1016 716 l 973 716 b 869 661 938 716 937 705 l 845 645 b 761 575 812 616 794 593 b 555 727 693 663 597 725 l 526 727 b 444 723 500 727 476 726 l 415 716 b 41 306 343 698 65 677 "},"8":{"x_min":41.671875,"x_max":659.71875,"ha":701,"o":"m 41 308 l 41 273 b 54 237 41 270 51 244 l 66 211 b 305 -1 113 147 147 120 b 326 -2 308 -1 320 -2 b 344 -1 331 -2 344 -1 l 380 25 b 419 59 384 27 415 56 b 468 105 425 65 465 100 l 583 211 b 659 366 618 245 659 329 b 494 538 659 419 576 480 l 494 555 l 506 573 l 545 609 l 558 636 l 570 688 l 570 725 l 558 786 l 545 812 b 355 972 495 880 431 923 l 305 972 b 293 963 304 972 295 965 l 218 893 l 168 829 b 93 688 150 820 104 729 l 93 679 b 141 581 93 670 133 597 b 169 533 155 566 169 562 b 141 484 169 512 162 498 b 54 361 100 434 84 406 l 41 308 m 216 381 b 255 487 216 418 215 487 b 355 431 258 487 331 450 b 470 284 472 366 470 322 b 406 166 470 219 461 194 l 401 165 b 218 334 347 165 218 322 b 216 381 218 336 216 369 m 293 804 l 344 804 l 458 725 l 458 618 b 431 608 458 612 441 608 b 331 670 419 608 355 652 b 273 754 313 670 273 730 b 275 761 273 756 273 759 l 293 804 "},"R":{"x_min":2.78125,"x_max":868.0625,"ha":910,"o":"m 361 477 b 286 411 297 462 286 411 l 286 363 b 365 323 286 363 348 337 l 365 325 l 411 283 b 422 276 413 283 418 280 l 420 276 b 450 248 426 268 438 256 l 465 231 l 465 233 b 509 179 476 211 494 198 l 526 158 l 525 158 b 550 120 534 145 544 131 l 569 100 l 569 101 l 577 86 b 643 5 577 54 584 34 l 677 -1 l 738 5 b 762 9 748 8 754 9 l 786 23 b 868 106 818 43 868 69 b 765 186 868 162 801 137 l 748 208 b 716 240 744 209 726 231 l 716 237 b 613 355 701 265 655 315 l 562 405 b 554 416 559 412 556 415 l 558 416 l 577 433 l 576 433 b 606 451 581 438 595 443 b 750 712 722 495 750 611 b 716 804 750 734 750 748 l 627 886 l 579 920 l 580 920 b 487 968 551 940 490 963 l 448 975 b 338 988 418 987 372 976 l 326 988 b 206 934 284 988 222 950 b 147 973 183 968 172 973 b 51 955 90 973 90 955 l 37 941 b 2 838 16 926 2 879 b 31 834 27 838 30 836 l 44 822 l 54 795 b 55 787 55 794 55 793 l 55 781 b 56 775 55 779 56 777 l 56 768 b 76 516 76 655 76 591 l 76 501 b 70 308 76 494 75 486 b 65 222 66 288 65 265 l 65 215 b 52 65 52 176 52 88 l 50 52 l 50 -18 b 118 -91 50 -29 98 -91 b 204 -12 163 -91 193 -37 b 238 156 215 101 238 120 l 238 166 b 258 320 238 218 258 284 l 258 433 l 255 433 b 252 458 255 444 254 452 l 258 561 l 258 670 b 251 773 258 691 256 747 l 251 798 b 263 834 251 808 254 822 l 270 844 b 345 831 308 844 331 831 b 451 787 409 802 438 788 l 494 748 l 515 736 b 551 695 530 722 544 704 l 551 697 l 581 656 b 587 622 587 652 587 623 l 587 615 b 584 604 587 613 586 606 b 393 475 526 534 458 475 b 370 477 388 475 379 476 l 361 477 "},"á":{"x_min":41.671875,"x_max":737.5,"ha":779,"o":"m 666 130 l 608 168 l 595 179 l 597 177 b 501 347 544 226 520 251 b 477 425 488 359 486 380 b 475 437 477 429 476 434 l 468 477 l 450 529 b 427 619 438 559 440 591 l 429 619 b 344 729 412 673 384 706 l 316 729 l 269 723 l 258 718 b 219 681 243 706 225 684 l 212 665 b 211 654 212 661 211 655 b 226 606 211 644 213 620 l 252 561 l 251 562 l 281 483 b 302 416 284 477 302 425 l 302 384 b 231 318 295 373 254 323 l 231 295 l 261 302 l 281 302 b 297 311 284 304 295 311 l 323 311 b 348 244 330 311 348 250 l 344 237 b 252 137 333 202 315 137 b 201 170 219 137 209 144 l 201 169 l 195 188 l 195 206 b 215 262 195 211 212 256 l 215 281 b 172 273 195 281 180 277 l 150 252 l 119 230 b 51 151 119 220 75 201 l 41 138 l 50 76 b 120 -2 54 41 77 6 l 161 -2 b 200 12 169 -2 197 8 l 276 63 b 304 90 283 69 300 86 l 330 123 l 354 141 b 369 152 358 144 368 152 l 372 152 b 415 95 379 141 391 116 l 415 97 l 470 41 l 483 36 b 491 33 484 36 488 33 b 580 16 525 20 536 16 b 737 62 656 16 737 34 b 666 130 737 94 676 127 m 247 850 l 206 826 b 183 805 197 822 183 812 b 269 783 183 800 216 783 b 493 905 325 783 418 815 l 563 986 l 588 1033 b 594 1054 593 1041 594 1048 b 545 1086 594 1086 559 1086 b 341 915 475 1086 409 980 l 304 879 b 247 850 291 866 250 850 "},"o":{"x_min":40.28125,"x_max":795.828125,"ha":838,"o":"m 41 340 b 56 247 47 290 41 290 l 75 205 b 198 56 97 154 125 126 l 223 33 b 370 -1 283 4 304 -1 b 463 6 418 -1 429 -1 l 462 6 b 476 11 461 6 470 9 l 536 26 b 788 313 616 80 763 173 l 795 352 l 795 420 b 569 701 769 575 688 658 l 529 713 l 530 712 l 519 716 b 415 736 483 730 448 736 b 40 359 204 736 40 501 b 41 340 40 352 40 347 m 202 470 l 202 483 b 205 497 202 486 204 491 l 205 495 b 208 505 206 498 208 502 l 220 525 b 323 608 272 597 302 608 b 345 606 333 608 340 606 b 358 612 350 606 354 608 b 531 512 391 612 529 525 b 588 420 554 486 576 444 l 597 404 b 636 323 597 390 631 338 b 638 286 637 322 638 297 b 620 206 638 244 633 233 l 622 208 l 615 200 l 602 166 l 604 168 b 555 125 587 133 563 130 l 475 113 b 433 126 470 113 440 120 l 400 140 l 401 138 l 390 144 b 344 176 375 151 352 166 l 305 219 b 272 273 302 243 281 254 l 234 344 l 236 343 b 216 400 233 350 218 390 l 208 445 l 208 444 b 202 470 208 444 202 468 "},"5":{"x_min":41.671875,"x_max":937.5,"ha":979,"o":"m 81 527 l 159 400 b 220 279 202 343 201 340 b 237 238 220 270 237 250 l 252 159 b 254 144 254 155 254 150 b 252 119 254 136 252 127 b 262 94 252 105 254 94 b 222 1 262 66 241 36 l 200 -29 b 191 -45 195 -31 194 -38 l 188 -52 b 181 -72 188 -55 183 -69 l 181 -87 l 186 -97 b 212 -120 188 -109 205 -120 l 218 -120 b 225 -122 220 -120 223 -122 l 233 -122 b 273 -101 244 -122 262 -112 l 273 -102 l 301 -80 l 300 -80 l 316 -69 l 352 -26 b 425 94 379 5 404 76 l 430 105 b 436 176 430 123 436 147 l 426 255 b 276 552 418 418 345 426 l 276 551 l 186 697 l 170 766 b 169 776 170 772 169 773 l 165 808 b 180 809 169 808 175 809 l 206 809 b 230 808 215 809 223 808 l 241 808 b 277 798 241 808 268 801 l 315 787 l 355 780 b 400 766 358 777 380 770 l 398 766 b 434 758 411 762 426 758 l 459 754 b 497 745 472 750 486 754 l 537 734 b 568 726 544 734 555 726 l 573 726 b 588 725 577 726 583 725 l 616 725 b 633 726 622 725 629 726 l 643 726 l 763 758 b 836 791 801 758 826 791 l 837 791 b 876 823 843 794 868 815 l 926 883 b 937 916 927 887 937 909 l 937 929 l 930 954 b 916 955 923 954 918 954 b 920 959 920 955 920 956 b 894 963 920 959 897 963 b 887 962 893 963 890 962 l 879 962 l 786 893 l 588 893 l 552 900 b 537 905 548 901 543 902 l 520 911 l 522 911 b 401 943 506 916 423 937 l 363 951 b 345 954 354 952 344 954 l 241 954 b 112 891 230 954 123 902 l 100 880 l 72 836 l 72 837 b 41 745 61 825 41 783 b 79 537 41 681 69 569 l 81 527 "},"õ":{"x_min":40.28125,"x_max":795.828125,"ha":838,"o":"m 41 340 b 56 247 47 290 41 290 l 75 205 b 198 56 97 154 125 126 l 223 33 b 370 -1 283 4 304 -1 b 463 6 418 -1 429 -1 l 462 6 b 476 11 461 6 470 9 l 536 26 b 788 313 616 80 763 173 l 795 352 l 795 420 b 569 701 769 575 688 658 l 529 713 l 530 712 l 519 716 b 415 736 483 730 448 736 b 40 359 204 736 40 501 b 41 340 40 352 40 347 m 202 470 l 202 483 b 205 497 202 486 204 491 l 205 495 b 208 505 206 498 208 502 l 220 525 b 323 608 272 597 302 608 b 345 606 333 608 340 606 b 358 612 350 606 354 608 b 531 512 391 612 529 525 b 588 420 554 486 576 444 l 597 404 b 636 323 597 390 631 338 b 638 286 637 322 638 297 b 620 206 638 244 633 233 l 622 208 l 615 200 l 602 166 l 604 168 b 555 125 587 133 563 130 l 475 113 b 433 126 470 113 440 120 l 400 140 l 401 138 l 390 144 b 344 176 375 151 352 166 l 305 219 b 272 273 302 243 281 254 l 234 344 l 236 343 b 216 400 233 350 218 390 l 208 445 l 208 444 b 202 470 208 444 202 468 m 577 975 b 477 884 554 906 518 884 b 259 948 409 884 325 948 b 152 762 206 948 165 908 l 205 805 b 251 820 218 816 233 820 b 458 775 308 820 390 775 b 583 951 519 775 570 811 b 577 975 581 954 579 968 "},"7":{"x_min":41.671875,"x_max":769.453125,"ha":811,"o":"m 150 177 l 150 147 b 151 133 150 143 151 137 l 151 125 b 266 -29 162 65 220 2 l 325 -48 l 323 -47 b 386 -61 348 -59 359 -61 b 452 6 419 -61 452 -41 b 437 40 452 8 444 33 l 427 47 l 429 47 b 355 137 408 63 355 122 l 355 388 b 376 440 355 393 369 430 l 406 501 b 413 509 408 502 412 506 l 472 590 l 470 590 l 493 613 l 512 641 l 650 777 l 661 783 l 706 819 l 705 818 b 750 848 709 819 741 841 l 748 848 b 768 872 755 852 768 868 l 768 877 b 769 890 768 881 769 886 l 769 897 b 768 909 769 902 768 905 l 768 926 b 730 948 763 934 737 948 b 697 940 727 948 704 943 l 651 918 b 622 911 641 916 630 912 l 612 908 b 536 888 601 908 552 888 l 256 888 b 208 905 256 888 220 898 l 193 913 b 183 918 190 913 184 916 l 184 918 l 115 958 b 102 959 109 958 104 959 l 91 959 b 41 909 68 959 41 941 l 41 904 b 43 897 41 901 43 900 l 54 820 b 263 723 59 780 156 736 l 354 723 l 498 759 l 438 702 l 375 631 l 375 633 b 305 550 365 625 319 568 l 306 550 b 281 518 298 543 290 526 l 245 454 b 211 386 230 427 233 438 l 212 387 b 208 376 209 383 208 380 l 186 336 b 172 308 179 323 172 309 l 159 237 b 151 209 156 229 151 209 l 151 198 b 150 177 151 193 150 184 "},"K":{"x_min":2.78125,"x_max":897.21875,"ha":939,"o":"m 56 -156 b 20 -201 56 -159 37 -190 l 34 -201 b 244 197 195 -201 244 58 b 240 277 244 223 243 250 b 243 290 240 279 241 284 l 268 273 b 423 101 318 240 390 118 l 434 90 b 663 1 504 16 541 1 b 819 19 731 1 794 6 l 873 55 l 890 72 b 897 90 888 70 897 90 b 658 150 823 90 743 90 l 598 200 b 383 427 494 281 455 336 l 369 450 b 523 570 404 493 488 568 l 609 613 b 641 590 634 613 634 598 b 755 519 683 538 722 519 b 848 636 811 519 848 577 b 712 756 848 695 809 756 b 355 555 661 756 462 662 b 301 525 334 534 316 525 b 212 865 220 525 212 781 b 233 1129 212 961 233 1041 b 227 1202 233 1150 227 1173 b 231 1244 227 1215 227 1229 b 269 1266 236 1254 269 1256 b 266 1272 269 1268 268 1269 b 131 1240 209 1254 162 1248 l 122 1240 b 59 1237 108 1238 75 1237 l 29 1237 b 2 1202 20 1237 2 1226 b 41 1144 2 1193 41 1144 l 43 1144 b 65 783 66 1072 58 1009 l 80 563 b 95 222 88 444 95 362 l 95 97 l 93 48 b 56 -156 91 -27 69 -90 "},",":{"x_min":41.671875,"x_max":372.21875,"ha":414,"o":"m 184 -163 l 166 -200 b 150 -227 168 -200 148 -227 b 355 19 175 -227 327 -188 l 372 120 l 372 179 b 347 205 372 201 356 205 b 312 194 336 205 326 201 l 261 179 b 244 170 259 179 245 170 l 180 170 b 147 197 173 187 156 197 b 80 161 133 197 101 186 l 52 129 b 41 102 52 122 41 108 l 41 68 b 47 52 41 66 45 55 l 58 36 b 69 27 58 36 68 29 l 84 19 l 131 19 l 163 27 b 223 54 183 50 220 54 b 238 43 230 54 238 52 l 238 -30 b 233 -55 238 -31 234 -51 l 218 -105 b 184 -163 211 -127 184 -163 "},"d":{"x_min":41.671875,"x_max":866.671875,"ha":908,"o":"m 41 250 l 41 230 b 63 172 45 218 56 180 l 122 72 b 197 27 129 72 195 29 l 218 19 b 338 0 256 19 297 0 l 368 0 b 426 13 380 0 411 13 l 447 19 b 534 65 495 38 525 51 b 622 122 531 62 619 123 l 643 136 l 704 194 b 818 308 722 194 818 294 l 844 350 l 859 401 b 866 458 866 426 866 434 b 831 618 866 509 865 555 l 812 645 b 784 673 809 650 787 672 l 763 705 l 730 740 l 662 827 b 570 929 648 844 579 913 l 534 956 b 313 1058 431 1059 370 1058 b 266 1050 288 1058 275 1058 l 211 1020 b 177 1006 206 1020 181 1006 l 150 991 l 150 986 l 158 977 l 238 943 b 426 790 280 918 350 866 b 459 754 431 784 455 762 l 480 726 b 481 715 480 726 481 719 b 469 691 481 709 477 697 l 426 668 b 325 625 412 668 351 643 l 286 597 b 218 554 280 597 229 556 b 76 401 193 537 84 440 b 41 250 76 363 47 306 m 204 316 l 204 381 b 272 481 204 425 248 459 b 298 531 286 494 279 519 b 379 573 336 555 352 554 l 400 588 b 508 640 462 641 469 618 l 527 654 l 541 654 b 570 640 544 652 563 641 l 597 618 b 656 559 619 591 643 573 b 698 400 690 488 698 481 l 698 337 l 656 250 l 630 208 b 609 172 626 205 611 176 b 454 108 576 137 516 113 l 447 108 b 379 122 429 109 383 122 l 312 155 l 277 180 l 230 236 b 204 316 230 245 204 301 "},"E":{"x_min":41.671875,"x_max":1009.71875,"ha":1051,"o":"m 854 -69 b 876 -66 854 -69 868 -69 b 880 -65 877 -66 879 -65 l 895 -48 b 904 -33 897 -45 904 -33 l 911 2 b 923 73 911 31 923 51 l 923 86 b 916 137 919 113 916 130 l 927 177 l 931 304 b 879 288 898 304 895 288 l 831 216 l 822 184 b 765 145 819 165 816 145 b 726 120 763 145 731 129 l 709 104 b 705 101 708 102 706 101 l 683 91 l 636 77 b 620 76 631 77 623 77 l 622 76 b 598 73 612 75 601 73 l 579 73 b 513 87 558 73 544 76 l 487 97 l 488 95 l 412 131 l 355 200 l 355 198 l 351 202 b 308 270 347 237 327 251 l 311 270 l 294 286 b 252 380 281 305 265 348 l 243 404 l 243 402 b 238 450 241 412 238 445 l 231 504 b 226 498 227 504 226 501 b 223 504 226 498 223 502 b 247 518 226 512 234 518 l 601 518 l 633 522 b 765 526 640 522 734 526 b 830 506 788 520 809 522 b 854 495 834 506 847 495 l 863 493 b 868 480 865 488 868 481 l 865 484 b 879 461 865 473 872 465 l 900 456 l 908 458 l 923 472 l 933 487 b 944 512 938 493 944 506 l 945 591 l 941 600 b 931 637 941 612 931 605 l 883 638 b 863 629 880 636 872 629 l 850 622 b 723 612 820 619 744 612 l 547 616 b 433 612 512 616 466 612 l 391 612 l 283 620 l 262 616 l 233 616 b 234 633 233 616 234 623 b 233 640 234 634 233 637 l 233 648 b 241 680 233 663 241 666 l 241 688 l 247 697 l 259 766 b 269 781 263 770 266 775 l 294 806 b 344 866 312 825 326 848 l 344 865 l 351 870 b 408 893 368 886 377 893 b 448 891 420 893 434 891 l 493 890 l 505 884 l 552 883 b 576 888 554 883 570 886 l 590 886 l 612 870 l 611 870 l 629 862 b 723 836 663 855 711 838 l 737 831 l 787 806 b 813 793 797 802 808 795 l 872 733 b 877 718 872 729 876 722 l 911 675 l 911 676 b 918 668 912 673 916 670 l 916 669 l 927 643 b 936 633 931 640 936 634 l 961 622 l 981 625 b 1009 668 1004 630 1009 633 b 1001 694 1009 686 1006 688 l 988 729 l 961 761 l 961 759 l 954 769 l 955 768 l 947 794 b 944 820 947 800 944 816 l 929 838 l 913 904 b 926 931 913 909 926 918 l 926 937 b 884 965 926 955 897 965 b 856 961 863 965 861 961 l 820 962 b 791 956 809 962 805 956 b 787 958 790 956 788 958 l 755 958 b 738 963 751 958 738 963 l 706 970 l 622 970 b 580 969 608 970 593 969 b 561 970 572 969 566 970 l 469 972 b 458 981 468 972 463 976 l 459 981 b 416 1008 448 994 436 1008 l 359 1000 b 320 981 350 1000 337 990 l 280 961 b 254 948 269 954 259 948 l 241 934 l 241 936 b 213 909 236 931 222 919 l 198 890 l 150 841 l 81 731 b 51 625 69 669 58 655 b 41 572 43 593 41 579 b 47 512 41 554 47 529 b 45 506 45 508 45 506 l 45 466 b 55 386 45 455 52 404 l 68 304 b 237 97 109 175 173 138 l 259 62 b 286 40 262 58 281 41 l 320 19 l 355 5 b 369 2 359 5 365 4 l 411 -6 l 437 -6 b 490 -12 451 -6 477 -12 b 504 -11 491 -12 500 -12 l 502 -11 b 508 -9 504 -9 506 -9 l 570 -4 b 595 -1 579 -4 591 -2 l 636 11 l 634 11 l 659 19 b 733 38 691 29 722 15 l 766 37 b 831 11 772 37 801 26 l 830 2 b 850 -18 830 -11 840 -15 b 847 -61 847 -31 847 -47 l 854 -69 "},"Y":{"x_min":-250,"x_max":902.78125,"ha":944,"o":"m 447 -191 b 450 -194 447 -193 448 -194 b 591 -56 523 -154 586 -98 l 591 -52 b 655 286 591 27 638 286 l 675 345 b 740 513 694 380 736 481 l 761 563 l 786 726 b 793 752 786 731 790 750 l 793 751 l 820 780 b 863 830 830 788 861 825 l 875 863 b 902 923 876 872 897 884 b 872 925 895 925 884 925 b 812 923 848 925 819 923 l 740 886 b 584 808 600 886 584 843 b 656 720 584 752 643 725 b 658 706 656 716 656 709 l 656 690 b 619 550 641 636 630 550 l 548 337 b 534 315 547 326 537 316 l 511 322 b 494 320 505 320 500 320 b 270 804 393 320 344 569 b 156 970 248 873 215 930 l 125 954 l 127 956 b 29 872 55 937 31 891 l 29 866 b 63 819 29 834 58 840 b 177 552 122 740 98 741 b 195 519 181 544 195 526 l 194 518 b 218 455 200 494 215 459 l 227 395 b 236 372 227 395 231 380 l 236 373 b 256 316 243 351 254 323 l 298 233 b 354 179 318 193 334 197 b 441 98 366 151 440 119 l 447 77 b 450 76 448 76 448 76 l 448 58 b 422 30 447 43 429 43 l 416 23 b 325 -37 395 0 384 -1 b 283 -66 316 -55 294 -48 l 268 -77 b 193 -133 266 -88 229 -100 b -4 -202 176 -148 38 -202 l -12 -202 b -62 -219 -29 -202 -51 -215 b -123 -216 -81 -218 -101 -219 b -229 -173 -155 -212 -180 -186 b -230 -170 -229 -172 -229 -172 b -247 -172 -233 -170 -243 -172 l -250 -177 b -147 -297 -231 -216 -162 -280 l -81 -322 b -47 -351 -68 -323 -62 -344 l 51 -365 b 61 -359 54 -365 61 -359 l 118 -368 b 177 -358 127 -368 163 -358 l 180 -358 b 259 -327 181 -348 240 -344 b 331 -283 283 -315 330 -283 b 447 -191 333 -273 372 -261 "},"Ô":{"x_min":41.671875,"x_max":1000.046875,"ha":1042,"o":"m 411 8 b 433 5 419 8 426 6 l 431 5 b 477 0 441 2 454 0 b 526 6 498 0 512 2 l 525 6 l 615 25 b 619 30 615 27 618 30 l 633 34 b 665 44 643 36 656 40 l 706 63 b 800 129 731 93 761 90 l 818 147 b 888 208 830 152 858 173 l 908 230 l 925 243 b 972 373 956 266 972 369 b 1000 509 970 398 1001 479 l 997 558 b 986 626 994 565 986 606 b 897 801 986 638 944 768 l 888 813 l 847 855 l 783 900 b 779 901 781 900 780 900 l 780 901 l 761 912 l 737 933 l 695 948 b 691 950 694 948 693 948 l 637 968 b 570 984 629 975 587 984 b 436 966 508 980 456 975 l 350 933 l 337 915 b 275 870 320 891 298 881 l 275 872 b 188 825 243 858 202 825 l 136 765 b 83 662 118 754 83 662 l 83 661 b 41 536 54 631 41 558 l 41 487 b 62 387 41 415 62 393 l 76 351 b 125 256 80 320 120 256 b 169 177 127 236 163 181 l 181 168 l 179 169 l 205 134 b 256 86 218 119 241 98 l 318 36 b 411 8 355 36 384 8 m 279 334 l 258 373 b 200 544 244 431 200 480 l 200 608 b 320 794 202 675 241 745 b 348 809 329 797 343 805 l 369 820 l 379 820 b 412 837 384 822 397 829 l 411 836 b 470 851 431 841 448 851 l 483 851 b 550 838 502 851 526 838 l 575 830 l 573 830 b 698 751 618 818 663 769 l 741 708 b 786 650 750 691 777 666 b 804 613 794 633 798 618 l 809 602 b 820 573 809 586 820 593 l 819 525 b 825 495 819 516 822 504 l 825 484 b 830 456 825 473 827 465 l 836 444 l 816 341 b 808 293 812 325 808 301 l 788 254 b 752 209 788 243 780 236 l 712 177 b 666 156 698 168 700 177 l 668 158 l 652 154 b 588 138 619 150 608 138 l 551 138 b 533 136 545 138 537 137 b 452 147 509 143 470 136 l 391 183 l 393 183 l 365 206 b 287 308 348 211 340 237 b 279 334 287 318 286 326 m 568 1047 b 693 1013 605 1022 650 1013 l 704 1013 b 838 1162 770 1016 838 1062 b 794 1300 838 1198 815 1261 l 793 1302 b 794 1275 793 1293 794 1284 b 659 1148 793 1191 719 1148 b 472 1350 573 1159 493 1245 b 438 1408 456 1388 447 1408 b 313 1154 426 1408 380 1233 l 305 1148 b 256 1116 290 1138 275 1123 l 254 1104 l 254 1105 l 247 1088 b 245 1081 245 1086 245 1083 b 252 1065 245 1075 248 1070 l 254 1066 l 262 1054 l 277 1044 l 295 1038 b 441 1216 368 1062 415 1143 b 568 1047 479 1156 515 1094 "},"\"":{"x_min":41.671875,"x_max":658.328125,"ha":700,"o":"m 202 666 l 202 583 b 187 522 191 566 187 522 b 202 525 190 522 200 525 l 241 550 b 295 625 255 566 284 611 l 308 641 b 334 700 313 652 331 695 l 341 750 l 341 776 l 327 818 b 262 884 312 844 287 866 l 213 909 l 202 926 b 184 968 191 937 188 968 l 161 968 b 141 959 158 966 143 961 l 95 918 b 63 876 73 897 80 876 l 62 876 b 41 851 58 870 43 854 l 41 834 b 101 776 54 802 75 788 l 155 733 b 202 666 172 716 202 693 m 519 672 l 519 588 b 504 527 508 572 504 527 b 519 530 506 527 516 530 l 558 555 b 612 630 572 572 601 616 l 625 647 b 651 705 630 658 648 701 l 658 755 l 658 781 l 644 823 b 579 890 629 850 604 872 l 530 915 l 519 931 b 501 973 508 943 505 973 l 477 973 b 458 965 475 972 459 966 l 412 923 b 380 881 390 902 397 881 l 379 881 b 358 856 375 876 359 859 l 358 840 b 418 781 370 808 391 794 l 472 738 b 519 672 488 722 519 698 "},"‹":{"x_min":41.671875,"x_max":509.71875,"ha":551,"o":"m 330 144 b 341 143 333 144 340 143 l 347 140 b 368 137 347 140 350 140 b 455 133 395 133 433 133 b 497 148 476 133 491 136 l 500 154 b 509 181 505 159 509 177 b 466 222 509 206 490 222 l 447 222 l 429 226 l 409 236 b 380 252 400 238 387 245 l 325 315 l 326 313 l 287 359 b 250 406 272 373 256 386 b 436 600 354 498 427 593 l 462 623 l 481 633 b 430 716 455 686 455 713 b 311 661 398 713 351 691 l 287 627 b 225 548 263 594 231 565 l 227 551 l 180 500 l 180 501 l 170 491 b 156 479 166 487 158 483 b 41 420 137 441 41 438 b 63 402 41 406 59 406 b 194 280 127 393 159 318 b 306 158 230 240 263 198 l 330 144 "},"ê":{"x_min":41.671875,"x_max":772.21875,"ha":814,"o":"m 41 284 l 48 252 b 62 211 51 237 55 222 l 61 212 l 80 165 b 106 125 87 151 97 137 l 119 105 l 176 50 l 193 40 b 306 4 222 23 262 5 l 322 -2 b 358 -4 327 -2 343 -4 l 393 -4 b 540 9 494 -4 491 9 b 615 43 552 9 587 20 l 633 61 l 633 80 l 604 72 b 579 65 594 72 579 65 l 470 65 b 418 81 456 72 427 69 b 304 154 381 105 316 127 l 298 163 b 234 290 261 219 243 243 b 206 358 226 316 206 345 b 294 394 206 379 272 390 l 322 395 b 350 397 333 395 344 397 b 390 390 365 397 377 395 l 405 390 l 431 400 l 697 400 b 772 454 733 400 772 433 b 715 605 772 529 740 577 l 655 669 l 587 716 l 556 726 l 481 740 b 444 731 468 733 463 731 b 412 733 433 731 422 733 l 402 733 b 311 700 375 733 320 709 l 315 706 l 241 673 l 243 673 b 188 627 216 662 206 637 l 147 605 l 133 587 l 134 587 l 113 566 l 93 530 b 84 516 93 526 88 520 l 65 483 b 44 348 48 431 47 418 l 41 284 m 437 825 b 562 791 475 800 519 791 l 573 791 b 708 940 640 794 708 840 b 663 1077 708 976 684 1038 l 662 1080 b 663 1052 662 1070 663 1062 b 529 926 662 969 588 926 b 341 1127 443 937 362 1023 b 308 1186 326 1166 316 1186 b 183 931 295 1186 250 1011 l 175 926 b 126 894 159 916 144 901 l 123 881 l 123 883 l 116 866 b 115 859 115 863 115 861 b 122 843 115 852 118 848 l 123 844 l 131 831 l 147 822 l 165 816 b 311 994 237 840 284 920 b 437 825 348 934 384 872 m 219 480 l 219 502 b 301 630 219 593 284 625 l 409 631 b 472 598 416 631 455 613 l 486 593 l 556 520 b 569 512 561 520 565 516 l 569 513 b 580 497 573 508 580 502 b 488 505 555 505 544 505 b 347 491 397 505 408 491 b 329 484 345 490 331 484 l 288 477 l 277 470 l 258 470 b 223 477 252 470 230 476 l 219 480 "},"Ï":{"x_min":-38.890625,"x_max":400,"ha":386,"o":"m 48 -15 l 48 -20 l 44 -25 b 41 -31 44 -26 41 -30 l 41 -36 b 58 -25 48 -36 58 -30 l 68 -25 b 77 -19 72 -25 70 -19 l 83 -20 b 90 -19 84 -20 87 -19 l 91 -16 l 112 -9 b 122 -1 115 -5 122 -1 b 143 -5 127 -1 137 -5 l 147 -5 b 237 20 168 5 226 9 l 241 20 b 329 -4 295 -2 329 11 l 338 -9 b 341 -6 341 -9 341 -8 l 341 -1 b 338 4 341 0 338 4 b 344 20 338 9 344 16 b 309 47 344 36 315 29 l 309 61 b 287 109 309 66 287 104 l 287 133 b 284 141 287 133 286 140 l 284 147 b 283 158 284 150 283 158 b 268 636 273 266 268 500 b 261 722 268 663 261 694 b 283 840 261 751 283 823 b 280 861 283 847 283 854 l 280 866 b 290 876 280 869 290 872 l 290 881 b 298 901 290 891 298 895 l 298 909 b 293 920 298 912 293 915 l 293 926 l 298 929 l 298 933 b 293 937 298 934 293 936 l 293 941 l 306 950 l 305 951 l 309 952 b 318 961 311 952 318 958 b 290 969 305 961 298 969 l 273 969 b 254 976 263 969 263 976 l 251 979 b 238 981 247 979 244 981 b 227 977 234 981 227 979 b 230 976 227 976 229 976 b 205 954 215 970 219 954 b 191 958 198 954 191 955 b 198 961 191 959 194 961 b 187 970 195 962 191 965 l 187 981 l 190 981 b 175 984 190 983 179 983 l 175 983 b 170 981 175 983 172 981 l 168 984 b 147 986 161 986 154 986 b 141 973 147 981 144 979 l 129 963 b 79 912 102 925 79 951 b 83 890 79 911 83 891 l 83 883 b 97 854 83 877 97 861 l 98 848 b 101 843 98 845 101 843 b 100 837 101 840 100 838 b 112 794 101 837 112 798 b 98 129 112 544 112 338 b 73 63 98 100 73 97 l 73 43 b 79 34 73 40 77 37 l 80 31 b 79 29 80 31 79 30 l 93 8 b 84 -9 87 4 87 -9 l 80 -9 b 66 -5 79 -8 68 -5 l 66 2 l 61 12 b 58 15 61 13 58 15 l 58 22 l 54 22 l 44 2 l 44 -11 l 48 -15 m 243 972 l 248 973 l 250 970 b 243 972 248 970 244 972 m 54 -16 b 55 -19 55 -16 55 -18 b 54 -20 55 -20 55 -20 b 52 -19 54 -20 52 -20 b 54 -16 52 -18 54 -16 m 333 1061 l 343 1061 b 400 1173 401 1061 400 1127 b 331 1281 400 1240 397 1280 l 326 1281 b 226 1222 304 1281 254 1273 l 226 1205 b 333 1061 241 1081 283 1059 m 75 1056 l 77 1056 b 134 1177 140 1056 134 1131 b 66 1279 134 1237 130 1279 b -37 1218 47 1279 -6 1272 l -38 1201 b 75 1056 -22 1072 20 1058 "},"„":{"x_min":41.671875,"x_max":658.328125,"ha":700,"o":"m 202 -75 l 202 -158 b 187 -219 191 -175 187 -219 b 202 -216 190 -219 200 -216 l 241 -191 b 295 -116 255 -175 284 -130 l 308 -100 b 334 -41 313 -88 331 -45 l 341 8 l 341 34 l 327 76 b 262 143 312 102 287 125 l 213 168 l 202 184 b 184 226 191 195 188 226 l 161 226 b 141 218 158 225 143 219 l 95 176 b 63 134 73 155 80 134 l 62 134 b 41 109 58 129 43 112 l 41 93 b 101 34 54 61 75 47 l 155 -8 b 202 -75 172 -25 202 -48 m 519 -69 l 519 -152 b 504 -213 508 -169 504 -213 b 519 -211 506 -213 516 -211 l 558 -186 b 612 -111 572 -169 601 -125 l 625 -94 b 651 -36 630 -83 648 -40 l 658 13 l 658 40 l 644 81 b 579 148 629 108 604 130 l 530 173 l 519 190 b 501 231 508 201 505 231 l 477 231 b 458 223 475 230 459 225 l 412 181 b 380 140 390 161 397 140 l 379 140 b 358 115 375 134 359 118 l 358 98 b 418 40 370 66 391 52 l 472 -2 b 519 -69 488 -19 519 -43 "},"Â":{"x_min":41.671875,"x_max":1127.78125,"ha":1169,"o":"m 140 -43 l 140 -65 b 141 -86 140 -65 141 -66 l 205 -19 l 243 15 b 348 208 316 97 343 183 l 359 225 b 372 259 359 234 365 245 l 380 276 b 420 359 380 308 420 359 b 436 387 422 380 434 386 l 447 387 b 461 381 450 386 458 381 l 505 355 l 505 356 l 543 323 l 541 323 l 550 312 b 559 302 552 308 558 304 l 565 295 b 598 193 573 269 580 193 l 613 193 b 612 198 613 195 613 198 b 623 212 616 202 622 205 l 631 225 l 631 223 b 641 256 631 223 641 243 l 647 288 b 645 311 647 295 645 305 b 681 375 645 326 679 347 l 697 394 b 715 426 705 402 712 409 b 723 420 718 423 720 422 l 722 420 l 738 405 l 745 387 b 754 355 747 380 750 363 l 776 290 b 819 181 795 256 813 190 l 830 152 b 869 1 862 69 863 52 l 869 -8 b 866 -34 869 -13 866 -29 l 866 -61 b 863 -73 863 -63 863 -69 b 877 -79 869 -77 873 -79 b 931 -19 887 -79 913 -37 l 944 -12 b 1033 6 952 2 1018 1 l 1031 6 b 1104 15 1050 11 1068 15 l 1119 22 b 1127 36 1125 30 1127 34 b 1112 50 1127 38 1119 45 l 1101 55 b 1084 70 1087 55 1084 62 l 1084 72 b 1087 70 1086 72 1087 70 b 1073 97 1084 80 1077 88 l 1068 105 b 1062 120 1065 108 1062 119 l 1008 202 b 991 252 1008 220 991 233 b 984 280 991 262 990 270 l 984 277 b 981 284 983 279 981 281 b 801 715 890 512 869 529 b 750 826 781 769 759 823 l 736 875 l 725 895 b 706 951 725 906 706 941 l 705 968 b 669 1009 673 968 690 1009 l 661 1008 b 609 976 643 990 608 979 b 580 970 606 975 590 970 l 565 970 b 475 962 483 970 479 966 b 420 948 466 954 459 948 b 412 945 418 948 418 948 l 413 947 b 400 943 409 945 402 943 l 393 943 b 337 948 369 943 354 948 l 291 948 l 283 944 b 262 926 277 941 265 930 l 262 915 l 275 904 b 306 898 287 904 306 901 l 391 898 b 440 908 409 898 430 908 l 448 908 b 475 898 448 908 469 898 l 486 890 b 494 880 490 886 491 881 l 502 872 b 516 855 506 865 512 858 l 540 822 b 547 802 541 816 544 806 l 547 801 b 538 770 543 790 538 770 b 540 758 538 768 540 761 b 536 745 540 755 540 754 l 530 729 l 531 729 l 484 630 b 452 558 479 606 458 580 l 452 556 b 420 456 452 544 422 465 b 391 393 400 402 401 419 l 393 394 l 350 323 b 255 266 338 283 305 279 b 97 218 234 245 122 230 b 91 213 94 215 94 213 l 77 206 b 41 169 61 198 41 190 b 65 168 48 168 56 168 b 98 169 81 168 97 169 l 113 169 b 168 144 137 169 161 144 l 168 143 b 180 104 168 136 179 106 l 184 91 b 187 56 184 81 187 61 b 151 -33 187 5 172 -11 l 140 -43 m 695 1066 b 820 1033 733 1041 777 1033 l 831 1033 b 966 1181 898 1036 966 1081 b 922 1319 966 1218 943 1280 l 920 1322 b 922 1294 920 1312 922 1304 b 787 1168 920 1211 847 1168 b 600 1369 701 1179 620 1265 b 566 1427 584 1408 575 1427 b 441 1173 554 1427 508 1252 l 433 1168 b 384 1136 418 1158 402 1143 l 381 1123 l 381 1125 l 375 1108 b 373 1101 373 1105 373 1102 b 380 1084 373 1094 376 1090 l 381 1086 l 390 1073 l 405 1063 l 423 1058 b 569 1236 495 1081 543 1162 b 695 1066 606 1176 643 1113 m 645 386 l 618 363 b 616 361 616 362 616 362 l 615 359 l 538 433 l 526 440 b 479 484 488 455 484 479 l 479 491 b 494 531 479 501 494 523 l 498 563 l 519 620 l 537 650 l 541 663 l 559 684 b 584 731 563 731 580 731 b 720 468 609 731 708 494 l 720 459 b 708 443 720 451 711 447 l 669 409 b 645 386 659 398 650 388 "},"Í":{"x_min":-15.28125,"x_max":395.828125,"ha":386,"o":"m 48 -15 l 48 -20 l 44 -25 b 41 -31 44 -26 41 -30 l 41 -36 b 58 -25 48 -36 58 -30 l 68 -25 b 77 -19 72 -25 70 -19 l 83 -20 b 90 -19 84 -20 87 -19 l 91 -16 l 112 -9 b 122 -1 115 -5 122 -1 b 143 -5 127 -1 137 -5 l 147 -5 b 237 20 168 5 226 9 l 241 20 b 329 -4 295 -2 329 11 l 338 -9 b 341 -6 341 -9 341 -8 l 341 -1 b 338 4 341 0 338 4 b 344 20 338 9 344 16 b 309 47 344 36 315 29 l 309 61 b 287 109 309 66 287 104 l 287 133 b 284 141 287 133 286 140 l 284 147 b 283 158 284 150 283 158 b 268 636 273 266 268 500 b 261 722 268 663 261 694 b 283 840 261 751 283 823 b 280 861 283 847 283 854 l 280 866 b 290 876 280 869 290 872 l 290 881 b 298 901 290 891 298 895 l 298 909 b 293 920 298 912 293 915 l 293 926 l 298 929 l 298 933 b 293 937 298 934 293 936 l 293 941 l 306 950 l 305 951 l 309 952 b 318 961 311 952 318 958 b 290 969 305 961 298 969 l 273 969 b 254 976 263 969 263 976 l 251 979 b 238 981 247 979 244 981 b 227 977 234 981 227 979 b 230 976 227 976 229 976 b 205 954 215 970 219 954 b 191 958 198 954 191 955 b 198 961 191 959 194 961 b 187 970 195 962 191 965 l 187 981 l 190 981 b 175 984 190 983 179 983 l 175 983 b 170 981 175 983 172 981 l 168 984 b 147 986 161 986 154 986 b 141 973 147 981 144 979 l 129 963 b 79 912 102 925 79 951 b 83 890 79 911 83 891 l 83 883 b 97 854 83 877 97 861 l 98 848 b 101 843 98 845 101 843 b 100 837 101 840 100 838 b 112 794 101 837 112 798 b 98 129 112 544 112 338 b 73 63 98 100 73 97 l 73 43 b 79 34 73 40 77 37 l 80 31 b 79 29 80 31 79 30 l 93 8 b 84 -9 87 4 87 -9 l 80 -9 b 66 -5 79 -8 68 -5 l 66 2 l 61 12 b 58 15 61 13 58 15 l 58 22 l 54 22 l 44 2 l 44 -11 l 48 -15 m 243 972 l 248 973 l 250 970 b 243 972 248 970 244 972 m 54 -16 b 55 -19 55 -16 55 -18 b 54 -20 55 -20 55 -20 b 52 -19 54 -20 52 -20 b 54 -16 52 -18 54 -16 m 48 1111 l 8 1087 b -15 1066 -1 1083 -15 1073 b 70 1044 -15 1061 18 1044 b 294 1166 126 1044 219 1076 l 365 1247 l 390 1294 b 395 1315 394 1302 395 1309 b 347 1347 395 1347 361 1347 b 143 1176 276 1347 211 1241 l 105 1140 b 48 1111 93 1127 51 1111 "},"ì":{"x_min":-148.609375,"x_max":363.890625,"ha":332,"o":"m 193 911 l 193 852 b 41 641 193 776 76 666 b 87 556 83 630 87 593 l 87 306 b 86 241 87 277 87 273 b 88 180 87 234 87 186 l 88 173 b 73 54 77 156 73 119 l 100 38 b 170 0 100 23 162 1 b 190 -2 175 0 184 -2 b 290 63 220 9 290 13 b 241 155 290 80 262 97 b 237 176 241 158 237 172 b 247 409 237 261 247 338 b 237 465 247 416 237 459 b 245 484 237 468 245 483 b 258 551 256 511 258 534 l 258 570 b 243 719 258 659 254 706 b 200 727 219 725 208 727 b 190 726 195 727 193 726 b 302 833 276 769 298 833 l 302 831 b 355 927 325 859 355 915 l 355 937 b 350 961 355 948 350 951 b 361 972 350 962 361 970 l 363 984 b 337 1038 361 990 344 1030 l 331 1045 b 297 1072 322 1055 297 1072 l 245 1104 l 209 1112 l 168 1100 b 111 1091 148 1100 127 1091 l 76 1093 b 2 1108 52 1094 22 1106 l -5 1118 l -16 1144 b -6 1170 -11 1144 -6 1166 l -15 1170 b -47 1159 -22 1170 -43 1163 l -80 1141 l -148 1086 l -147 1066 b -141 1045 -145 1062 -143 1047 l -120 1025 l -94 1009 b -48 1002 -90 1008 -58 1002 l -20 1000 b 94 1013 20 1000 61 1013 l 102 1012 b 186 943 119 1012 176 954 b 193 911 187 941 191 919 "},"Ú":{"x_min":41.671875,"x_max":994.453125,"ha":1036,"o":"m 740 115 b 805 -100 745 23 761 -100 l 833 -100 b 888 -86 862 -100 876 -100 l 912 -47 b 994 31 934 -25 994 5 l 994 33 b 965 77 993 58 980 65 l 937 115 b 919 202 926 130 919 143 b 929 243 919 219 922 236 b 927 295 929 265 927 280 b 933 430 927 326 929 354 l 931 443 b 938 488 934 459 938 477 l 931 593 b 958 722 931 651 958 650 l 958 743 b 933 977 951 841 940 869 b 887 1026 930 1019 911 1026 b 752 1009 801 1026 797 1023 l 726 998 l 711 984 b 687 940 690 965 687 965 b 743 747 687 852 737 850 l 744 638 b 745 568 744 606 744 576 l 741 493 l 741 294 l 744 284 b 734 218 744 254 738 225 l 720 179 l 702 154 l 702 148 b 740 115 702 138 736 126 m 44 306 b 87 168 47 258 54 213 b 205 77 113 105 158 111 l 277 27 b 430 1 323 4 336 1 b 516 2 444 1 502 2 l 584 38 l 608 65 b 630 115 616 80 613 97 b 566 154 620 122 577 150 l 540 168 l 487 179 l 470 190 b 347 243 431 208 351 233 b 273 341 336 254 284 325 l 263 366 b 233 455 261 400 238 423 l 231 481 b 241 584 231 544 241 555 l 245 644 l 258 708 l 290 759 b 311 836 293 766 306 827 b 411 969 344 926 411 916 l 411 975 l 363 975 b 184 936 291 975 184 970 b 201 852 184 877 197 909 l 201 822 l 187 772 l 172 733 b 58 506 127 658 81 587 l 59 493 l 47 430 b 41 375 43 412 41 394 b 44 306 41 352 43 330 m 398 1113 l 358 1090 b 334 1069 348 1086 334 1076 b 420 1047 334 1063 368 1047 b 644 1169 476 1047 569 1079 l 715 1250 l 740 1297 b 745 1318 744 1305 745 1312 b 697 1350 745 1350 711 1350 b 493 1179 626 1350 561 1244 l 455 1143 b 398 1113 443 1130 401 1113 "},"Ý":{"x_min":-250,"x_max":902.78125,"ha":944,"o":"m 447 -191 b 450 -194 447 -193 448 -194 b 591 -56 523 -154 586 -98 l 591 -52 b 655 286 591 27 638 286 l 675 345 b 740 513 694 380 736 481 l 761 563 l 786 726 b 793 752 786 731 790 750 l 793 751 l 820 780 b 863 830 830 788 861 825 l 875 863 b 902 923 876 872 897 884 b 872 925 895 925 884 925 b 812 923 848 925 819 923 l 740 886 b 584 808 600 886 584 843 b 656 720 584 752 643 725 b 658 706 656 716 656 709 l 656 690 b 619 550 641 636 630 550 l 548 337 b 534 315 547 326 537 316 l 511 322 b 494 320 505 320 500 320 b 270 804 393 320 344 569 b 156 970 248 873 215 930 l 125 954 l 127 956 b 29 872 55 937 31 891 l 29 866 b 63 819 29 834 58 840 b 177 552 122 740 98 741 b 195 519 181 544 195 526 l 194 518 b 218 455 200 494 215 459 l 227 395 b 236 372 227 395 231 380 l 236 373 b 256 316 243 351 254 323 l 298 233 b 354 179 318 193 334 197 b 441 98 366 151 440 119 l 447 77 b 450 76 448 76 448 76 l 448 58 b 422 30 447 43 429 43 l 416 23 b 325 -37 395 0 384 -1 b 283 -66 316 -55 294 -48 l 268 -77 b 193 -133 266 -88 229 -100 b -4 -202 176 -148 38 -202 l -12 -202 b -62 -219 -29 -202 -51 -215 b -123 -216 -81 -218 -101 -219 b -229 -173 -155 -212 -180 -186 b -230 -170 -229 -172 -229 -172 b -247 -172 -233 -170 -243 -172 l -250 -177 b -147 -297 -231 -216 -162 -280 l -81 -322 b -47 -351 -68 -323 -62 -344 l 51 -365 b 61 -359 54 -365 61 -359 l 118 -368 b 177 -358 127 -368 163 -358 l 180 -358 b 259 -327 181 -348 240 -344 b 331 -283 283 -315 330 -283 b 447 -191 333 -273 372 -261 m 308 1094 l 268 1070 b 244 1050 258 1066 244 1056 b 330 1027 244 1044 277 1027 b 554 1150 386 1027 479 1059 l 625 1230 l 650 1277 b 655 1298 654 1286 655 1293 b 606 1330 655 1330 620 1330 b 402 1159 536 1330 470 1225 l 365 1123 b 308 1094 352 1111 311 1094 "},"b":{"x_min":41.671875,"x_max":666.671875,"ha":708,"o":"m 412 2 l 423 -6 b 463 -23 429 -15 436 -23 b 508 -12 484 -23 497 -18 l 545 0 b 598 43 554 1 572 19 l 598 41 l 613 55 b 662 129 618 62 662 127 b 661 143 662 130 661 136 l 666 198 b 522 411 640 400 570 381 l 515 415 b 548 448 515 429 531 434 l 593 486 b 618 543 608 506 618 529 b 616 563 618 554 616 559 l 616 587 b 450 740 616 675 512 740 l 443 740 b 425 741 437 740 427 741 l 333 731 b 312 725 330 731 320 727 l 261 709 b 248 708 255 709 250 708 b 176 734 229 708 195 734 b 41 668 144 734 41 669 l 43 658 b 100 584 43 634 94 604 b 116 488 100 568 116 504 b 125 80 116 366 125 227 b 87 33 111 44 87 47 l 87 23 l 105 9 b 179 -12 108 1 163 -12 l 219 -12 b 402 2 251 -12 336 -9 l 412 2 m 269 516 l 280 609 b 301 636 280 633 295 636 l 306 636 b 393 580 318 633 370 587 b 456 515 434 550 448 530 l 458 505 b 462 487 459 501 462 494 b 304 390 462 409 334 413 l 301 390 b 263 490 283 411 263 444 b 266 512 263 498 263 509 l 269 516 m 279 256 b 322 300 286 286 308 300 b 348 291 334 295 320 298 l 347 291 b 438 247 387 279 406 272 l 438 248 l 455 234 l 454 234 b 501 130 475 201 501 156 b 472 105 501 111 493 105 l 351 101 b 334 106 348 101 340 102 l 319 112 b 290 193 294 143 297 141 b 279 248 287 215 284 237 l 279 256 "},"q":{"x_min":41.671875,"x_max":783.484375,"ha":826,"o":"m 604 -376 l 604 -426 b 641 -447 604 -438 612 -447 l 643 -447 b 738 -377 665 -447 711 -405 l 752 -363 l 768 -333 b 783 -175 786 -286 783 -223 b 780 -29 783 -125 780 -76 b 766 115 780 13 766 51 l 766 125 b 748 408 766 219 748 319 b 769 540 748 455 754 500 l 769 558 b 762 584 765 566 762 579 b 770 597 762 584 765 590 l 770 613 b 661 670 754 640 669 670 l 652 670 b 644 669 650 670 647 669 l 630 669 b 401 693 541 669 475 693 b 345 688 384 693 362 691 l 331 688 b 162 568 293 680 187 602 b 41 252 97 477 43 381 l 41 245 b 72 138 41 215 51 183 l 113 80 b 302 -2 168 4 254 -2 b 386 11 323 -2 358 1 l 388 11 b 547 69 465 27 484 30 l 556 75 b 573 81 562 77 566 81 l 587 81 b 586 77 587 81 586 80 l 586 75 b 604 -376 586 -45 604 -150 m 206 383 l 208 402 b 373 593 208 477 301 593 b 581 533 486 593 548 584 l 580 493 b 587 430 579 469 588 470 l 586 386 b 587 350 586 375 587 361 b 573 181 586 306 583 252 b 393 109 555 143 452 109 b 362 113 380 109 369 111 l 351 118 l 352 116 l 338 123 b 266 194 300 143 275 180 l 251 216 b 215 281 231 244 238 231 l 211 301 b 206 383 211 306 208 363 "},"Ö":{"x_min":41.671875,"x_max":1000.046875,"ha":1042,"o":"m 411 8 b 433 5 419 8 426 6 l 431 5 b 477 0 441 2 454 0 b 526 6 498 0 512 2 l 525 6 l 615 25 b 619 30 615 27 618 30 l 633 34 b 665 44 643 36 656 40 l 706 63 b 800 129 731 93 761 90 l 818 147 b 888 208 830 152 858 173 l 908 230 l 925 243 b 972 373 956 266 972 369 b 1000 509 970 398 1001 479 l 997 558 b 986 626 994 565 986 606 b 897 801 986 638 944 768 l 888 813 l 847 855 l 783 900 b 779 901 781 900 780 900 l 780 901 l 761 912 l 737 933 l 695 948 b 691 950 694 948 693 948 l 637 968 b 570 984 629 975 587 984 b 436 966 508 980 456 975 l 350 933 l 337 915 b 275 870 320 891 298 881 l 275 872 b 188 825 243 858 202 825 l 136 765 b 83 662 118 754 83 662 l 83 661 b 41 536 54 631 41 558 l 41 487 b 62 387 41 415 62 393 l 76 351 b 125 256 80 320 120 256 b 169 177 127 236 163 181 l 181 168 l 179 169 l 205 134 b 256 86 218 119 241 98 l 318 36 b 411 8 355 36 384 8 m 279 334 l 258 373 b 200 544 244 431 200 480 l 200 608 b 320 794 202 675 241 745 b 348 809 329 797 343 805 l 369 820 l 379 820 b 412 837 384 822 397 829 l 411 836 b 470 851 431 841 448 851 l 483 851 b 550 838 502 851 526 838 l 575 830 l 573 830 b 698 751 618 818 663 769 l 741 708 b 786 650 750 691 777 666 b 804 613 794 633 798 618 l 809 602 b 820 573 809 586 820 593 l 819 525 b 825 495 819 516 822 504 l 825 484 b 830 456 825 473 827 465 l 836 444 l 816 341 b 808 293 812 325 808 301 l 788 254 b 752 209 788 243 780 236 l 712 177 b 666 156 698 168 700 177 l 668 158 l 652 154 b 588 138 619 150 608 138 l 551 138 b 533 136 545 138 537 137 b 452 147 509 143 470 136 l 391 183 l 393 183 l 365 206 b 287 308 348 211 340 237 b 279 334 287 318 286 326 m 644 1016 l 654 1016 b 711 1129 712 1016 711 1083 b 643 1237 711 1195 708 1236 l 637 1237 b 537 1177 615 1237 565 1229 l 537 1161 b 644 1016 552 1037 594 1015 m 386 1012 l 388 1012 b 445 1133 451 1012 445 1087 b 377 1234 445 1193 441 1234 b 273 1173 358 1234 304 1227 l 272 1156 b 386 1012 288 1027 331 1013 "},"z":{"x_min":41.671875,"x_max":848.609375,"ha":890,"o":"m 651 4 l 640 -43 b 630 -84 637 -47 630 -56 b 681 -87 652 -87 676 -87 b 770 -30 708 -87 723 -56 b 848 106 816 29 848 -4 l 831 133 l 819 140 l 820 140 b 784 151 812 144 791 151 l 686 158 b 655 159 676 158 665 159 l 594 156 b 463 152 547 156 498 152 l 459 152 b 456 161 456 155 456 159 b 470 208 456 184 465 202 l 470 206 l 486 237 b 493 254 486 237 490 247 l 502 276 b 523 311 502 280 519 306 b 611 498 566 393 586 433 l 618 527 l 641 583 b 655 595 641 584 648 590 l 688 629 b 725 625 693 629 712 625 b 748 630 734 625 744 629 l 787 680 l 787 694 b 744 722 787 730 768 705 b 647 718 734 720 675 718 l 616 722 l 531 722 l 515 718 l 337 718 b 283 723 327 718 302 720 l 263 723 b 188 744 231 727 195 744 l 179 744 b 140 733 163 744 150 737 l 141 734 b 129 729 134 731 129 729 l 97 726 l 72 712 b 41 665 63 706 56 701 b 176 552 41 568 159 552 b 245 576 193 552 243 573 l 245 575 l 263 591 b 277 616 268 600 273 606 l 306 622 l 375 620 b 476 608 397 620 438 620 l 469 598 l 470 598 l 448 548 b 429 502 441 541 430 516 l 430 504 l 373 388 b 344 319 361 368 350 338 l 345 320 l 326 281 l 287 177 b 280 155 287 173 283 163 l 280 154 b 276 144 277 151 276 145 l 255 95 b 233 44 240 83 233 47 l 233 30 b 304 1 263 2 293 19 l 326 0 l 372 9 b 538 38 425 29 484 38 b 636 27 569 38 605 34 l 651 4 "},"ã":{"x_min":41.671875,"x_max":754.171875,"ha":796,"o":"m 681 136 l 609 187 l 611 186 b 512 362 556 236 531 262 b 488 444 500 376 497 398 b 484 456 488 448 487 454 l 477 500 l 459 552 b 437 647 448 584 450 618 l 438 647 b 351 762 420 704 393 738 l 323 762 l 275 756 l 263 751 b 223 712 247 738 229 715 l 216 695 b 215 683 216 691 215 686 b 230 634 215 673 218 648 l 258 586 l 256 587 l 287 505 b 309 436 290 500 309 444 l 309 402 b 236 331 301 390 259 338 l 236 309 l 266 316 l 287 316 b 302 325 290 318 301 325 l 330 325 b 355 255 337 325 355 261 l 351 248 b 258 144 340 212 322 144 b 205 179 223 144 213 151 l 205 177 l 200 197 l 200 216 b 219 275 200 220 216 268 l 219 294 b 175 286 200 294 183 290 l 152 263 l 120 241 b 51 158 120 230 76 211 l 41 145 l 50 80 b 122 -2 54 43 79 6 l 163 -2 b 204 12 172 -2 201 8 l 281 66 b 311 94 288 72 305 90 l 337 129 l 361 148 b 377 159 365 151 376 159 l 380 159 b 423 100 387 148 400 122 l 423 101 l 480 43 l 494 37 b 502 34 495 37 500 34 b 593 18 536 22 548 18 b 754 65 672 18 754 36 b 681 136 754 98 691 133 m 531 1008 b 431 918 508 940 472 918 b 213 981 363 918 279 981 b 106 795 161 981 119 941 l 159 838 b 205 854 172 850 187 854 b 412 808 262 854 344 808 b 537 984 473 808 525 844 b 531 1008 536 987 533 1001 "},"æ":{"x_min":41.671875,"x_max":1090.28125,"ha":1132,"o":"m 41 119 b 66 72 41 95 50 88 l 70 66 l 69 66 l 133 8 l 166 8 l 205 22 b 291 84 237 29 256 48 l 331 126 b 362 155 341 141 356 155 l 380 155 b 413 133 397 155 405 147 l 422 118 l 420 119 b 436 86 420 112 427 98 l 477 51 l 497 38 b 512 31 500 36 506 31 l 548 8 l 581 0 b 593 -6 581 -1 587 -4 l 609 -13 b 745 -26 668 -22 711 -26 b 906 12 815 -26 845 -8 l 905 12 b 919 15 911 13 919 15 l 945 45 b 977 108 950 55 975 100 l 977 116 b 968 130 977 120 970 127 l 929 126 b 841 94 902 120 863 94 b 786 93 825 94 805 93 b 716 101 761 93 736 94 l 718 100 l 656 136 b 555 280 581 188 555 234 b 566 306 555 295 559 300 l 565 306 b 572 313 568 308 569 312 l 570 312 l 631 331 b 731 336 637 331 702 334 l 743 336 b 776 334 752 336 765 334 b 968 351 837 334 906 351 l 998 358 b 1011 365 1000 358 1008 363 l 1051 370 l 1066 377 b 1090 404 1072 383 1090 404 b 1077 434 1090 412 1080 427 l 1079 433 l 1066 468 l 1023 538 l 1000 563 b 977 587 988 573 979 584 l 963 613 b 947 631 962 616 948 630 l 915 645 b 840 687 887 672 873 673 l 806 701 l 808 700 b 783 709 801 702 784 709 l 709 709 b 630 679 693 709 659 690 l 550 637 l 551 638 b 501 601 516 625 509 615 l 501 602 b 465 556 494 597 481 575 l 443 533 l 437 554 l 409 609 b 276 745 377 673 354 727 l 266 745 b 144 695 204 716 211 744 l 144 681 b 195 644 161 656 173 656 l 212 625 b 269 538 248 597 269 540 b 297 458 279 513 287 483 l 311 409 b 325 352 311 409 325 363 l 338 316 b 354 259 340 316 351 273 b 348 245 354 259 350 250 l 350 247 l 309 191 b 237 144 288 166 269 144 b 175 172 202 144 175 161 l 175 238 b 181 248 175 238 180 247 l 218 283 b 197 301 211 295 201 301 b 187 295 193 301 190 298 b 41 119 101 268 41 208 m 516 472 b 518 487 516 475 518 487 l 518 486 l 533 526 b 540 538 533 527 538 537 l 545 554 b 572 591 554 554 568 577 l 586 597 b 625 608 594 602 601 608 b 645 605 627 608 641 605 l 670 600 l 740 556 l 758 550 l 856 475 b 868 469 858 475 863 472 l 879 462 l 893 447 b 894 441 893 443 894 443 b 793 430 894 427 797 430 b 676 431 752 430 713 431 b 556 429 630 431 568 429 l 536 429 b 516 472 519 429 516 469 "},"É":{"x_min":41.671875,"x_max":1009.71875,"ha":1051,"o":"m 854 -69 b 876 -66 854 -69 868 -69 b 880 -65 877 -66 879 -65 l 895 -48 b 904 -33 897 -45 904 -33 l 911 2 b 923 73 911 31 923 51 l 923 86 b 916 137 919 113 916 130 l 927 177 l 931 304 b 879 288 898 304 895 288 l 831 216 l 822 184 b 765 145 819 165 816 145 b 726 120 763 145 731 129 l 709 104 b 705 101 708 102 706 101 l 683 91 l 636 77 b 620 76 631 77 623 77 l 622 76 b 598 73 612 75 601 73 l 579 73 b 513 87 558 73 544 76 l 487 97 l 488 95 l 412 131 l 355 200 l 355 198 l 351 202 b 308 270 347 237 327 251 l 311 270 l 294 286 b 252 380 281 305 265 348 l 243 404 l 243 402 b 238 450 241 412 238 445 l 231 504 b 226 498 227 504 226 501 b 223 504 226 498 223 502 b 247 518 226 512 234 518 l 601 518 l 633 522 b 765 526 640 522 734 526 b 830 506 788 520 809 522 b 854 495 834 506 847 495 l 863 493 b 868 480 865 488 868 481 l 865 484 b 879 461 865 473 872 465 l 900 456 l 908 458 l 923 472 l 933 487 b 944 512 938 493 944 506 l 945 591 l 941 600 b 931 637 941 612 931 605 l 883 638 b 863 629 880 636 872 629 l 850 622 b 723 612 820 619 744 612 l 547 616 b 433 612 512 616 466 612 l 391 612 l 283 620 l 262 616 l 233 616 b 234 633 233 616 234 623 b 233 640 234 634 233 637 l 233 648 b 241 680 233 663 241 666 l 241 688 l 247 697 l 259 766 b 269 781 263 770 266 775 l 294 806 b 344 866 312 825 326 848 l 344 865 l 351 870 b 408 893 368 886 377 893 b 448 891 420 893 434 891 l 493 890 l 505 884 l 552 883 b 576 888 554 883 570 886 l 590 886 l 612 870 l 611 870 l 629 862 b 723 836 663 855 711 838 l 737 831 l 787 806 b 813 793 797 802 808 795 l 872 733 b 877 718 872 729 876 722 l 911 675 l 911 676 b 918 668 912 673 916 670 l 916 669 l 927 643 b 936 633 931 640 936 634 l 961 622 l 981 625 b 1009 668 1004 630 1009 633 b 1001 694 1009 686 1006 688 l 988 729 l 961 761 l 961 759 l 954 769 l 955 768 l 947 794 b 944 820 947 800 944 816 l 929 838 l 913 904 b 926 931 913 909 926 918 l 926 937 b 884 965 926 955 897 965 b 856 961 863 965 861 961 l 820 962 b 791 956 809 962 805 956 b 787 958 790 956 788 958 l 755 958 b 738 963 751 958 738 963 l 706 970 l 622 970 b 580 969 608 970 593 969 b 561 970 572 969 566 970 l 469 972 b 458 981 468 972 463 976 l 459 981 b 416 1008 448 994 436 1008 l 359 1000 b 320 981 350 1000 337 990 l 280 961 b 254 948 269 954 259 948 l 241 934 l 241 936 b 213 909 236 931 222 919 l 198 890 l 150 841 l 81 731 b 51 625 69 669 58 655 b 41 572 43 593 41 579 b 47 512 41 554 47 529 b 45 506 45 508 45 506 l 45 466 b 55 386 45 455 52 404 l 68 304 b 237 97 109 175 173 138 l 259 62 b 286 40 262 58 281 41 l 320 19 l 355 5 b 369 2 359 5 365 4 l 411 -6 l 437 -6 b 490 -12 451 -6 477 -12 b 504 -11 491 -12 500 -12 l 502 -11 b 508 -9 504 -9 506 -9 l 570 -4 b 595 -1 579 -4 591 -2 l 636 11 l 634 11 l 659 19 b 733 38 691 29 722 15 l 766 37 b 831 11 772 37 801 26 l 830 2 b 850 -18 830 -11 840 -15 b 847 -61 847 -31 847 -47 l 854 -69 m 452 1125 l 412 1101 b 388 1080 402 1097 388 1087 b 475 1058 388 1075 422 1058 b 698 1180 530 1058 623 1090 l 769 1261 l 794 1308 b 800 1329 798 1316 800 1323 b 751 1361 800 1361 765 1361 b 547 1190 680 1361 615 1255 l 509 1154 b 452 1125 497 1141 455 1125 "},"¡":{"x_min":41.671875,"x_max":283.328125,"ha":325,"o":"m 261 672 b 283 763 275 722 283 750 b 254 780 283 779 275 780 l 218 780 b 137 758 200 770 147 768 l 133 758 b 50 776 123 762 66 776 b 45 775 47 776 45 776 b 47 772 45 775 45 773 b 41 758 47 768 41 762 b 73 737 41 747 68 752 l 73 726 b 93 687 73 722 93 691 l 93 669 b 95 662 93 669 94 663 l 95 658 b 116 198 95 554 116 277 b 97 104 116 175 97 118 b 87 38 97 73 87 66 l 87 23 l 75 16 l 76 15 l 73 15 b 65 8 72 15 65 9 b 90 1 76 8 83 1 l 105 1 b 193 9 155 1 165 9 b 234 5 204 9 216 9 b 279 47 258 37 279 15 b 275 65 279 48 275 63 l 275 70 b 262 93 275 75 262 87 l 261 97 b 259 102 261 100 259 102 l 259 106 b 248 141 259 106 248 137 b 261 672 248 340 248 505 m 268 919 b 190 969 268 965 226 969 l 173 969 b 79 908 113 969 79 966 b 133 818 79 893 84 844 l 147 818 b 268 919 258 834 268 872 "},"L":{"x_min":2.78125,"x_max":1141.703125,"ha":342,"o":"m 987 -587 b 1044 -551 991 -583 1033 -558 b 1141 -470 1058 -543 1143 -468 l 1141 -462 b 1137 -463 1140 -463 1140 -463 b 1116 -459 1131 -463 1122 -459 b 1112 -462 1113 -459 1112 -461 b 966 -495 1048 -469 1009 -495 b 886 -488 938 -495 912 -490 b 562 -354 819 -465 613 -405 b 290 -148 476 -270 356 -212 l 284 -140 b 252 -105 276 -125 252 -123 l 252 -76 b 276 55 252 -43 265 -2 b 284 93 277 59 284 91 l 284 236 b 290 281 284 241 290 277 l 290 287 b 276 540 290 341 284 451 b 261 650 276 576 261 608 l 261 666 b 251 768 252 693 251 729 b 252 886 251 805 252 847 b 198 1255 252 909 225 1255 b 193 1248 197 1255 194 1252 l 151 1248 b 115 1238 144 1245 116 1241 b 2 1140 38 1211 2 1159 b 63 923 2 1122 63 1080 l 63 888 b 72 819 63 884 72 827 b 70 697 72 809 70 744 b 77 602 70 638 77 634 b 76 519 77 595 76 551 b 100 318 76 486 100 366 b 98 291 100 313 98 300 b 109 120 98 245 109 175 b 84 -76 109 88 101 27 b 47 -211 84 -154 47 -177 b 273 -376 47 -293 216 -338 b 954 -593 502 -527 706 -580 l 987 -587 "}," ":{"x_min":0,"x_max":0,"ha":644},"P":{"x_min":-144.4375,"x_max":823.609375,"ha":865,"o":"m -144 -366 l -140 -369 b -122 -370 -140 -369 -126 -370 b -1 -330 -66 -370 -68 -352 b 54 -295 4 -330 48 -295 l 87 -279 b 131 -234 87 -250 131 -234 l 152 -218 l 155 -212 b 163 -206 156 -209 163 -206 l 172 -198 b 201 -188 177 -193 201 -193 b 200 -187 201 -188 200 -188 l 204 -187 b 233 -191 206 -187 230 -190 l 251 -191 b 293 -200 263 -191 270 -200 b 343 -184 330 -200 330 -197 l 358 -191 b 391 -179 384 -184 369 -190 l 391 -176 b 306 -95 391 -159 308 -95 l 306 -87 l 293 -76 b 288 -68 293 -76 290 -69 l 288 -63 b 293 -55 290 -63 293 -55 b 284 -44 293 -51 284 -51 b 286 -33 284 -40 286 -34 b 277 19 280 -27 277 5 l 277 36 b 272 44 277 36 272 41 l 269 69 b 277 98 269 81 277 87 l 272 109 l 272 122 b 269 137 272 123 269 136 l 269 156 b 268 162 269 158 268 159 b 361 226 268 218 322 226 b 419 225 380 226 400 225 b 465 229 434 225 450 225 b 476 234 465 229 475 234 l 497 234 b 630 281 547 234 620 272 b 687 313 668 288 687 313 l 687 316 b 712 327 690 318 711 327 l 729 340 b 741 355 730 343 738 355 l 756 365 b 780 395 765 365 780 395 l 788 416 b 823 569 798 419 823 498 b 793 687 823 620 804 650 l 776 715 l 776 722 b 768 737 776 726 768 731 l 765 745 b 754 761 758 745 754 751 l 750 769 b 748 772 750 769 748 770 b 750 776 748 773 750 776 b 731 797 745 783 738 788 l 729 805 b 695 827 722 812 702 820 b 634 891 679 843 656 869 l 609 905 b 493 955 552 905 527 955 l 465 963 b 447 966 459 965 448 966 l 436 966 b 387 959 419 966 393 965 l 372 959 b 326 955 366 959 330 956 l 297 955 b 258 959 293 956 262 959 b 241 955 256 959 244 955 l 208 955 b 123 972 156 955 123 972 l 106 972 b 104 966 105 972 104 966 l 91 966 b 79 963 91 966 80 963 l 63 963 b -44 938 -13 963 -41 941 l -44 936 b -23 927 -37 936 -30 927 l 25 916 b 66 788 52 916 66 823 l 66 769 b 72 691 66 747 72 737 b 70 637 72 669 70 645 b 75 618 72 636 75 620 l 75 604 b 91 415 75 527 87 415 l 91 412 b 87 408 91 411 87 408 b 93 384 87 401 93 390 l 91 380 b 87 372 91 379 87 373 b 95 340 90 365 95 351 l 95 331 b 91 326 95 331 93 326 l 91 320 b 95 281 93 316 95 284 l 95 204 b 91 201 95 204 93 202 l 91 195 b 95 190 93 195 95 190 l 95 156 b 91 113 95 154 93 118 l 91 83 b 95 63 91 80 95 65 l 95 0 b 91 -25 95 -4 93 -23 l 91 -41 b 87 -72 91 -44 87 -69 l 87 -76 b 79 -105 81 -93 79 -101 l 79 -131 b 75 -144 79 -133 75 -143 l 75 -155 b 79 -176 75 -158 79 -173 b 66 -187 79 -176 68 -186 l 66 -194 b 59 -212 66 -193 59 -206 l 58 -226 b 45 -245 54 -226 50 -245 l 43 -251 b 5 -302 29 -265 25 -283 l -11 -315 b -51 -334 -19 -318 -47 -333 b -144 -366 -65 -341 -126 -348 m 265 408 l 265 472 b 269 516 265 475 269 511 l 269 538 b 272 551 269 540 272 548 l 272 606 b 265 690 272 640 265 669 b 269 745 265 718 269 733 b 318 872 291 788 268 859 b 372 891 329 883 368 890 b 387 888 375 891 386 888 l 436 880 b 480 861 443 872 472 861 l 497 852 b 509 847 498 852 508 848 l 508 845 b 577 761 562 775 563 801 b 595 729 577 756 594 733 l 595 727 b 601 706 595 722 601 708 l 613 673 b 622 631 613 656 622 640 l 622 618 b 630 570 626 608 630 573 l 630 545 b 626 511 630 544 626 516 l 626 466 b 622 444 626 465 623 447 l 619 436 b 598 384 593 409 609 384 b 552 320 583 337 558 323 b 444 255 552 295 491 255 b 301 312 386 255 300 312 b 272 352 291 312 272 344 l 272 372 b 269 380 272 373 269 379 l 269 388 b 265 408 269 390 265 406 "},"À":{"x_min":41.671875,"x_max":1127.78125,"ha":1169,"o":"m 140 -43 l 140 -65 b 141 -86 140 -65 141 -66 l 205 -19 l 243 15 b 348 208 316 97 343 183 l 359 225 b 372 259 359 234 365 245 l 380 276 b 420 359 380 308 420 359 b 436 387 422 380 434 386 l 447 387 b 461 381 450 386 458 381 l 505 355 l 505 356 l 543 323 l 541 323 l 550 312 b 559 302 552 308 558 304 l 565 295 b 598 193 573 269 580 193 l 613 193 b 612 198 613 195 613 198 b 623 212 616 202 622 205 l 631 225 l 631 223 b 641 256 631 223 641 243 l 647 288 b 645 311 647 295 645 305 b 681 375 645 326 679 347 l 697 394 b 715 426 705 402 712 409 b 723 420 718 423 720 422 l 722 420 l 738 405 l 745 387 b 754 355 747 380 750 363 l 776 290 b 819 181 795 256 813 190 l 830 152 b 869 1 862 69 863 52 l 869 -8 b 866 -34 869 -13 866 -29 l 866 -61 b 863 -73 863 -63 863 -69 b 877 -79 869 -77 873 -79 b 931 -19 887 -79 913 -37 l 944 -12 b 1033 6 952 2 1018 1 l 1031 6 b 1104 15 1050 11 1068 15 l 1119 22 b 1127 36 1125 30 1127 34 b 1112 50 1127 38 1119 45 l 1101 55 b 1084 70 1087 55 1084 62 l 1084 72 b 1087 70 1086 72 1087 70 b 1073 97 1084 80 1077 88 l 1068 105 b 1062 120 1065 108 1062 119 l 1008 202 b 991 252 1008 220 991 233 b 984 280 991 262 990 270 l 984 277 b 981 284 983 279 981 281 b 801 715 890 512 869 529 b 750 826 781 769 759 823 l 736 875 l 725 895 b 706 951 725 906 706 941 l 705 968 b 669 1009 673 968 690 1009 l 661 1008 b 609 976 643 990 608 979 b 580 970 606 975 590 970 l 565 970 b 475 962 483 970 479 966 b 420 948 466 954 459 948 b 412 945 418 948 418 948 l 413 947 b 400 943 409 945 402 943 l 393 943 b 337 948 369 943 354 948 l 291 948 l 283 944 b 262 926 277 941 265 930 l 262 915 l 275 904 b 306 898 287 904 306 901 l 391 898 b 440 908 409 898 430 908 l 448 908 b 475 898 448 908 469 898 l 486 890 b 494 880 490 886 491 881 l 502 872 b 516 855 506 865 512 858 l 540 822 b 547 802 541 816 544 806 l 547 801 b 538 770 543 790 538 770 b 540 758 538 768 540 761 b 536 745 540 755 540 754 l 530 729 l 531 729 l 484 630 b 452 558 479 606 458 580 l 452 556 b 420 456 452 544 422 465 b 391 393 400 402 401 419 l 393 394 l 350 323 b 255 266 338 283 305 279 b 97 218 234 245 122 230 b 91 213 94 215 94 213 l 77 206 b 41 169 61 198 41 190 b 65 168 48 168 56 168 b 98 169 81 168 97 169 l 113 169 b 168 144 137 169 161 144 l 168 143 b 180 104 168 136 179 106 l 184 91 b 187 56 184 81 187 61 b 151 -33 187 5 172 -11 l 140 -43 m 581 1216 l 581 1158 b 540 1062 581 1104 540 1070 b 525 1027 538 1056 529 1034 l 525 1013 b 530 1012 526 1013 527 1012 b 580 1033 548 1012 548 1018 l 654 1076 b 691 1138 666 1075 687 1138 l 691 1137 b 744 1233 713 1165 744 1220 l 744 1243 b 738 1266 744 1254 738 1256 b 750 1277 738 1268 750 1276 l 752 1290 b 726 1344 750 1295 733 1336 l 720 1351 b 686 1377 711 1361 686 1377 l 634 1409 l 598 1418 l 556 1405 b 500 1397 537 1405 516 1397 l 465 1398 b 391 1413 441 1400 411 1412 l 383 1423 l 372 1450 b 381 1476 377 1450 381 1472 l 373 1476 b 341 1465 366 1476 345 1469 l 308 1447 l 240 1391 l 241 1372 b 247 1351 243 1368 245 1352 l 268 1330 l 294 1315 b 340 1308 298 1313 330 1308 l 368 1305 b 483 1319 409 1305 450 1319 l 491 1318 b 575 1248 508 1318 565 1259 b 581 1216 576 1247 580 1225 m 645 386 l 618 363 b 616 361 616 362 616 362 l 615 359 l 538 433 l 526 440 b 479 484 488 455 484 479 l 479 491 b 494 531 479 501 494 523 l 498 563 l 519 620 l 537 650 l 541 663 l 559 684 b 584 731 563 731 580 731 b 720 468 609 731 708 494 l 720 459 b 708 443 720 451 711 447 l 669 409 b 645 386 659 398 650 388 "},"_":{"x_min":41.671875,"x_max":1145.828125,"ha":1188,"o":"m 1043 -122 l 1048 -122 b 1062 -123 1050 -122 1058 -123 b 1090 -115 1079 -123 1083 -122 l 1102 -98 b 1145 -37 1133 -98 1145 -51 b 1131 2 1145 -12 1141 -2 l 1113 2 b 1061 -20 1100 2 1062 -19 l 1025 -51 b 1013 -68 1022 -55 1013 -66 l 1012 -68 b 895 -130 994 -94 930 -123 b 830 -122 884 -130 840 -125 l 783 -115 b 723 -98 766 -106 734 -98 l 598 -98 b 533 -106 593 -98 540 -106 l 491 -106 b 456 -115 490 -106 465 -112 l 397 -130 b 356 -147 387 -133 358 -144 l 355 -148 b 302 -154 336 -152 319 -151 b 241 -170 280 -161 251 -170 b 208 -169 227 -170 211 -169 b 184 -177 206 -169 190 -175 l 143 -193 l 65 -248 b 54 -272 65 -248 56 -265 l 41 -302 l 41 -318 l 54 -343 l 72 -366 l 148 -366 b 166 -358 151 -366 163 -361 l 179 -343 b 184 -302 179 -338 183 -306 l 195 -263 l 237 -225 b 350 -193 272 -208 301 -205 l 444 -177 b 561 -186 486 -186 504 -186 b 616 -184 584 -186 608 -186 b 637 -194 620 -193 630 -194 b 658 -193 645 -194 656 -193 b 705 -201 662 -194 701 -201 l 775 -201 b 818 -193 790 -201 808 -200 l 870 -177 b 1043 -122 927 -172 983 -122 "},"ñ":{"x_min":41.671875,"x_max":812.5,"ha":854,"o":"m 126 -23 b 151 -15 133 -23 143 -22 l 152 -15 b 190 5 166 -11 181 -6 b 193 -5 190 -2 191 -5 b 226 158 208 -5 226 56 b 225 179 226 165 225 172 l 225 241 b 230 290 227 256 227 275 l 323 248 l 322 250 l 375 218 l 437 186 b 479 173 452 180 463 177 l 480 173 b 490 170 483 170 487 170 l 506 166 l 505 166 b 520 163 508 165 516 163 l 572 141 l 633 131 b 638 102 636 125 634 116 l 645 73 b 718 2 648 13 713 4 l 727 2 b 812 73 758 2 781 19 l 812 84 b 806 115 812 93 811 104 l 802 127 l 802 126 b 794 151 800 136 794 145 b 801 225 794 159 801 208 b 795 251 801 238 800 244 l 797 247 l 788 263 l 790 262 b 786 318 788 265 786 277 l 794 376 b 787 437 794 386 787 425 l 783 476 b 780 509 781 487 780 500 l 780 534 b 788 600 787 552 788 575 b 775 704 788 637 775 651 b 720 730 755 723 737 730 b 636 695 704 730 670 722 l 619 683 l 620 683 b 579 630 600 668 580 641 b 595 588 579 623 591 597 l 605 573 b 623 473 612 573 623 515 l 623 300 l 609 306 b 576 323 601 309 587 318 l 558 333 b 519 358 545 341 516 361 l 465 391 b 365 456 429 423 404 437 l 240 519 l 234 534 b 226 555 229 541 226 551 b 233 587 230 565 233 577 b 136 708 233 661 183 708 b 108 695 122 708 112 700 l 87 686 l 69 668 b 41 622 56 656 41 640 b 63 576 41 608 52 588 l 68 566 l 66 568 b 76 184 66 566 76 529 l 76 169 b 91 76 87 116 91 90 b 87 38 91 63 87 58 b 126 -23 87 15 97 -23 m 633 963 b 533 873 609 895 573 873 b 315 937 465 873 380 937 b 208 751 262 937 220 897 l 261 794 b 306 809 273 805 288 809 b 513 763 363 809 445 763 b 638 940 575 763 626 800 b 633 963 637 943 634 956 "},"+":{"x_min":41.671875,"x_max":527.78125,"ha":569,"o":"m 79 445 l 69 419 b 43 355 58 419 43 362 b 41 337 43 351 41 341 b 86 247 48 306 52 247 b 187 294 101 247 112 294 l 200 294 b 198 238 200 275 200 266 b 201 177 200 231 200 183 l 201 172 b 186 54 190 155 186 118 l 212 38 b 284 0 212 23 276 1 b 304 -2 288 0 298 -2 b 406 62 336 9 406 13 b 356 154 406 79 379 95 b 352 175 356 156 352 170 b 356 295 352 216 354 256 b 411 279 384 286 393 279 l 423 279 b 522 293 483 279 515 283 l 527 318 b 470 477 527 448 472 476 b 415 434 462 440 438 434 l 356 433 b 352 459 355 445 352 456 b 361 479 352 462 361 477 b 375 544 372 505 375 529 l 375 563 b 358 711 375 652 369 698 l 340 720 l 331 720 b 177 663 255 720 191 676 b 152 634 161 659 159 647 b 200 550 195 623 200 586 l 200 433 b 163 431 190 433 166 433 l 158 431 b 79 445 147 441 123 445 "},"‚":{"x_min":41.671875,"x_max":341.671875,"ha":383,"o":"m 202 -72 l 202 -155 b 187 -216 191 -172 187 -216 b 202 -213 190 -216 200 -213 l 241 -188 b 295 -113 255 -172 284 -127 l 308 -97 b 334 -38 313 -86 331 -43 l 341 11 l 341 37 l 327 79 b 262 145 312 105 287 127 l 213 170 l 202 187 b 184 229 191 198 188 229 l 161 229 b 141 220 158 227 143 222 l 95 179 b 62 137 70 156 81 137 b 41 112 58 131 43 115 l 41 95 b 101 37 54 63 75 50 l 155 -5 b 202 -72 172 -22 202 -45 "},"Æ":{"x_min":41.671875,"x_max":1597.21875,"ha":1639,"o":"m 1461 -66 b 1462 -68 1461 -66 1461 -68 b 1484 -62 1466 -68 1481 -62 l 1497 -45 b 1504 -30 1498 -43 1504 -30 l 1511 5 b 1522 76 1511 34 1522 54 l 1522 88 b 1515 140 1518 116 1515 133 l 1525 180 l 1529 308 b 1483 293 1500 308 1497 293 l 1441 219 l 1433 187 b 1381 148 1430 168 1427 148 b 1348 123 1381 148 1352 131 l 1330 104 l 1268 80 b 1255 79 1265 80 1258 80 l 1256 79 b 1236 76 1247 77 1237 76 l 1218 76 b 1161 90 1200 76 1187 79 l 1137 100 l 1138 98 l 1072 134 l 1022 202 l 1022 201 l 1018 205 b 984 280 1012 241 995 252 l 984 277 b 981 284 983 279 981 281 b 919 431 956 347 936 393 l 919 454 l 912 508 b 908 502 908 508 908 505 b 905 508 908 502 905 506 b 926 522 908 516 915 522 l 1237 522 l 1266 526 b 1381 530 1272 526 1355 530 b 1440 511 1402 525 1422 526 b 1461 500 1443 511 1454 500 l 1469 497 b 1473 484 1470 493 1473 486 l 1470 488 b 1483 465 1470 477 1476 469 l 1501 461 l 1508 462 l 1522 476 l 1530 491 b 1540 516 1536 497 1540 511 l 1541 595 l 1537 604 b 1529 641 1537 616 1529 609 l 1486 643 b 1469 633 1484 640 1476 633 l 1456 626 b 1351 616 1431 623 1375 615 l 1190 620 b 1090 616 1159 620 1119 616 l 1052 616 l 958 625 l 938 620 l 913 620 b 915 637 913 620 915 627 b 913 644 915 638 913 641 l 913 652 b 920 684 913 668 920 670 l 920 693 l 926 701 l 937 770 b 945 786 940 775 943 779 l 968 811 b 1011 872 984 829 994 854 l 1011 870 l 1018 876 b 1068 898 1031 891 1041 898 b 1104 897 1079 898 1091 897 l 1143 895 l 1154 890 l 1195 888 b 1216 894 1195 888 1211 891 l 1227 891 l 1262 868 b 1345 841 1293 861 1334 844 l 1358 837 l 1401 811 b 1425 797 1411 806 1420 800 l 1476 737 b 1481 722 1476 733 1480 726 l 1511 679 l 1511 680 l 1516 672 l 1515 673 l 1525 647 b 1533 637 1529 644 1533 638 l 1555 626 l 1573 629 b 1597 672 1593 631 1597 638 b 1590 698 1597 690 1595 693 l 1579 733 l 1555 765 l 1555 763 l 1548 773 l 1550 772 l 1543 798 b 1540 826 1543 804 1540 822 l 1526 844 l 1513 909 b 1525 937 1513 915 1525 923 l 1525 943 b 1487 970 1525 961 1498 970 b 1463 966 1469 970 1466 966 l 1431 968 b 1405 962 1422 968 1418 962 b 1401 963 1404 962 1402 963 l 1373 963 b 1359 969 1370 963 1359 969 l 1330 976 l 1256 976 b 1219 975 1244 976 1230 975 b 1202 976 1212 975 1206 976 l 1122 977 b 1112 987 1120 977 1116 981 l 1113 987 b 1075 1013 1104 1000 1093 1013 l 1025 1005 b 990 987 1016 1005 1005 995 l 955 966 b 931 954 945 959 937 954 l 920 940 l 920 941 b 897 915 916 937 904 925 l 840 847 l 787 750 b 750 826 772 790 756 823 l 736 875 l 725 895 b 706 951 725 906 706 941 l 705 968 b 669 1009 673 968 690 1009 l 661 1008 b 609 976 643 990 608 979 b 580 970 606 975 590 970 l 565 970 b 475 962 483 970 479 966 b 420 948 466 954 459 948 b 412 945 418 948 418 948 l 413 947 b 400 943 409 945 402 943 l 393 943 b 337 948 369 943 354 948 l 291 948 l 283 944 b 262 926 277 941 265 930 l 262 915 l 275 904 b 306 898 287 904 306 901 l 391 898 b 440 908 409 898 430 908 l 448 908 b 475 898 448 908 469 898 l 486 890 b 494 880 490 886 491 881 l 502 872 b 516 855 506 865 512 858 l 540 822 b 547 802 541 816 544 806 l 547 801 b 538 770 543 790 538 770 b 540 758 538 768 540 761 b 536 745 540 755 540 754 l 530 729 l 531 729 l 484 630 b 452 558 479 606 458 580 l 452 556 b 420 456 452 544 422 465 b 391 393 400 402 401 419 l 393 394 l 350 323 b 255 266 338 283 305 279 b 97 218 234 245 122 230 b 91 213 94 215 94 213 l 77 206 b 41 169 61 198 41 190 b 65 168 48 168 56 168 b 98 169 81 168 97 169 l 113 169 b 168 144 137 169 161 144 l 168 143 b 180 104 168 136 179 106 l 184 91 b 187 56 184 81 187 61 b 151 -33 187 5 172 -11 l 140 -43 l 140 -65 b 141 -86 140 -65 141 -66 l 205 -19 l 243 15 b 348 208 316 97 343 183 l 359 225 b 372 259 359 234 365 245 l 380 276 b 420 359 380 308 420 359 b 436 387 422 380 434 386 l 447 387 b 461 381 450 386 458 381 l 505 355 l 505 356 l 543 323 l 541 323 l 550 312 b 559 302 552 308 558 304 l 565 295 b 598 193 573 269 580 193 l 613 193 b 612 198 613 195 613 198 b 623 212 616 202 622 205 l 631 225 l 631 223 b 641 256 631 223 641 243 l 647 288 b 645 311 647 295 645 305 b 681 375 645 326 679 347 l 697 394 b 715 426 705 402 712 409 b 723 420 718 423 720 422 l 722 420 l 738 405 l 745 387 b 754 355 747 380 750 363 l 768 308 b 819 181 786 247 816 181 l 830 152 b 1070 -4 865 59 941 8 l 1093 -4 b 1175 -6 1112 -6 1126 -6 b 1233 1 1194 -6 1215 -5 l 1288 22 b 1354 41 1318 33 1344 38 l 1383 40 b 1441 13 1388 40 1413 29 l 1440 5 b 1456 -15 1440 -8 1448 -12 b 1454 -58 1454 -29 1454 -44 l 1461 -66 m 645 386 l 618 363 b 616 361 616 362 616 362 l 615 359 l 538 433 l 526 440 b 479 484 488 455 484 479 l 479 491 b 494 531 479 501 494 523 l 498 563 l 519 620 l 537 650 l 541 663 l 559 684 b 584 731 563 731 580 731 b 720 468 609 731 708 494 l 720 459 b 708 443 720 451 711 447 l 669 409 b 645 386 659 398 650 388 "},"Ë":{"x_min":41.671875,"x_max":1009.71875,"ha":1051,"o":"m 854 -69 b 876 -66 854 -69 868 -69 b 880 -65 877 -66 879 -65 l 895 -48 b 904 -33 897 -45 904 -33 l 911 2 b 923 73 911 31 923 51 l 923 86 b 916 137 919 113 916 130 l 927 177 l 931 304 b 879 288 898 304 895 288 l 831 216 l 822 184 b 765 145 819 165 816 145 b 726 120 763 145 731 129 l 709 104 b 705 101 708 102 706 101 l 683 91 l 636 77 b 620 76 631 77 623 77 l 622 76 b 598 73 612 75 601 73 l 579 73 b 513 87 558 73 544 76 l 487 97 l 488 95 l 412 131 l 355 200 l 355 198 l 351 202 b 308 270 347 237 327 251 l 311 270 l 294 286 b 252 380 281 305 265 348 l 243 404 l 243 402 b 238 450 241 412 238 445 l 231 504 b 226 498 227 504 226 501 b 223 504 226 498 223 502 b 247 518 226 512 234 518 l 601 518 l 633 522 b 765 526 640 522 734 526 b 830 506 788 520 809 522 b 854 495 834 506 847 495 l 863 493 b 868 480 865 488 868 481 l 865 484 b 879 461 865 473 872 465 l 900 456 l 908 458 l 923 472 l 933 487 b 944 512 938 493 944 506 l 945 591 l 941 600 b 931 637 941 612 931 605 l 883 638 b 863 629 880 636 872 629 l 850 622 b 723 612 820 619 744 612 l 547 616 b 433 612 512 616 466 612 l 391 612 l 283 620 l 262 616 l 233 616 b 234 633 233 616 234 623 b 233 640 234 634 233 637 l 233 648 b 241 680 233 663 241 666 l 241 688 l 247 697 l 259 766 b 269 781 263 770 266 775 l 294 806 b 344 866 312 825 326 848 l 344 865 l 351 870 b 408 893 368 886 377 893 b 448 891 420 893 434 891 l 493 890 l 505 884 l 552 883 b 576 888 554 883 570 886 l 590 886 l 612 870 l 611 870 l 629 862 b 723 836 663 855 711 838 l 737 831 l 787 806 b 813 793 797 802 808 795 l 872 733 b 877 718 872 729 876 722 l 911 675 l 911 676 b 918 668 912 673 916 670 l 916 669 l 927 643 b 936 633 931 640 936 634 l 961 622 l 981 625 b 1009 668 1004 630 1009 633 b 1001 694 1009 686 1006 688 l 988 729 l 961 761 l 961 759 l 954 769 l 955 768 l 947 794 b 944 820 947 800 944 816 l 929 838 l 913 904 b 926 931 913 909 926 918 l 926 937 b 884 965 926 955 897 965 b 856 961 863 965 861 961 l 820 962 b 791 956 809 962 805 956 b 787 958 790 956 788 958 l 755 958 b 738 963 751 958 738 963 l 706 970 l 622 970 b 580 969 608 970 593 969 b 561 970 572 969 566 970 l 469 972 b 458 981 468 972 463 976 l 459 981 b 416 1008 448 994 436 1008 l 359 1000 b 320 981 350 1000 337 990 l 280 961 b 254 948 269 954 259 948 l 241 934 l 241 936 b 213 909 236 931 222 919 l 198 890 l 150 841 l 81 731 b 51 625 69 669 58 655 b 41 572 43 593 41 579 b 47 512 41 554 47 529 b 45 506 45 508 45 506 l 45 466 b 55 386 45 455 52 404 l 68 304 b 237 97 109 175 173 138 l 259 62 b 286 40 262 58 281 41 l 320 19 l 355 5 b 369 2 359 5 365 4 l 411 -6 l 437 -6 b 490 -12 451 -6 477 -12 b 504 -11 491 -12 500 -12 l 502 -11 b 508 -9 504 -9 506 -9 l 570 -4 b 595 -1 579 -4 591 -2 l 636 11 l 634 11 l 659 19 b 733 38 691 29 722 15 l 766 37 b 831 11 772 37 801 26 l 830 2 b 850 -18 830 -11 840 -15 b 847 -61 847 -31 847 -47 l 854 -69 m 681 1058 l 691 1058 b 748 1170 750 1058 748 1125 b 680 1279 748 1237 745 1277 l 675 1279 b 575 1219 652 1279 602 1270 l 575 1202 b 681 1058 590 1079 631 1056 m 423 1054 l 426 1054 b 483 1175 488 1054 483 1129 b 415 1276 483 1234 479 1276 b 311 1215 395 1276 341 1269 l 309 1198 b 423 1054 326 1069 369 1055 "},"'":{"x_min":41.671875,"x_max":341.671875,"ha":383,"o":"m 202 666 l 202 583 b 187 522 191 566 187 522 b 202 525 190 522 200 525 l 241 550 b 295 625 255 566 284 611 l 308 641 b 334 700 313 652 331 695 l 341 750 l 341 776 l 327 818 b 262 884 312 844 287 866 l 213 909 l 202 926 b 184 968 191 937 188 968 l 161 968 b 141 959 158 966 143 961 l 95 918 b 62 876 70 895 81 876 b 41 851 58 870 43 854 l 41 834 b 101 776 54 802 75 788 l 155 733 b 202 666 172 716 202 693 "},"Š":{"x_min":40.28125,"x_max":775,"ha":817,"o":"m 175 1591 b 97 1572 147 1591 116 1583 l 75 1547 b 40 1490 50 1529 40 1509 b 84 1441 40 1473 51 1441 b 145 1456 94 1441 126 1456 b 151 1455 147 1456 150 1456 l 270 1379 l 305 1329 b 333 1245 305 1315 325 1266 l 341 1225 l 368 1113 b 366 1106 366 1112 366 1112 l 373 1073 b 381 1022 373 1065 373 1037 b 55 773 223 1008 100 908 b 54 745 54 766 54 750 l 54 737 b 41 687 54 737 41 706 b 45 581 41 633 44 598 l 45 575 l 69 522 l 77 512 b 98 491 80 508 86 500 l 95 493 b 118 475 101 486 111 477 l 130 462 b 247 405 168 423 181 405 l 254 401 b 365 361 297 380 359 361 l 381 361 b 430 354 394 358 419 354 l 459 354 b 622 222 556 354 622 309 b 429 77 622 154 573 83 b 330 100 393 77 358 87 l 295 119 b 281 123 288 120 281 122 l 266 137 b 240 169 259 140 248 155 l 231 177 b 211 208 231 202 233 208 l 200 218 l 176 218 b 172 219 173 218 173 219 l 165 219 b 94 208 158 219 115 215 l 86 208 l 69 198 b 45 161 62 191 45 172 l 45 141 l 72 94 b 216 -8 120 18 195 -5 l 219 -8 b 288 -22 233 -16 247 -22 b 306 -19 295 -22 302 -20 b 398 -26 333 -23 366 -26 b 766 281 577 -26 766 61 b 681 450 766 379 713 427 l 672 454 b 652 466 661 461 652 465 b 356 541 576 536 440 501 l 358 541 b 256 608 305 576 300 579 l 247 623 l 225 643 b 212 748 218 690 212 706 b 231 820 212 761 213 801 l 231 836 b 233 838 231 836 233 837 l 233 837 l 236 843 l 251 855 l 261 872 l 287 894 l 286 894 l 297 904 b 384 919 319 909 365 919 b 388 918 386 919 387 918 l 387 918 b 420 912 401 915 412 912 l 425 908 b 500 897 468 904 483 897 b 700 727 586 897 616 727 b 751 777 709 727 748 754 l 765 801 b 766 819 765 801 766 808 b 755 883 766 852 755 880 b 758 897 755 886 755 890 l 765 920 b 775 958 770 931 775 950 b 727 1002 775 1002 736 1002 l 708 1002 l 702 1000 b 670 995 697 1000 680 1000 l 641 995 b 633 997 636 995 634 997 l 622 997 b 447 1022 611 997 511 1016 b 452 1052 451 1031 452 1043 b 450 1070 452 1063 450 1070 l 458 1095 b 468 1137 458 1105 466 1133 l 468 1134 l 541 1283 l 540 1283 b 559 1302 540 1283 548 1295 l 568 1309 b 619 1343 568 1309 612 1343 l 622 1356 l 622 1355 b 625 1372 623 1359 625 1363 b 613 1398 625 1388 622 1391 l 613 1395 l 597 1412 l 561 1429 b 552 1430 559 1429 558 1430 b 444 1338 527 1430 481 1391 l 422 1293 l 409 1237 b 408 1254 408 1244 409 1247 l 391 1309 b 362 1391 388 1334 365 1387 l 334 1443 b 333 1445 333 1444 333 1444 l 316 1473 b 315 1477 315 1476 315 1476 l 311 1484 b 175 1591 281 1530 225 1591 "},"ª":{"x_min":43.0625,"x_max":579.171875,"ha":622,"o":"m 522 509 b 477 537 506 518 493 529 l 480 537 l 469 547 b 381 730 425 586 409 606 l 377 740 l 379 738 l 375 773 l 361 811 b 343 879 352 834 351 859 l 343 877 b 273 966 333 920 309 948 l 216 962 l 204 955 b 173 931 180 940 180 931 l 166 913 l 166 902 b 179 862 166 894 168 872 l 179 863 l 198 827 l 197 829 l 220 766 b 236 722 223 763 236 727 l 236 700 b 181 626 229 690 201 658 b 138 618 161 626 147 623 l 122 602 b 43 463 95 573 61 558 b 102 397 45 433 65 404 l 133 397 b 168 411 140 397 162 405 l 168 409 l 230 450 b 250 468 234 454 245 465 l 268 493 l 283 505 b 291 511 284 505 288 508 b 325 472 298 500 311 484 l 323 472 l 366 429 b 388 420 375 429 386 420 b 452 411 411 413 419 411 b 579 452 513 411 579 427 b 522 509 579 481 529 508 m 212 629 l 226 629 l 238 636 l 258 636 b 269 591 262 636 269 594 b 204 516 269 568 243 516 b 172 537 183 516 177 520 l 168 563 b 183 605 168 565 180 600 l 183 623 l 212 629 "},"Œ":{"x_min":41.671875,"x_max":1540.28125,"ha":1582,"o":"m 1397 -77 b 1400 -79 1397 -77 1398 -79 b 1425 -73 1406 -79 1425 -73 l 1444 -48 b 1448 -37 1447 -43 1448 -37 l 1455 2 b 1466 73 1455 25 1466 47 l 1466 84 b 1459 131 1466 108 1459 123 l 1469 172 l 1473 308 b 1415 293 1415 308 1436 293 l 1375 220 l 1365 187 b 1318 151 1362 169 1359 151 b 1284 123 1318 151 1294 137 l 1273 108 b 1252 97 1266 105 1259 100 l 1212 84 b 1183 80 1201 84 1190 80 l 1166 80 b 1091 102 1144 80 1130 93 l 1038 130 b 983 202 1031 130 995 183 l 984 201 b 954 256 979 227 965 243 l 951 262 b 945 268 950 262 947 266 l 931 287 l 933 286 b 904 362 923 304 912 336 l 898 379 b 887 443 894 393 887 422 l 881 502 l 1186 502 l 1213 506 b 1320 511 1225 506 1280 511 l 1337 506 b 1401 473 1362 506 1401 473 b 1418 445 1402 462 1412 451 l 1436 441 l 1447 443 l 1465 461 l 1469 469 l 1468 468 l 1472 475 b 1483 505 1477 481 1483 500 l 1484 581 l 1481 590 b 1480 600 1481 594 1480 598 l 1475 611 l 1487 604 l 1511 606 b 1540 658 1534 615 1540 618 b 1533 686 1540 673 1536 681 l 1522 723 l 1511 737 b 1500 752 1508 740 1504 745 l 1491 761 l 1486 784 b 1483 811 1486 790 1483 806 l 1469 833 l 1469 831 l 1456 888 l 1461 895 l 1461 894 b 1468 918 1465 901 1468 906 l 1468 923 b 1425 959 1468 947 1438 959 b 1402 956 1413 959 1405 958 l 1372 956 b 1347 951 1359 956 1352 951 l 1315 952 l 1304 958 l 1275 965 b 1197 963 1244 963 1218 963 b 1076 966 1138 963 1106 966 l 1070 972 b 1030 1002 1059 990 1051 1002 l 1016 1002 l 975 994 l 954 981 l 955 981 l 938 973 b 909 954 929 968 919 959 l 911 954 l 904 951 b 890 943 897 947 891 943 l 876 926 b 852 901 870 920 858 908 l 795 833 l 779 804 l 775 812 l 736 858 l 681 900 b 670 906 680 900 673 904 l 641 936 l 556 970 b 497 987 545 979 511 987 b 380 969 441 983 398 977 l 306 934 l 290 911 b 248 879 280 893 263 887 l 250 879 l 245 876 b 170 830 230 868 186 830 l 125 768 b 77 663 108 756 77 663 b 41 537 52 633 41 559 l 41 488 b 59 388 41 408 59 394 l 72 352 b 112 258 76 323 101 275 b 152 177 116 237 148 181 l 161 169 l 183 129 l 280 36 b 418 0 334 36 331 0 b 462 6 436 0 451 2 l 543 25 b 581 44 543 36 572 38 l 580 44 l 615 63 b 644 86 625 76 634 80 l 643 86 l 650 88 b 697 129 661 95 676 102 l 709 144 b 763 200 719 150 740 169 b 870 91 797 144 830 123 l 886 65 b 916 31 891 58 912 33 l 915 33 l 948 9 l 975 -2 b 986 -5 977 -2 983 -4 l 1022 -15 l 1047 -15 b 1091 -20 1059 -15 1080 -20 b 1130 -16 1100 -20 1115 -19 l 1159 -12 b 1183 -9 1165 -12 1179 -11 l 1237 11 b 1295 30 1256 18 1287 30 l 1325 29 b 1373 5 1327 29 1348 19 l 1372 2 b 1384 -23 1372 -15 1377 -20 l 1384 -63 l 1397 -77 m 191 545 b 291 786 194 670 227 740 l 291 784 l 313 798 l 312 798 b 412 840 355 819 384 840 l 423 840 b 477 827 436 840 452 827 l 497 819 b 602 740 540 806 565 762 l 634 704 b 652 673 636 697 644 684 b 701 572 670 640 700 572 l 700 526 b 704 494 700 515 701 502 l 704 486 b 711 426 704 461 706 450 l 697 348 b 690 300 693 336 690 312 l 673 261 b 652 231 673 251 668 247 l 644 222 b 608 187 636 212 612 187 l 606 187 b 575 170 598 184 590 180 l 565 168 b 512 152 511 156 527 152 l 480 152 b 466 150 475 152 469 151 b 404 158 450 154 412 151 l 351 194 l 325 222 b 191 545 300 238 191 468 m 1404 626 l 1397 622 l 1398 623 b 1394 620 1395 622 1394 620 l 1347 616 b 1286 611 1319 613 1291 611 l 1138 615 b 1097 612 1125 615 1112 613 l 1090 612 b 1044 611 1073 611 1058 611 l 1008 611 l 913 619 l 884 615 l 884 623 b 883 629 884 626 883 627 l 883 638 b 890 670 883 647 890 652 l 890 676 l 895 684 l 904 751 l 912 768 l 961 831 l 961 830 l 979 854 b 1022 873 991 866 1000 873 b 1030 872 1025 873 1027 872 l 1056 872 b 1073 870 1059 872 1066 870 l 1091 870 l 1102 865 l 1154 863 b 1193 851 1162 863 1173 862 b 1406 720 1200 843 1372 793 b 1411 704 1406 716 1408 708 l 1438 663 l 1437 665 l 1444 655 l 1451 636 l 1422 637 b 1404 626 1419 634 1412 627 "},"T":{"x_min":41.671875,"x_max":1240.28125,"ha":1282,"o":"m 551 77 l 551 40 l 573 19 b 604 6 575 18 594 8 l 622 -4 l 797 -4 b 863 16 805 -4 848 9 l 863 15 l 895 29 b 934 81 919 38 919 38 l 893 102 b 816 109 854 102 827 106 l 794 113 b 772 118 787 113 775 118 l 770 119 b 745 333 750 126 745 238 b 748 462 745 401 748 459 l 748 541 b 756 736 748 602 756 673 l 751 880 l 754 880 b 761 881 755 880 758 881 l 779 881 b 787 880 781 881 784 880 l 795 880 b 1015 865 827 880 886 865 l 1022 865 b 1029 866 1026 865 1027 866 l 1094 875 b 1145 886 1118 877 1137 883 l 1194 905 b 1240 945 1211 908 1240 925 b 1200 981 1240 963 1211 981 l 1165 981 b 1084 990 1138 987 1108 990 b 951 981 1040 990 1000 981 b 897 987 934 981 918 983 l 850 987 b 827 993 843 990 829 993 b 786 990 813 990 800 990 b 719 997 752 990 741 991 l 690 997 b 648 990 681 997 669 990 l 587 990 b 568 991 580 990 573 991 l 545 991 b 504 997 538 991 513 997 l 437 997 b 422 1001 430 998 425 1001 l 388 1001 b 283 991 277 1001 288 991 b 190 966 236 975 212 988 b 155 956 190 966 175 962 l 45 912 b 41 900 45 905 43 901 l 41 865 b 52 798 43 863 52 804 b 68 800 66 798 68 800 b 87 787 73 793 83 788 l 95 783 l 94 783 b 147 766 104 775 133 766 l 195 766 b 250 813 205 766 234 783 b 227 863 250 845 240 852 l 227 862 b 219 870 223 866 222 866 l 219 872 b 245 886 227 879 240 886 l 284 886 b 395 880 300 886 383 880 l 544 880 b 570 856 556 880 565 870 l 570 858 l 579 765 b 570 743 575 756 572 748 b 580 656 570 726 577 686 l 580 594 b 577 575 580 591 579 577 l 577 558 b 579 551 577 555 579 552 l 579 538 b 575 498 579 537 575 519 b 580 398 575 480 580 437 l 580 363 b 587 345 581 361 587 347 l 587 329 b 583 311 587 327 584 315 l 591 129 l 586 123 b 551 77 569 108 556 95 "},"j":{"x_min":41.671875,"x_max":319.4375,"ha":361,"o":"m 133 -213 b 123 -320 133 -226 123 -244 b 101 -383 123 -350 101 -381 l 101 -401 l 94 -408 l 94 -415 b 77 -450 94 -416 77 -441 b 80 -451 77 -451 79 -451 b 298 -226 218 -451 298 -284 l 298 -200 b 277 636 298 72 277 340 l 277 693 b 283 711 277 693 283 708 l 283 719 b 319 733 283 725 316 733 l 319 734 b 312 741 319 738 312 741 l 305 741 b 173 716 250 725 197 722 b 106 713 172 716 125 713 l 77 713 b 41 686 52 713 50 705 l 41 683 b 81 638 41 679 81 638 b 80 625 81 637 80 630 b 101 555 80 619 101 581 b 97 518 98 538 97 527 b 101 472 97 500 101 491 l 101 405 b 141 -65 101 72 141 88 b 133 -213 141 -102 140 -150 "},"1":{"x_min":41.671875,"x_max":391.671875,"ha":433,"o":"m 43 -84 b 83 -116 43 -109 73 -116 b 205 -2 120 -116 151 -41 b 263 38 209 1 256 34 l 331 90 b 366 141 351 101 366 119 l 366 162 b 344 263 366 211 344 245 l 344 315 b 355 418 344 333 354 405 l 366 459 l 366 736 b 379 890 368 759 376 868 b 391 936 379 904 391 922 b 379 966 391 950 386 966 l 251 966 b 188 1005 236 988 200 1005 b 112 951 170 1005 136 975 b 41 900 83 931 41 931 b 205 787 41 855 205 831 l 205 706 b 193 665 205 702 193 669 l 181 459 b 180 366 180 445 180 405 b 181 273 180 326 180 287 b 147 181 155 238 162 212 b 125 141 145 177 126 145 b 112 90 120 136 115 95 b 90 50 112 86 91 52 l 77 18 l 66 -22 b 43 -84 63 -29 44 -77 "}}}
